SplineFontDB: 3.2
FontName: ExocetBlizzardMixedCaps-Med
FullName: Exocet Blizzard Mixed Caps
FamilyName: Exocet Blizzard Mixed Caps
Weight: Book
Copyright: Copyright (c) Emigre Inc, 1991. Designed by Jonathan Barnbrook. All rights reserved.
Version: 001.000 2010
ItalicAngle: 0
UnderlinePosition: -119
UnderlineWidth: 35
Ascent: 819
Descent: 205
InvalidEm: 0
sfntRevision: 0x00010000
LayerCount: 2
Layer: 0 1 "Warstwa t+AUIA-a" 1
Layer: 1 1 "Plan pierwszy" 0
XUID: [1021 845 -632148626 2306]
StyleMap: 0x0040
FSType: 0
OS2Version: 2
OS2_WeightWidthSlopeOnly: 0
OS2_UseTypoMetrics: 0
CreationTime: 1633713370
ModificationTime: 1678620870
PfmFamily: 81
TTFWeight: 400
TTFWidth: 5
LineGap: 0
VLineGap: 0
Panose: 0 0 0 0 0 0 0 0 0 0
OS2TypoAscent: 819
OS2TypoAOffset: 0
OS2TypoDescent: -287
OS2TypoDOffset: 0
OS2TypoLinegap: 0
OS2WinAscent: 819
OS2WinAOffset: 0
OS2WinDescent: 287
OS2WinDOffset: 0
HheadAscent: 819
HheadAOffset: 0
HheadDescent: -287
HheadDOffset: 0
OS2SubXSize: 650
OS2SubYSize: 700
OS2SubXOff: 47
OS2SubYOff: 140
OS2SupXSize: 650
OS2SupYSize: 700
OS2SupXOff: -164
OS2SupYOff: 480
OS2StrikeYSize: 49
OS2StrikeYPos: 258
OS2CapHeight: 819
OS2XHeight: 531
OS2Vendor: 'Bird'
OS2CodePages: 203f00ff.dffd0000
OS2UnicodeRanges: 00000001.00000000.00000000.00000000
Lookup: 265 0 0 "'kern' Kerning poziomy w tablicy 0" { } [' RQD' ('DFLT' <'dflt' > ) 'kern' ('DFLT' <'dflt' > ) ]
DEI: 91125
ShortTable: maxp 16
  1
  0
  470
  1368
  42
  0
  0
  1
  0
  0
  0
  0
  0
  0
  0
  0
EndShort
LangName: 1033 "" "" "Medium" "EmigreInc.: Exocet Blizzard" "" "Version 001.000 2010" "" "Exocet is a trademark of Emigre, Inc." "" "Jonathan Barnbrook" "" "http://www.emigre.com" "http://www.emigre.com/Bios.php?d+AD0A-21" "See: http://www.emigre.com/EUL.html" "http://www.emigre.com/EUL.html"
GaspTable: 1 65535 2 0
Encoding: UnicodeFull
UnicodeInterp: none
NameList: AGL For New Fonts
DisplaySize: -48
AntiAlias: 1
FitToEm: 0
WinInfo: 8170 38 14
BeginChars: 1114113 474

StartChar: .notdef
Encoding: 1114112 -1 0
Width: 543
GlyphClass: 1
Flags: W
LayerCount: 2
Fore
SplineSet
51 102 m 1,0,1
 128 102 128 102 358 102 c 1,2,3
 358 226 358 226 358 596 c 1,4,5
 282 596 282 596 51 596 c 1,6,7
 51 472 51 472 51 102 c 1,0,1
0 647 m 1,8,9
 102 647 102 647 410 647 c 1,10,11
 410 498 410 498 410 51 c 1,12,13
 307 51 307 51 0 51 c 1,14,15
 0 200 0 200 0 647 c 1,8,9
EndSplineSet
Validated: 1
EndChar

StartChar: exclam
Encoding: 33 33 4
Width: 418
GlyphClass: 1
Flags: W
LayerCount: 2
Fore
SplineSet
188 631 m 1,0,1
 171 613 171 613 118 560 c 1,2,3
 131 469 131 469 172 195 c 0,4,5
 176 190 176 190 188 178 c 1,6,7
 193 182 193 182 205 195 c 1,8,9
 218 286 218 286 259 560 c 1,10,11
 241 578 241 578 188 631 c 1,0,1
188 129 m 1,12,13
 169 109 169 109 111 50 c 1,14,15
 130 31 130 31 188 -28 c 1,16,17
 208 -8 208 -8 266 50 c 1,18,19
 247 70 247 70 188 129 c 1,12,13
EndSplineSet
Validated: 9
EndChar

StartChar: quotedbl
Encoding: 34 34 5
Width: 547
GlyphClass: 1
Flags: W
LayerCount: 2
Fore
SplineSet
164 631 m 1,0,1
 146 613 146 613 92 559 c 1,2,3
 110 517 110 517 164 389 c 1,4,5
 182 432 182 432 236 559 c 1,6,7
 218 577 218 577 164 631 c 1,0,1
383 631 m 1,8,9
 365 613 365 613 311 559 c 1,10,11
 329 517 329 517 383 389 c 1,12,13
 401 432 401 432 455 559 c 1,14,15
 437 577 437 577 383 631 c 1,8,9
EndSplineSet
Validated: 9
EndChar

StartChar: numbersign
Encoding: 35 35 6
Width: 543
GlyphClass: 1
Flags: W
LayerCount: 2
Fore
SplineSet
467 466 m 1,0,1
 450 466 450 466 397 466 c 1,2,3
 402 499 402 499 417 598 c 1,4,5
 401 598 401 598 354 598 c 1,6,7
 349 565 349 565 335 466 c 1,8,9
 311 466 311 466 238 466 c 1,10,11
 243 499 243 499 258 598 c 1,12,13
 242 598 242 598 195 598 c 1,14,15
 190 565 190 565 175 466 c 1,16,17
 156 466 156 466 100 466 c 1,18,19
 100 453 100 453 100 415 c 1,20,21
 117 415 117 415 168 415 c 1,22,23
 164 390 164 390 153 317 c 1,24,25
 133 317 133 317 76 317 c 1,26,27
 76 305 76 305 76 266 c 1,28,29
 93 266 93 266 145 266 c 1,30,31
 141 233 141 233 126 134 c 1,32,33
 141 134 141 134 187 134 c 1,34,35
 193 167 193 167 208 266 c 1,36,37
 232 266 232 266 305 266 c 1,38,39
 300 233 300 233 286 134 c 1,40,41
 301 134 301 134 347 134 c 1,42,43
 352 167 352 167 367 266 c 1,44,45
 386 266 386 266 442 266 c 1,46,47
 442 279 442 279 442 317 c 1,48,49
 425 317 425 317 375 317 c 1,50,51
 378 342 378 342 389 415 c 1,52,53
 409 415 409 415 467 415 c 1,54,55
 467 428 467 428 467 466 c 1,0,1
312 317 m 1,56,57
 288 317 288 317 216 317 c 1,58,59
 219 342 219 342 229 415 c 1,60,61
 254 415 254 415 327 415 c 1,62,63
 323 390 323 390 312 317 c 1,56,57
EndSplineSet
Validated: 9
EndChar

StartChar: dollar
Encoding: 36 36 7
Width: 626
GlyphClass: 1
Flags: W
LayerCount: 2
Fore
SplineSet
294 653 m 1,0,1
 294 641 294 641 294 603 c 1,2,3
 234 593 234 593 195 552 c 0,4,5
 157 511 157 511 157 453 c 0,6,7
 157 396 157 396 183 360 c 0,8,9
 208 325 208 325 271 289 c 0,10,11
 279 284 279 284 294 275 c 1,12,13
 294 224 294 224 294 70 c 1,14,15
 263 76 263 76 249 93 c 0,16,17
 234 111 234 111 234 127 c 0,18,19
 234 142 234 142 240 149 c 0,20,21
 245 156 245 156 252 162 c 1,22,23
 250 167 250 167 247 177 c 1,24,25
 218 164 218 164 131 123 c 1,26,27
 143 89 143 89 179 43 c 256,28,29
 215 -3 215 -3 294 -11 c 1,30,31
 294 -30 294 -30 294 -68 c 1,32,33
 310 -68 310 -68 356 -68 c 1,34,35
 356 -53 356 -53 356 -10 c 1,36,37
 419 0 419 0 465 43 c 0,38,39
 512 86 512 86 512 156 c 0,40,41
 512 212 512 212 486 251 c 0,42,43
 461 290 461 290 392 329 c 0,44,45
 380 335 380 335 356 348 c 1,46,47
 356 393 356 393 356 526 c 1,48,49
 380 521 380 521 395 506 c 0,50,51
 410 492 410 492 410 474 c 0,52,53
 410 459 410 459 402 452 c 256,54,55
 394 445 394 445 394 444 c 0,56,57
 397 440 397 440 401 432 c 1,58,59
 426 447 426 447 500 494 c 1,60,61
 482 525 482 525 451 561 c 0,62,63
 420 596 420 596 356 604 c 1,64,65
 356 621 356 621 356 653 c 1,66,67
 341 653 341 653 294 653 c 1,0,1
246 455 m 0,68,69
 246 477 246 477 258 495 c 0,70,71
 270 514 270 514 294 523 c 1,72,73
 294 477 294 477 294 383 c 1,74,75
 269 398 269 398 258 415 c 0,76,77
 246 432 246 432 246 455 c 0,68,69
418 153 m 0,78,79
 418 124 418 124 401 103 c 256,80,81
 384 82 384 82 356 73 c 1,82,83
 356 129 356 129 356 241 c 1,84,85
 383 225 383 225 401 205 c 0,86,87
 418 186 418 186 418 153 c 0,78,79
EndSplineSet
Validated: 9
EndChar

StartChar: percent
Encoding: 37 37 8
Width: 837
GlyphClass: 1
Flags: W
LayerCount: 2
Fore
SplineSet
391 435 m 0,0,1
 391 504 391 504 343 552 c 0,2,3
 294 600 294 600 226 600 c 256,4,5
 158 600 158 600 110 552 c 0,6,7
 61 504 61 504 61 435 c 0,8,9
 61 368 61 368 110 319 c 0,10,11
 158 271 158 271 226 271 c 256,12,13
 294 271 294 271 343 319 c 0,14,15
 391 368 391 368 391 435 c 0,0,1
570 598 m 1,16,17
 479 449 479 449 206 0 c 1,18,19
 221 0 221 0 266 0 c 1,20,21
 357 150 357 150 631 598 c 1,22,23
 616 598 616 598 570 598 c 1,16,17
137 379 m 1,24,25
 130 391 130 391 125 406 c 0,26,27
 121 420 121 420 121 435 c 0,28,29
 121 479 121 479 152 510 c 256,30,31
 183 541 183 541 226 541 c 0,32,33
 242 541 242 541 256 536 c 0,34,35
 270 532 270 532 283 524 c 1,36,37
 234 476 234 476 137 379 c 1,24,25
331 435 m 0,38,39
 331 392 331 392 300 361 c 0,40,41
 270 331 270 331 226 331 c 0,42,43
 211 331 211 331 197 334 c 0,44,45
 184 337 184 337 172 345 c 1,46,47
 220 393 220 393 316 489 c 1,48,49
 324 478 324 478 327 464 c 0,50,51
 331 450 331 450 331 435 c 0,38,39
775 163 m 0,52,53
 775 230 775 230 727 279 c 0,54,55
 679 327 679 327 610 327 c 0,56,57
 542 327 542 327 494 279 c 0,58,59
 445 230 445 230 445 163 c 0,60,61
 445 94 445 94 494 46 c 0,62,63
 542 -2 542 -2 610 -2 c 0,64,65
 679 -2 679 -2 727 46 c 256,66,67
 775 94 775 94 775 163 c 0,52,53
522 105 m 1,68,69
 515 119 515 119 510 133 c 256,70,71
 505 147 505 147 505 163 c 0,72,73
 505 206 505 206 536 237 c 0,74,75
 567 267 567 267 610 267 c 0,76,77
 626 267 626 267 641 263 c 0,78,79
 655 259 655 259 667 251 c 1,80,81
 618 202 618 202 522 105 c 1,68,69
716 163 m 0,82,83
 716 119 716 119 685 88 c 256,84,85
 654 57 654 57 610 57 c 0,86,87
 596 57 596 57 582 61 c 0,88,89
 568 64 568 64 557 72 c 1,90,91
 605 120 605 120 701 216 c 1,92,93
 708 204 708 204 712 190 c 0,94,95
 716 177 716 177 716 163 c 0,82,83
EndSplineSet
Validated: 9
EndChar

StartChar: ampersand
Encoding: 38 38 9
Width: 763
GlyphClass: 1
Flags: W
LayerCount: 2
Fore
SplineSet
582 166 m 1,0,1
 591 175 591 175 617 202 c 0,2,3
 640 222 640 222 652 223 c 0,4,5
 664 223 664 223 681 209 c 0,6,7
 682 207 682 207 684 206 c 0,8,9
 685 204 685 204 685 204 c 1,10,11
 691 207 691 207 702 212 c 1,12,13
 701 214 701 214 696 218 c 0,14,15
 687 227 687 227 677 236 c 0,16,17
 667 246 667 246 659 252 c 0,18,19
 642 271 642 271 606 310 c 0,20,21
 599 316 599 316 590 327 c 0,22,23
 582 337 582 337 572 346 c 0,24,25
 570 349 570 349 566 353 c 1,26,27
 564 349 564 349 558 336 c 1,28,29
 558 336 558 336 560 335 c 0,30,31
 562 333 562 333 563 332 c 0,32,33
 577 315 577 315 576 302 c 256,34,35
 575 289 575 289 553 268 c 0,36,37
 541 257 541 257 518 234 c 1,38,39
 509 246 509 246 480 280 c 0,40,41
 466 297 466 297 450 313 c 256,42,43
 434 329 434 329 416 342 c 1,44,45
 440 364 440 364 454 393 c 0,46,47
 468 423 468 423 468 458 c 0,48,49
 468 522 468 522 423 568 c 0,50,51
 377 613 377 613 313 613 c 0,52,53
 248 613 248 613 202 568 c 0,54,55
 157 522 157 522 157 458 c 0,56,57
 157 423 157 423 171 393 c 0,58,59
 186 362 186 362 210 341 c 1,60,61
 169 315 169 315 145 272 c 0,62,63
 120 229 120 229 120 178 c 0,64,65
 120 98 120 98 177 41 c 0,66,67
 233 -15 233 -15 313 -15 c 0,68,69
 359 -15 359 -15 392 1 c 0,70,71
 424 18 424 18 442 35 c 0,72,73
 462 52 462 52 480 69 c 0,74,75
 499 87 499 87 517 104 c 1,76,77
 541 78 541 78 563 51 c 0,78,79
 585 25 585 25 609 0 c 1,80,81
 639 0 639 0 699 0 c 0,82,83
 714 -1 714 -1 758 -2 c 1,84,85
 756 2 756 2 755 6 c 0,86,87
 754 11 754 11 753 15 c 0,88,89
 751 15 751 15 746 15 c 0,90,91
 731 15 731 15 716 25 c 0,92,93
 702 35 702 35 672 65 c 0,94,95
 642 98 642 98 582 166 c 1,0,1
385 458 m 256,96,97
 385 428 385 428 364 406 c 0,98,99
 343 385 343 385 313 385 c 256,100,101
 283 385 283 385 262 406 c 0,102,103
 241 428 241 428 241 458 c 256,104,105
 241 488 241 488 262 509 c 256,106,107
 283 530 283 530 313 530 c 256,108,109
 343 530 343 530 364 509 c 256,110,111
 385 488 385 488 385 458 c 256,96,97
457 170 m 1,112,113
 440 154 440 154 389 106 c 0,114,115
 368 86 368 86 349 79 c 0,116,117
 331 73 331 73 313 73 c 0,118,119
 270 73 270 73 239 104 c 0,120,121
 208 134 208 134 208 178 c 0,122,123
 208 220 208 220 239 251 c 256,124,125
 270 282 270 282 313 282 c 0,126,127
 333 282 333 282 353 273 c 0,128,129
 372 265 372 265 384 252 c 0,130,131
 408 225 408 225 457 170 c 1,112,113
EndSplineSet
Validated: 41
EndChar

StartChar: quotesingle
Encoding: 39 39 10
Width: 328
GlyphClass: 1
Flags: W
LayerCount: 2
Fore
SplineSet
164 631 m 1,0,1
 145 612 145 612 89 556 c 1,2,3
 108 514 108 514 164 386 c 1,4,5
 183 429 183 429 239 556 c 1,6,7
 220 575 220 575 164 631 c 1,0,1
EndSplineSet
Validated: 9
EndChar

StartChar: parenleft
Encoding: 40 40 11
Width: 492
GlyphClass: 1
Flags: W
LayerCount: 2
Fore
SplineSet
272 18 m 1,0,1
 272 157 272 157 272 571 c 1,2,3
 300 602 300 602 384 694 c 1,4,5
 378 702 378 702 359 724 c 1,6,7
 319 688 319 688 197 580 c 1,8,9
 197 437 197 437 197 9 c 1,10,11
 237 -27 237 -27 359 -135 c 1,12,13
 366 -127 366 -127 384 -104 c 1,14,15
 356 -74 356 -74 272 18 c 1,0,1
EndSplineSet
Validated: 9
EndChar

StartChar: parenright
Encoding: 41 41 12
Width: 492
GlyphClass: 1
Flags: W
LayerCount: 2
Fore
SplineSet
295 580 m 1,0,1
 254 616 254 616 132 724 c 1,2,3
 126 717 126 717 108 694 c 1,4,5
 135 664 135 664 219 571 c 1,6,7
 219 433 219 433 219 18 c 1,8,9
 191 -12 191 -12 108 -104 c 1,10,11
 114 -112 114 -112 132 -135 c 1,12,13
 173 -99 173 -99 295 9 c 1,14,15
 295 152 295 152 295 580 c 1,0,1
EndSplineSet
Validated: 9
EndChar

StartChar: asterisk
Encoding: 42 42 13
Width: 467
GlyphClass: 1
Flags: W
LayerCount: 2
Fore
SplineSet
366 426 m 1,0,1
 358 424 358 424 337 419 c 1,2,3
 326 425 326 425 292 444 c 1,4,5
 303 451 303 451 337 470 c 1,6,7
 344 468 344 468 366 463 c 1,8,9
 370 480 370 480 383 530 c 1,10,11
 366 535 366 535 315 549 c 1,12,13
 313 542 313 542 307 521 c 1,14,15
 296 515 296 515 262 496 c 1,16,17
 262 508 262 508 262 547 c 1,18,19
 267 552 267 552 283 567 c 1,20,21
 270 580 270 580 233 616 c 1,22,23
 221 604 221 604 184 567 c 1,24,25
 189 562 189 562 205 547 c 1,26,27
 205 534 205 534 205 496 c 1,28,29
 194 502 194 502 160 521 c 1,30,31
 158 528 158 528 152 549 c 1,32,33
 135 544 135 544 84 530 c 1,34,35
 88 514 88 514 101 463 c 1,36,37
 109 465 109 465 130 470 c 1,38,39
 141 464 141 464 174 444 c 1,40,41
 163 438 163 438 130 419 c 1,42,43
 123 421 123 421 101 426 c 1,44,45
 97 409 97 409 84 357 c 1,46,47
 101 353 101 353 152 339 c 1,48,49
 154 346 154 346 160 368 c 1,50,51
 171 374 171 374 205 393 c 1,52,53
 205 380 205 380 205 341 c 1,54,55
 200 336 200 336 184 321 c 1,56,57
 197 308 197 308 233 271 c 1,58,59
 246 284 246 284 283 321 c 1,60,61
 278 326 278 326 262 341 c 1,62,63
 262 354 262 354 262 393 c 1,64,65
 273 387 273 387 307 368 c 1,66,67
 309 360 309 360 315 339 c 1,68,69
 332 344 332 344 383 357 c 1,70,71
 379 375 379 375 366 426 c 1,0,1
EndSplineSet
Validated: 9
EndChar

StartChar: plus
Encoding: 43 43 14
Width: 658
GlyphClass: 1
Flags: W
LayerCount: 2
Fore
SplineSet
499 229 m 0,0,1
 499 242 499 242 498 255 c 0,2,3
 497 269 497 269 497 279 c 0,4,5
 497 301 497 301 497 347 c 0,6,7
 497 356 497 356 498 370 c 256,8,9
 499 384 499 384 499 396 c 0,10,11
 499 399 499 399 499 406 c 1,12,13
 494 404 494 404 481 399 c 0,14,15
 481 398 481 398 481 392 c 0,16,17
 479 371 479 371 470 362 c 256,18,19
 461 353 461 353 431 353 c 0,20,21
 411 353 411 353 370 353 c 1,22,23
 370 369 370 369 370 415 c 0,24,25
 370 445 370 445 378 454 c 256,26,27
 386 463 386 463 408 465 c 0,28,29
 410 465 410 465 416 465 c 1,30,31
 417 469 417 469 421 482 c 1,32,33
 419 482 419 482 412 482 c 0,34,35
 399 482 399 482 386 481 c 0,36,37
 372 480 372 480 362 480 c 0,38,39
 340 480 340 480 295 480 c 0,40,41
 286 480 286 480 272 481 c 256,42,43
 258 482 258 482 246 482 c 0,44,45
 243 482 243 482 237 482 c 1,46,47
 238 478 238 478 243 465 c 0,48,49
 244 465 244 465 250 465 c 0,50,51
 271 463 271 463 280 454 c 0,52,53
 288 445 288 445 288 415 c 0,54,55
 288 394 288 394 288 353 c 1,56,57
 273 353 273 353 227 353 c 0,58,59
 197 353 197 353 188 362 c 256,60,61
 179 371 179 371 177 392 c 0,62,63
 177 395 177 395 177 399 c 0,64,65
 173 401 173 401 159 406 c 1,66,67
 159 403 159 403 159 396 c 0,68,69
 159 384 159 384 160 370 c 0,70,71
 162 356 162 356 162 347 c 0,72,73
 162 324 162 324 162 279 c 0,74,75
 162 269 162 269 160 255 c 0,76,77
 159 242 159 242 159 229 c 0,78,79
 159 226 159 226 159 220 c 1,80,81
 163 222 163 222 177 226 c 0,82,83
 177 228 177 228 177 233 c 0,84,85
 179 255 179 255 188 263 c 256,86,87
 197 271 197 271 227 271 c 0,88,89
 247 271 247 271 288 271 c 1,90,91
 288 256 288 256 288 211 c 0,92,93
 288 181 288 181 280 172 c 0,94,95
 271 163 271 163 250 161 c 0,96,97
 247 161 247 161 243 161 c 0,98,99
 241 156 241 156 237 142 c 1,100,101
 239 142 239 142 246 142 c 0,102,103
 258 142 258 142 272 144 c 0,104,105
 286 145 286 145 295 145 c 0,106,107
 317 145 317 145 362 145 c 0,108,109
 372 145 372 145 386 144 c 0,110,111
 399 142 399 142 412 142 c 0,112,113
 415 142 415 142 421 142 c 1,114,115
 420 147 420 147 416 161 c 0,116,117
 414 161 414 161 408 161 c 0,118,119
 386 163 386 163 378 172 c 256,120,121
 370 181 370 181 370 211 c 0,122,123
 370 231 370 231 370 271 c 1,124,125
 385 271 385 271 431 271 c 0,126,127
 461 271 461 271 470 263 c 256,128,129
 479 255 479 255 481 233 c 0,130,131
 481 231 481 231 481 226 c 1,132,133
 486 225 486 225 499 220 c 1,134,135
 499 222 499 222 499 229 c 0,0,1
EndSplineSet
Validated: 9
EndChar

StartChar: comma
Encoding: 44 44 15
Width: 328
GlyphClass: 1
Flags: W
LayerCount: 2
Fore
SplineSet
164 138 m 1,0,1
 143 118 143 118 81 55 c 1,2,3
 94 42 94 42 135 1 c 1,4,5
 121 -14 121 -14 77 -57 c 1,6,7
 84 -65 84 -65 105 -86 c 1,8,9
 141 -51 141 -51 247 55 c 1,10,11
 226 76 226 76 164 138 c 1,0,1
EndSplineSet
Validated: 9
EndChar

StartChar: hyphen
Encoding: 45 45 16
Width: 562
GlyphClass: 1
Flags: W
LayerCount: 2
Fore
SplineSet
402 229 m 0,0,1
 402 242 402 242 401 255 c 0,2,3
 399 269 399 269 399 279 c 0,4,5
 399 301 399 301 399 347 c 0,6,7
 399 356 399 356 401 370 c 0,8,9
 402 384 402 384 402 396 c 0,10,11
 402 399 402 399 402 406 c 1,12,13
 398 404 398 404 384 399 c 0,14,15
 384 398 384 398 384 392 c 0,16,17
 382 371 382 371 373 362 c 0,18,19
 365 353 365 353 334 353 c 0,20,21
 298 353 298 353 227 353 c 0,22,23
 197 353 197 353 189 362 c 0,24,25
 180 371 180 371 178 392 c 0,26,27
 178 395 178 395 178 399 c 0,28,29
 174 401 174 401 160 406 c 1,30,31
 160 403 160 403 160 396 c 0,32,33
 160 384 160 384 161 370 c 256,34,35
 162 356 162 356 162 347 c 0,36,37
 162 324 162 324 162 279 c 0,38,39
 162 269 162 269 161 255 c 0,40,41
 160 242 160 242 160 229 c 0,42,43
 160 226 160 226 160 220 c 1,44,45
 164 222 164 222 178 226 c 0,46,47
 178 228 178 228 178 233 c 0,48,49
 180 255 180 255 189 263 c 0,50,51
 197 271 197 271 227 271 c 0,52,53
 263 271 263 271 334 271 c 0,54,55
 365 271 365 271 373 263 c 0,56,57
 382 255 382 255 384 233 c 0,58,59
 384 231 384 231 384 226 c 1,60,61
 389 225 389 225 402 220 c 1,62,63
 402 222 402 222 402 229 c 0,0,1
EndSplineSet
Validated: 9
EndChar

StartChar: period
Encoding: 46 46 17
Width: 328
GlyphClass: 1
Flags: W
LayerCount: 2
Fore
SplineSet
164 138 m 1,0,1
 143 118 143 118 81 55 c 1,2,3
 102 35 102 35 164 -28 c 1,4,5
 185 -7 185 -7 247 55 c 1,6,7
 226 76 226 76 164 138 c 1,0,1
EndSplineSet
Validated: 9
EndChar

StartChar: slash
Encoding: 47 47 18
Width: 413
GlyphClass: 1
Flags: W
LayerCount: 2
Fore
SplineSet
415 676 m 1,0,1
 402 671 402 671 365 658 c 1,2,3
 270 461 270 461 -14 -131 c 1,4,5
 -10 -143 -10 -143 4 -180 c 1,6,7
 17 -176 17 -176 54 -162 c 1,8,9
 149 35 149 35 433 626 c 1,10,11
 429 638 429 638 415 676 c 1,0,1
EndSplineSet
Validated: 9
EndChar

StartChar: zero
Encoding: 48 48 19
Width: 858
GlyphClass: 1
Flags: W
LayerCount: 2
Fore
SplineSet
743 299 m 256,0,1
 743 345 743 345 731 387 c 256,2,3
 719 429 719 429 696 465 c 0,4,5
 655 532 655 532 584 573 c 0,6,7
 514 613 514 613 429 613 c 0,8,9
 345 613 345 613 274 573 c 0,10,11
 204 532 204 532 162 465 c 0,12,13
 139 429 139 429 127 387 c 256,14,15
 115 345 115 345 115 299 c 0,16,17
 115 214 115 214 156 144 c 0,18,19
 197 73 197 73 264 32 c 0,20,21
 300 9 300 9 342 -3 c 256,22,23
 384 -15 384 -15 429 -15 c 0,24,25
 514 -15 514 -15 584 25 c 0,26,27
 655 66 655 66 696 133 c 0,28,29
 719 169 719 169 731 211 c 256,30,31
 743 253 743 253 743 299 c 256,0,1
246 169 m 1,32,33
 226 197 226 197 215 230 c 256,34,35
 204 263 204 263 204 299 c 0,36,37
 204 332 204 332 213 362 c 256,38,39
 222 392 222 392 238 418 c 0,40,41
 268 466 268 466 318 496 c 0,42,43
 369 525 369 525 429 525 c 0,44,45
 465 525 465 525 498 514 c 256,46,47
 531 503 531 503 559 483 c 1,48,49
 455 379 455 379 246 169 c 1,32,33
655 299 m 0,50,51
 655 239 655 239 626 188 c 0,52,53
 596 137 596 137 548 107 c 0,54,55
 522 91 522 91 492 82 c 256,56,57
 462 73 462 73 429 73 c 0,58,59
 393 73 393 73 360 84 c 256,60,61
 327 95 327 95 299 115 c 1,62,63
 404 219 404 219 613 428 c 1,64,65
 633 401 633 401 644 368 c 256,66,67
 655 335 655 335 655 299 c 0,50,51
EndSplineSet
Validated: 9
EndChar

StartChar: one
Encoding: 49 49 20
Width: 474
GlyphClass: 1
Flags: W
LayerCount: 2
Fore
SplineSet
331 15 m 0,0,1
 329 15 329 15 324 15 c 0,2,3
 302 18 302 18 293 27 c 0,4,5
 285 36 285 36 285 66 c 0,6,7
 285 221 285 221 285 532 c 0,8,9
 285 562 285 562 293 571 c 0,10,11
 302 580 302 580 324 583 c 0,12,13
 326 583 326 583 331 583 c 1,14,15
 332 587 332 587 336 600 c 1,16,17
 334 600 334 600 328 600 c 0,18,19
 315 600 315 600 302 599 c 0,20,21
 288 598 288 598 279 598 c 0,22,23
 251 598 251 598 196 598 c 0,24,25
 186 598 186 598 173 599 c 0,26,27
 159 600 159 600 146 600 c 0,28,29
 144 600 144 600 138 600 c 1,30,31
 140 596 140 596 143 583 c 0,32,33
 145 583 145 583 151 583 c 0,34,35
 172 580 172 580 181 571 c 0,36,37
 189 562 189 562 189 532 c 0,38,39
 189 377 189 377 189 66 c 0,40,41
 189 36 189 36 181 27 c 0,42,43
 172 18 172 18 151 15 c 0,44,45
 148 15 148 15 143 15 c 1,46,47
 142 11 142 11 138 -2 c 1,48,49
 140 -2 140 -2 146 -2 c 0,50,51
 159 -2 159 -2 173 -1 c 0,52,53
 186 0 186 0 196 0 c 0,54,55
 223 0 223 0 279 0 c 0,56,57
 288 0 288 0 302 -1 c 0,58,59
 315 -2 315 -2 328 -2 c 0,60,61
 330 -2 330 -2 336 -2 c 1,62,63
 335 2 335 2 331 15 c 0,0,1
EndSplineSet
Validated: 9
EndChar

StartChar: two
Encoding: 50 50 21
Width: 613
GlyphClass: 1
Flags: W
LayerCount: 2
Fore
SplineSet
422 255 m 0,0,1
 463 296 463 296 482 335 c 0,2,3
 502 374 502 374 502 418 c 0,4,5
 502 500 502 500 445 557 c 0,6,7
 388 613 388 613 306 613 c 0,8,9
 221 613 221 613 167 554 c 0,10,11
 113 494 113 494 113 418 c 0,12,13
 113 410 113 410 114 393 c 0,14,15
 115 377 115 377 115 377 c 1,16,17
 126 377 126 377 147 377 c 0,18,19
 168 376 168 376 231 375 c 0,20,21
 236 375 236 375 248 375 c 1,22,23
 246 379 246 379 242 392 c 0,24,25
 240 392 240 392 234 392 c 0,26,27
 221 394 221 394 212 403 c 0,28,29
 204 413 204 413 204 429 c 0,30,31
 204 470 204 470 229 499 c 0,32,33
 253 527 253 527 301 527 c 0,34,35
 346 527 346 527 378 495 c 0,36,37
 411 463 411 463 411 419 c 0,38,39
 411 393 411 393 401 371 c 0,40,41
 390 348 390 348 357 312 c 0,42,43
 269 221 269 221 93 37 c 1,44,45
 93 28 93 28 93 0 c 1,46,47
 179 0 179 0 438 0 c 0,48,49
 456 0 456 0 476 -1 c 0,50,51
 497 -1 497 -1 504 -1 c 1,52,53
 504 37 504 37 505 114 c 0,54,55
 505 117 505 117 506 122 c 0,56,57
 507 126 507 126 507 131 c 0,58,59
 507 134 507 134 507 140 c 1,60,61
 502 139 502 139 497 137 c 0,62,63
 493 136 493 136 488 134 c 0,64,65
 488 132 488 132 488 127 c 0,66,67
 485 105 485 105 477 98 c 0,68,69
 468 90 468 90 438 90 c 0,70,71
 379 90 379 90 260 90 c 1,72,73
 301 131 301 131 422 255 c 0,0,1
EndSplineSet
Validated: 9
EndChar

StartChar: three
Encoding: 51 51 22
Width: 609
GlyphClass: 1
Flags: W
LayerCount: 2
Fore
SplineSet
414 180 m 0,0,1
 414 135 414 135 382 103 c 0,2,3
 349 71 349 71 304 71 c 0,4,5
 262 71 262 71 239 89 c 0,6,7
 217 108 217 108 217 130 c 0,8,9
 217 145 217 145 224 154 c 256,10,11
 231 163 231 163 240 166 c 1,12,13
 238 171 238 171 233 181 c 1,14,15
 204 168 204 168 115 130 c 1,16,17
 116 121 116 121 122 107 c 0,18,19
 128 92 128 92 139 75 c 0,20,21
 159 43 159 43 200 14 c 0,22,23
 240 -15 240 -15 306 -15 c 0,24,25
 390 -15 390 -15 447 41 c 0,26,27
 505 98 505 98 505 179 c 0,28,29
 505 248 505 248 464 298 c 0,30,31
 423 349 423 349 367 366 c 1,32,33
 411 430 411 430 500 559 c 1,34,35
 499 569 499 569 499 598 c 1,36,37
 425 598 425 598 205 598 c 0,38,39
 189 599 189 599 140 601 c 1,40,41
 140 575 140 575 139 498 c 0,42,43
 139 488 139 488 139 481 c 0,44,45
 138 475 138 475 138 470 c 0,46,47
 138 467 138 467 138 461 c 1,48,49
 143 462 143 462 156 467 c 0,50,51
 156 469 156 469 156 474 c 0,52,53
 159 496 159 496 167 502 c 0,54,55
 176 508 176 508 206 508 c 0,56,57
 261 508 261 508 371 508 c 1,58,59
 333 452 333 452 219 283 c 1,60,61
 233 286 233 286 253 289 c 0,62,63
 274 292 274 292 293 292 c 0,64,65
 355 292 355 292 384 257 c 0,66,67
 414 222 414 222 414 180 c 0,0,1
EndSplineSet
Validated: 9
EndChar

StartChar: four
Encoding: 52 52 23
Width: 620
GlyphClass: 1
Flags: W
LayerCount: 2
Fore
SplineSet
517 208 m 0,0,1
 517 217 517 217 518 229 c 256,2,3
 519 241 519 241 519 253 c 0,4,5
 520 257 520 257 520 264 c 1,6,7
 516 263 516 263 502 259 c 0,8,9
 502 257 502 257 502 252 c 0,10,11
 500 231 500 231 491 223 c 0,12,13
 482 214 482 214 452 214 c 0,14,15
 439 214 439 214 413 214 c 1,16,17
 413 318 413 318 413 631 c 1,18,19
 320 506 320 506 41 130 c 1,20,21
 111 130 111 130 323 130 c 1,22,23
 323 114 323 114 323 66 c 0,24,25
 323 36 323 36 314 27 c 256,26,27
 305 18 305 18 284 15 c 0,28,29
 281 15 281 15 276 15 c 1,30,31
 275 11 275 11 271 -2 c 1,32,33
 273 -2 273 -2 280 -2 c 0,34,35
 292 -2 292 -2 306 -1 c 0,36,37
 319 0 319 0 329 0 c 0,38,39
 355 0 355 0 407 0 c 0,40,41
 416 0 416 0 430 -1 c 0,42,43
 443 -2 443 -2 456 -2 c 0,44,45
 458 -2 458 -2 464 -2 c 1,46,47
 463 2 463 2 459 15 c 0,48,49
 457 15 457 15 452 15 c 0,50,51
 430 18 430 18 421 27 c 0,52,53
 413 36 413 36 413 66 c 0,54,55
 413 87 413 87 413 130 c 1,56,57
 422 130 422 130 452 130 c 256,58,59
 482 130 482 130 491 121 c 0,60,61
 500 113 500 113 502 92 c 0,62,63
 502 90 502 90 502 85 c 1,64,65
 506 84 506 84 520 80 c 1,66,67
 520 83 520 83 519 91 c 0,68,69
 519 103 519 103 518 115 c 0,70,71
 517 126 517 126 517 136 c 0,72,73
 517 160 517 160 517 208 c 0,0,1
200 214 m 1,74,75
 230 257 230 257 323 385 c 1,76,77
 323 342 323 342 323 214 c 1,78,79
 292 214 292 214 200 214 c 1,74,75
EndSplineSet
Validated: 9
EndChar

StartChar: five
Encoding: 53 53 24
Width: 609
GlyphClass: 1
Flags: W
LayerCount: 2
Fore
SplineSet
115 130 m 1,0,1
 116 121 116 121 122 107 c 0,2,3
 128 92 128 92 139 75 c 0,4,5
 159 43 159 43 198 14 c 0,6,7
 238 -15 238 -15 302 -15 c 0,8,9
 383 -15 383 -15 440 41 c 0,10,11
 497 98 497 98 497 179 c 0,12,13
 497 259 497 259 440 316 c 256,14,15
 383 373 383 373 302 373 c 0,16,17
 281 373 281 373 263 369 c 0,18,19
 246 366 246 366 239 362 c 1,20,21
 245 411 245 411 259 508 c 1,22,23
 293 508 293 508 393 508 c 0,24,25
 423 508 423 508 432 502 c 0,26,27
 440 496 440 496 443 474 c 0,28,29
 443 472 443 472 443 467 c 1,30,31
 448 465 448 465 461 461 c 1,32,33
 461 463 461 463 461 470 c 0,34,35
 461 475 461 475 460 481 c 0,36,37
 460 488 460 488 460 498 c 0,38,39
 459 532 459 532 459 601 c 1,40,41
 443 600 443 600 394 598 c 0,42,43
 343 598 343 598 190 598 c 1,44,45
 180 522 180 522 147 295 c 1,46,47
 167 291 167 291 225 278 c 1,48,49
 232 281 232 281 249 286 c 0,50,51
 265 291 265 291 295 291 c 0,52,53
 341 291 341 291 373 259 c 0,54,55
 406 228 406 228 406 180 c 0,56,57
 406 135 406 135 373 103 c 0,58,59
 341 71 341 71 296 71 c 0,60,61
 257 71 257 71 235 89 c 0,62,63
 213 108 213 108 213 130 c 0,64,65
 213 142 213 142 220 153 c 0,66,67
 226 163 226 163 236 166 c 1,68,69
 233 171 233 171 229 181 c 1,70,71
 201 168 201 168 115 130 c 1,0,1
EndSplineSet
Validated: 9
EndChar

StartChar: six
Encoding: 54 54 25
Width: 616
GlyphClass: 1
Flags: W
LayerCount: 2
Fore
SplineSet
453 586 m 0,0,1
 455 586 455 586 463 586 c 1,2,3
 464 590 464 590 465 595 c 0,4,5
 466 599 466 599 468 603 c 1,6,7
 465 603 465 603 459 603 c 0,8,9
 449 603 449 603 433 602 c 0,10,11
 416 601 416 601 399 600 c 0,12,13
 372 600 372 600 318 600 c 1,14,15
 281 532 281 532 167 327 c 0,16,17
 148 293 148 293 131 259 c 0,18,19
 115 224 115 224 115 178 c 0,20,21
 115 98 115 98 172 41 c 0,22,23
 228 -15 228 -15 308 -15 c 256,24,25
 388 -15 388 -15 445 41 c 0,26,27
 502 98 502 98 502 178 c 0,28,29
 502 265 502 265 440 316 c 0,30,31
 378 368 378 368 296 369 c 1,32,33
 327 425 327 425 389 537 c 0,34,35
 409 573 409 573 424 579 c 0,36,37
 440 586 440 586 453 586 c 0,0,1
205 178 m 256,38,39
 205 221 205 221 235 252 c 256,40,41
 265 283 265 283 308 283 c 256,42,43
 351 283 351 283 382 252 c 256,44,45
 413 221 413 221 413 178 c 256,46,47
 413 135 413 135 382 104 c 0,48,49
 351 74 351 74 308 74 c 256,50,51
 265 74 265 74 235 104 c 0,52,53
 205 135 205 135 205 178 c 256,38,39
EndSplineSet
Validated: 9
EndChar

StartChar: seven
Encoding: 55 55 26
Width: 649
GlyphClass: 1
Flags: W
LayerCount: 2
Fore
SplineSet
110 514 m 0,0,1
 110 505 110 505 109 494 c 256,2,3
 108 483 108 483 108 471 c 0,4,5
 108 468 108 468 108 463 c 1,6,7
 112 465 112 465 127 470 c 1,8,9
 127 491 127 491 136 499 c 0,10,11
 145 508 145 508 177 508 c 0,12,13
 252 508 252 508 400 508 c 1,14,15
 359 403 359 403 234 89 c 0,16,17
 216 41 216 41 192 28 c 256,18,19
 168 15 168 15 153 15 c 0,20,21
 151 15 151 15 146 15 c 1,22,23
 145 11 145 11 141 -2 c 1,24,25
 156 -2 156 -2 200 0 c 0,26,27
 224 0 224 0 298 0 c 1,28,29
 358 150 358 150 537 598 c 1,30,31
 430 598 430 598 110 598 c 1,32,33
 110 577 110 577 110 514 c 0,0,1
EndSplineSet
Validated: 9
EndChar

StartChar: eight
Encoding: 56 56 27
Width: 627
GlyphClass: 1
Flags: W
LayerCount: 2
Fore
SplineSet
313 -15 m 256,0,1
 393 -15 393 -15 450 41 c 0,2,3
 507 98 507 98 507 178 c 0,4,5
 507 230 507 230 482 273 c 0,6,7
 456 316 456 316 416 342 c 1,8,9
 440 363 440 363 455 393 c 0,10,11
 469 423 469 423 469 459 c 0,12,13
 469 522 469 522 423 568 c 0,14,15
 378 613 378 613 313 613 c 0,16,17
 249 613 249 613 203 568 c 0,18,19
 158 522 158 522 158 459 c 0,20,21
 158 423 158 423 172 393 c 256,22,23
 186 363 186 363 211 342 c 1,24,25
 170 316 170 316 145 273 c 256,26,27
 120 230 120 230 120 178 c 0,28,29
 120 98 120 98 177 41 c 0,30,31
 233 -15 233 -15 313 -15 c 256,0,1
313 531 m 0,32,33
 344 531 344 531 365 510 c 256,34,35
 386 489 386 489 386 459 c 0,36,37
 386 428 386 428 365 407 c 256,38,39
 344 386 344 386 313 386 c 0,40,41
 283 386 283 386 262 407 c 256,42,43
 241 428 241 428 241 459 c 0,44,45
 241 489 241 489 262 510 c 256,46,47
 283 531 283 531 313 531 c 0,32,33
313 74 m 256,48,49
 270 74 270 74 240 104 c 0,50,51
 209 135 209 135 209 178 c 0,52,53
 209 220 209 220 240 252 c 0,54,55
 270 283 270 283 313 283 c 256,56,57
 356 283 356 283 387 252 c 0,58,59
 418 220 418 220 418 178 c 0,60,61
 418 135 418 135 387 104 c 0,62,63
 356 74 356 74 313 74 c 256,48,49
EndSplineSet
Validated: 9
EndChar

StartChar: nine
Encoding: 57 57 28
Width: 616
GlyphClass: 1
Flags: W
LayerCount: 2
Fore
SplineSet
164 12 m 0,0,1
 161 12 161 12 154 12 c 1,2,3
 152 8 152 8 151 3 c 0,4,5
 150 -1 150 -1 148 -5 c 1,6,7
 152 -5 152 -5 158 -5 c 0,8,9
 168 -5 168 -5 184 -4 c 256,10,11
 200 -3 200 -3 217 -2 c 0,12,13
 244 -2 244 -2 298 -2 c 1,14,15
 336 66 336 66 450 271 c 0,16,17
 469 305 469 305 485 339 c 0,18,19
 502 374 502 374 502 420 c 0,20,21
 502 500 502 500 445 557 c 0,22,23
 388 613 388 613 308 613 c 256,24,25
 228 613 228 613 172 557 c 0,26,27
 115 500 115 500 115 420 c 0,28,29
 115 333 115 333 177 282 c 0,30,31
 238 230 238 230 321 229 c 1,32,33
 289 173 289 173 227 61 c 0,34,35
 207 25 207 25 192 19 c 0,36,37
 177 12 177 12 164 12 c 0,0,1
412 420 m 256,38,39
 412 377 412 377 381 346 c 0,40,41
 351 315 351 315 308 315 c 256,42,43
 265 315 265 315 234 346 c 0,44,45
 204 377 204 377 204 420 c 256,46,47
 204 463 204 463 234 494 c 0,48,49
 265 524 265 524 308 524 c 256,50,51
 351 524 351 524 381 494 c 0,52,53
 412 463 412 463 412 420 c 256,38,39
EndSplineSet
Validated: 9
EndChar

StartChar: colon
Encoding: 58 58 29
Width: 328
GlyphClass: 1
Flags: W
LayerCount: 2
Fore
SplineSet
164 437 m 1,0,1
 143 417 143 417 81 354 c 1,2,3
 102 334 102 334 164 271 c 1,4,5
 185 292 185 292 247 354 c 1,6,7
 226 375 226 375 164 437 c 1,0,1
164 138 m 1,8,9
 143 118 143 118 81 55 c 1,10,11
 102 35 102 35 164 -28 c 1,12,13
 185 -7 185 -7 247 55 c 1,14,15
 226 76 226 76 164 138 c 1,8,9
EndSplineSet
Validated: 9
EndChar

StartChar: semicolon
Encoding: 59 59 30
Width: 328
GlyphClass: 1
Flags: W
LayerCount: 2
Fore
SplineSet
164 437 m 1,0,1
 143 417 143 417 81 354 c 1,2,3
 102 334 102 334 164 271 c 1,4,5
 185 292 185 292 247 354 c 1,6,7
 226 375 226 375 164 437 c 1,0,1
164 138 m 1,8,9
 143 118 143 118 81 55 c 1,10,11
 94 42 94 42 135 1 c 1,12,13
 121 -14 121 -14 77 -57 c 1,14,15
 84 -65 84 -65 105 -86 c 1,16,17
 141 -51 141 -51 247 55 c 1,18,19
 226 76 226 76 164 138 c 1,8,9
EndSplineSet
Validated: 9
EndChar

StartChar: less
Encoding: 60 60 31
Width: 451
GlyphClass: 1
Flags: W
LayerCount: 2
Fore
SplineSet
303 161 m 0,0,1
 325 139 325 139 337 139 c 0,2,3
 349 140 349 140 366 153 c 0,4,5
 367 155 367 155 369 157 c 256,6,7
 371 159 371 159 371 159 c 1,8,9
 376 156 376 156 386 150 c 1,10,11
 384 148 384 148 379 144 c 0,12,13
 370 136 370 136 360 127 c 256,14,15
 350 118 350 118 343 111 c 0,16,17
 331 99 331 99 308 77 c 0,18,19
 302 70 302 70 293 59 c 256,20,21
 284 48 284 48 275 40 c 0,22,23
 273 38 273 38 269 34 c 1,24,25
 267 37 267 37 261 48 c 0,26,27
 262 50 262 50 266 54 c 0,28,29
 280 71 280 71 280 83 c 256,30,31
 280 95 280 95 258 117 c 0,32,33
 197 177 197 177 76 299 c 1,34,35
 121 345 121 345 258 481 c 0,36,37
 280 503 280 503 280 515 c 256,38,39
 280 527 280 527 266 544 c 0,40,41
 265 546 265 546 261 550 c 0,42,43
 263 553 263 553 269 564 c 0,44,45
 271 563 271 563 275 558 c 0,46,47
 284 550 284 550 293 539 c 256,48,49
 302 528 302 528 308 521 c 0,50,51
 320 510 320 510 343 487 c 0,52,53
 350 481 350 481 360 471 c 0,54,55
 370 462 370 462 379 454 c 0,56,57
 381 452 381 452 386 449 c 1,58,59
 382 446 382 446 371 439 c 1,60,61
 371 439 371 439 369 441 c 256,62,63
 367 443 367 443 366 445 c 0,64,65
 349 458 349 458 337 459 c 0,66,67
 325 459 325 459 303 437 c 0,68,69
 257 391 257 391 165 299 c 1,70,71
 199 264 199 264 303 161 c 0,0,1
EndSplineSet
Validated: 1
EndChar

StartChar: equal
Encoding: 61 61 32
Width: 562
GlyphClass: 1
Flags: W
LayerCount: 2
Fore
SplineSet
426 466 m 1,0,1
 422 465 422 465 412 461 c 0,2,3
 412 459 412 459 412 453 c 0,4,5
 409 431 409 431 401 423 c 0,6,7
 392 415 392 415 361 415 c 0,8,9
 308 415 308 415 200 415 c 0,10,11
 170 415 170 415 161 423 c 0,12,13
 153 431 153 431 151 453 c 0,14,15
 151 455 151 455 151 461 c 1,16,17
 147 462 147 462 136 466 c 1,18,19
 136 464 136 464 136 457 c 0,20,21
 136 444 136 444 137 431 c 0,22,23
 138 417 138 417 138 408 c 0,24,25
 138 387 138 387 138 345 c 1,26,27
 209 345 209 345 423 345 c 1,28,29
 423 361 423 361 423 408 c 0,30,31
 423 417 423 417 424 431 c 0,32,33
 426 444 426 444 426 457 c 0,34,35
 426 460 426 460 426 466 c 1,0,1
426 169 m 0,36,37
 426 181 426 181 424 195 c 0,38,39
 423 209 423 209 423 218 c 0,40,41
 423 239 423 239 423 281 c 1,42,43
 352 281 352 281 138 281 c 1,44,45
 138 265 138 265 138 218 c 0,46,47
 138 209 138 209 137 195 c 256,48,49
 136 181 136 181 136 169 c 0,50,51
 136 166 136 166 136 160 c 1,52,53
 140 161 140 161 151 166 c 0,54,55
 151 168 151 168 151 173 c 0,56,57
 153 195 153 195 161 203 c 0,58,59
 170 211 170 211 200 211 c 0,60,61
 254 211 254 211 361 211 c 0,62,63
 392 211 392 211 401 203 c 0,64,65
 409 195 409 195 412 173 c 0,66,67
 412 171 412 171 412 166 c 0,68,69
 415 164 415 164 426 160 c 1,70,71
 426 162 426 162 426 169 c 0,36,37
EndSplineSet
Validated: 9
EndChar

StartChar: greater
Encoding: 62 62 33
Width: 450
GlyphClass: 1
Flags: W
LayerCount: 2
Fore
SplineSet
150 161 m 0,0,1
 128 139 128 139 116 139 c 0,2,3
 104 140 104 140 87 153 c 0,4,5
 86 155 86 155 84 157 c 256,6,7
 82 159 82 159 82 159 c 1,8,9
 77 156 77 156 67 150 c 0,10,11
 68 148 68 148 74 144 c 0,12,13
 82 136 82 136 92 127 c 0,14,15
 103 118 103 118 110 111 c 0,16,17
 121 99 121 99 144 77 c 0,18,19
 151 70 151 70 160 59 c 256,20,21
 169 48 169 48 177 40 c 0,22,23
 179 38 179 38 183 34 c 1,24,25
 185 37 185 37 191 48 c 0,26,27
 190 50 190 50 186 54 c 0,28,29
 173 71 173 71 173 83 c 256,30,31
 173 95 173 95 195 117 c 0,32,33
 255 177 255 177 377 299 c 1,34,35
 331 345 331 345 195 481 c 0,36,37
 173 503 173 503 173 515 c 256,38,39
 173 527 173 527 186 544 c 0,40,41
 188 546 188 546 191 550 c 0,42,43
 189 553 189 553 183 564 c 1,44,45
 182 563 182 563 177 558 c 0,46,47
 169 550 169 550 160 539 c 256,48,49
 151 528 151 528 144 521 c 0,50,51
 133 510 133 510 110 487 c 0,52,53
 103 481 103 481 92 471 c 0,54,55
 82 462 82 462 74 454 c 0,56,57
 71 452 71 452 67 449 c 1,58,59
 70 446 70 446 82 439 c 1,60,61
 82 439 82 439 84 441 c 256,62,63
 86 443 86 443 87 445 c 0,64,65
 104 458 104 458 116 459 c 0,66,67
 128 459 128 459 150 437 c 0,68,69
 196 391 196 391 288 299 c 1,70,71
 253 264 253 264 150 161 c 0,0,1
EndSplineSet
Validated: 9
EndChar

StartChar: question
Encoding: 63 63 34
Width: 592
GlyphClass: 1
Flags: W
LayerCount: 2
Fore
SplineSet
119 450 m 1,0,1
 125 474 125 474 154 500 c 0,2,3
 184 526 184 526 231 526 c 0,4,5
 283 526 283 526 312 495 c 0,6,7
 342 463 342 463 342 422 c 0,8,9
 342 374 342 374 300 332 c 0,10,11
 259 291 259 291 200 231 c 1,12,13
 200 211 200 211 201 169 c 1,14,15
 210 160 210 160 240 133 c 1,16,17
 249 142 249 142 276 169 c 1,18,19
 276 178 276 178 276 205 c 1,20,21
 292 218 292 218 340 259 c 0,22,23
 385 297 385 297 412 336 c 256,24,25
 439 375 439 375 439 436 c 0,26,27
 435 517 435 517 382 564 c 0,28,29
 328 611 328 611 245 611 c 0,30,31
 191 611 191 611 155 595 c 0,32,33
 119 578 119 578 102 561 c 1,34,35
 102 524 102 524 102 450 c 1,36,37
 106 450 106 450 119 450 c 1,0,1
239 108 m 1,38,39
 222 91 222 91 171 40 c 1,40,41
 188 23 188 23 239 -28 c 1,42,43
 255 -11 255 -11 306 40 c 1,44,45
 289 57 289 57 239 108 c 1,38,39
EndSplineSet
Validated: 9
EndChar

StartChar: at
Encoding: 64 64 35
Width: 819
GlyphClass: 1
Flags: W
LayerCount: 2
Fore
SplineSet
610 113 m 1,0,1
 575 82 575 82 526 63 c 0,2,3
 477 45 477 45 428 45 c 0,4,5
 360 45 360 45 303 79 c 0,6,7
 246 112 246 112 212 166 c 0,8,9
 194 196 194 196 184 230 c 0,10,11
 174 263 174 263 174 300 c 256,12,13
 174 337 174 337 184 371 c 256,14,15
 194 405 194 405 212 433 c 0,16,17
 246 488 246 488 303 521 c 256,18,19
 360 554 360 554 428 554 c 0,20,21
 524 556 524 556 593 497 c 0,22,23
 663 438 663 438 663 340 c 0,24,25
 663 280 663 280 632 235 c 0,26,27
 601 191 601 191 556 185 c 1,28,29
 556 284 556 284 556 482 c 1,30,31
 543 477 543 477 503 461 c 1,32,33
 486 468 486 468 467 472 c 256,34,35
 448 476 448 476 428 476 c 0,36,37
 354 476 354 476 303 425 c 0,38,39
 251 373 251 373 251 300 c 0,40,41
 251 226 251 226 303 175 c 0,42,43
 354 123 354 123 428 123 c 0,44,45
 446 123 446 123 463 126 c 0,46,47
 481 130 481 130 497 136 c 1,48,49
 506 133 506 133 516 132 c 0,50,51
 525 130 525 130 535 130 c 0,52,53
 601 130 601 130 659 190 c 0,54,55
 716 250 716 250 716 347 c 0,56,57
 716 458 716 458 633 534 c 0,58,59
 551 610 551 610 429 613 c 0,60,61
 345 613 345 613 274 573 c 0,62,63
 204 532 204 532 162 465 c 0,64,65
 139 429 139 429 127 387 c 256,66,67
 115 345 115 345 115 299 c 0,68,69
 115 215 115 215 156 144 c 0,70,71
 197 74 197 74 264 32 c 0,72,73
 300 9 300 9 342 -3 c 256,74,75
 384 -15 384 -15 429 -15 c 0,76,77
 491 -15 491 -15 545 7 c 256,78,79
 599 29 599 29 641 67 c 0,80,81
 653 77 653 77 665 84 c 0,82,83
 677 92 677 92 698 94 c 0,84,85
 701 94 701 94 706 94 c 1,86,87
 708 100 708 100 715 116 c 1,88,89
 712 116 712 116 705 116 c 0,90,91
 695 116 695 116 679 115 c 256,92,93
 663 114 663 114 644 114 c 0,94,95
 633 113 633 113 610 113 c 1,0,1
489 214 m 1,96,97
 476 202 476 202 462 198 c 256,98,99
 448 194 448 194 429 194 c 0,100,101
 385 194 385 194 354 225 c 0,102,103
 324 256 324 256 324 299 c 0,104,105
 324 343 324 343 354 374 c 0,106,107
 385 404 385 404 429 404 c 0,108,109
 448 404 448 404 462 400 c 256,110,111
 476 396 476 396 489 384 c 1,112,113
 489 327 489 327 489 214 c 1,96,97
EndSplineSet
Validated: 41
EndChar

StartChar: A
Encoding: 65 65 36
Width: 796
GlyphClass: 1
Flags: W
LayerCount: 2
Fore
SplineSet
126 100 m 0,0,1
 114 76 114 76 103 64 c 0,2,3
 93 52 93 52 83 52 c 0,4,5
 77 52 77 52 71 54 c 0,6,7
 65 55 65 55 56 60 c 1,8,9
 52 56 52 56 43 46 c 1,10,11
 45 45 45 45 51 42 c 0,12,13
 66 36 66 36 109 16 c 0,14,15
 120 11 120 11 154 -5 c 0,16,17
 168 -14 168 -14 183 -22 c 0,18,19
 199 -31 199 -31 211 -37 c 0,20,21
 214 -38 214 -38 219 -41 c 1,22,23
 220 -36 220 -36 222 -22 c 1,24,25
 208 -15 208 -15 200 -7 c 0,26,27
 193 0 193 0 193 12 c 0,28,29
 193 22 193 22 197 34 c 256,30,31
 201 46 201 46 210 63 c 0,32,33
 223 91 223 91 250 145 c 1,34,35
 323 145 323 145 543 145 c 1,36,37
 553 125 553 125 583 63 c 0,38,39
 591 46 591 46 596 34 c 0,40,41
 600 22 600 22 600 12 c 0,42,43
 600 0 600 0 593 -7 c 0,44,45
 585 -15 585 -15 570 -22 c 1,46,47
 571 -28 571 -28 573 -41 c 1,48,49
 575 -40 575 -40 582 -37 c 0,50,51
 594 -31 594 -31 609 -22 c 0,52,53
 624 -14 624 -14 639 -5 c 0,54,55
 654 2 654 2 684 16 c 0,56,57
 698 23 698 23 741 42 c 0,58,59
 743 43 743 43 750 46 c 1,60,61
 746 50 746 50 736 60 c 1,62,63
 728 55 728 55 722 54 c 0,64,65
 716 52 716 52 710 52 c 0,66,67
 700 52 700 52 689 64 c 0,68,69
 679 76 679 76 667 100 c 0,70,71
 577 284 577 284 396 652 c 1,72,73
 329 514 329 514 126 100 c 0,0,1
506 223 m 1,74,75
 451 223 451 223 287 223 c 1,76,77
 314 283 314 283 396 464 c 1,78,79
 424 404 424 404 506 223 c 1,74,75
EndSplineSet
Validated: 9
EndChar

StartChar: B
Encoding: 66 66 37
Width: 610
GlyphClass: 1
Flags: W
LayerCount: 2
Fore
SplineSet
313 0 m 0,0,1
 406 0 406 0 460 53 c 0,2,3
 513 106 513 106 513 182 c 0,4,5
 513 236 513 236 483 279 c 0,6,7
 454 323 454 323 411 341 c 1,8,9
 431 356 431 356 453 382 c 256,10,11
 475 408 475 408 475 457 c 0,12,13
 475 520 475 520 429 560 c 0,14,15
 383 599 383 599 308 599 c 0,16,17
 262 599 262 599 170 598 c 0,18,19
 161 598 161 598 147 599 c 256,20,21
 133 600 133 600 121 600 c 0,22,23
 118 600 118 600 113 600 c 1,24,25
 114 596 114 596 118 583 c 0,26,27
 120 583 120 583 125 583 c 0,28,29
 146 580 146 580 155 571 c 256,30,31
 164 562 164 562 164 532 c 0,32,33
 164 377 164 377 164 66 c 0,34,35
 164 36 164 36 155 27 c 256,36,37
 146 18 146 18 125 15 c 0,38,39
 123 15 123 15 118 15 c 1,40,41
 116 11 116 11 113 -2 c 1,42,43
 115 -2 115 -2 121 -2 c 0,44,45
 133 -2 133 -2 147 -1 c 256,46,47
 161 0 161 0 170 0 c 0,48,49
 218 0 218 0 313 0 c 0,0,1
391 449 m 0,50,51
 391 415 391 415 369 392 c 256,52,53
 347 369 347 369 314 369 c 0,54,55
 295 369 295 369 256 369 c 1,56,57
 256 408 256 408 256 527 c 1,58,59
 271 527 271 527 314 527 c 0,60,61
 347 527 347 527 369 504 c 0,62,63
 391 482 391 482 391 449 c 0,50,51
419 183 m 256,64,65
 419 140 419 140 388 109 c 0,66,67
 358 79 358 79 313 79 c 0,68,69
 294 79 294 79 256 79 c 1,70,71
 256 131 256 131 256 288 c 1,72,73
 270 288 270 288 313 288 c 0,74,75
 358 288 358 288 388 257 c 0,76,77
 419 226 419 226 419 183 c 256,64,65
EndSplineSet
Validated: 9
EndChar

StartChar: C
Encoding: 67 67 38
Width: 716
GlyphClass: 1
Flags: W
LayerCount: 2
Fore
SplineSet
115 299 m 0,0,1
 115 214 115 214 156 144 c 0,2,3
 197 73 197 73 264 32 c 0,4,5
 300 9 300 9 342 -3 c 256,6,7
 384 -15 384 -15 429 -15 c 0,8,9
 479 -15 479 -15 526 0 c 256,10,11
 573 15 573 15 610 42 c 1,12,13
 610 63 610 63 610 106 c 0,14,15
 610 118 610 118 611 132 c 0,16,17
 613 146 613 146 613 167 c 0,18,19
 613 170 613 170 613 175 c 1,20,21
 609 175 609 175 594 175 c 1,22,23
 585 127 585 127 533 101 c 256,24,25
 481 75 481 75 429 75 c 0,26,27
 396 75 396 75 366 84 c 256,28,29
 336 93 336 93 311 109 c 0,30,31
 262 139 262 139 233 189 c 256,32,33
 204 239 204 239 204 299 c 256,34,35
 204 359 204 359 233 409 c 256,36,37
 262 459 262 459 311 489 c 0,38,39
 336 505 336 505 366 514 c 256,40,41
 396 523 396 523 429 523 c 0,42,43
 481 523 481 523 533 497 c 256,44,45
 585 471 585 471 594 423 c 1,46,47
 600 423 600 423 613 423 c 1,48,49
 613 425 613 425 613 431 c 0,50,51
 613 452 613 452 611 466 c 0,52,53
 610 480 610 480 610 492 c 0,54,55
 610 513 610 513 610 556 c 1,56,57
 573 583 573 583 526 598 c 256,58,59
 479 613 479 613 429 613 c 0,60,61
 345 613 345 613 274 573 c 0,62,63
 204 532 204 532 162 465 c 0,64,65
 139 429 139 429 127 387 c 256,66,67
 115 345 115 345 115 299 c 0,0,1
EndSplineSet
Validated: 9
EndChar

StartChar: D
Encoding: 68 68 39
Width: 767
GlyphClass: 1
Flags: W
LayerCount: 2
Fore
SplineSet
170 598 m 0,0,1
 161 598 161 598 147 599 c 256,2,3
 133 600 133 600 121 600 c 0,4,5
 118 600 118 600 113 600 c 1,6,7
 114 596 114 596 118 583 c 0,8,9
 120 583 120 583 125 583 c 0,10,11
 146 580 146 580 155 571 c 256,12,13
 164 562 164 562 164 532 c 0,14,15
 164 377 164 377 164 66 c 0,16,17
 164 36 164 36 155 27 c 256,18,19
 146 18 146 18 125 15 c 0,20,21
 123 15 123 15 118 15 c 1,22,23
 116 11 116 11 113 -2 c 1,24,25
 115 -2 115 -2 121 -2 c 0,26,27
 133 -2 133 -2 147 -1 c 256,28,29
 161 0 161 0 170 0 c 0,30,31
 196 0 196 0 248 0 c 0,32,33
 253 0 253 0 284 -1 c 256,34,35
 315 -2 315 -2 346 -2 c 0,36,37
 429 -2 429 -2 498 37 c 0,38,39
 566 76 566 76 607 140 c 0,40,41
 628 175 628 175 640 215 c 0,42,43
 652 256 652 256 652 300 c 256,44,45
 652 344 652 344 640 385 c 0,46,47
 628 425 628 425 606 460 c 0,48,49
 565 524 565 524 497 563 c 0,50,51
 428 601 428 601 346 601 c 0,52,53
 312 601 312 601 280 600 c 0,54,55
 248 598 248 598 234 598 c 0,56,57
 213 598 213 598 170 598 c 0,0,1
561 298 m 256,58,59
 561 207 561 207 498 144 c 0,60,61
 434 80 434 80 344 80 c 0,62,63
 315 80 315 80 258 80 c 1,64,65
 258 189 258 189 258 518 c 1,66,67
 280 518 280 518 344 518 c 0,68,69
 434 518 434 518 498 454 c 0,70,71
 561 389 561 389 561 298 c 256,58,59
EndSplineSet
Validated: 9
EndChar

StartChar: E
Encoding: 69 69 40
Width: 685
GlyphClass: 1
Flags: W
LayerCount: 2
Fore
SplineSet
466 267 m 0,0,1
 498 267 498 267 506 258 c 0,2,3
 515 250 515 250 516 224 c 1,4,5
 522 223 522 223 534 219 c 1,6,7
 534 221 534 221 534 227 c 0,8,9
 534 240 534 240 532 252 c 0,10,11
 531 264 531 264 531 273 c 0,12,13
 531 298 531 298 531 348 c 0,14,15
 531 357 531 357 532 370 c 0,16,17
 534 382 534 382 534 394 c 0,18,19
 534 397 534 397 534 402 c 1,20,21
 529 401 529 401 516 397 c 1,22,23
 515 372 515 372 506 363 c 0,24,25
 498 354 498 354 466 354 c 0,26,27
 407 354 407 354 288 354 c 1,28,29
 288 393 288 393 288 510 c 1,30,31
 332 510 332 510 466 510 c 0,32,33
 498 510 498 510 507 501 c 0,34,35
 516 493 516 493 516 472 c 1,36,37
 523 470 523 470 536 465 c 1,38,39
 536 467 536 467 536 473 c 0,40,41
 536 485 536 485 535 496 c 256,42,43
 534 507 534 507 534 516 c 0,44,45
 534 541 534 541 534 592 c 0,46,47
 534 601 534 601 535 615 c 256,48,49
 536 629 536 629 536 641 c 0,50,51
 536 644 536 644 536 649 c 1,52,53
 531 648 531 648 518 644 c 1,54,55
 517 619 517 619 508 608 c 0,56,57
 500 598 500 598 468 598 c 0,58,59
 377 598 377 598 195 598 c 1,60,61
 195 537 195 537 195 354 c 1,62,63
 168 355 168 355 161 364 c 0,64,65
 154 374 154 374 153 397 c 1,66,67
 147 399 147 399 135 402 c 1,68,69
 135 400 135 400 135 394 c 0,70,71
 135 382 135 382 136 370 c 0,72,73
 137 357 137 357 137 348 c 0,74,75
 137 323 137 323 137 273 c 0,76,77
 137 264 137 264 136 252 c 256,78,79
 135 240 135 240 135 227 c 0,80,81
 135 225 135 225 135 219 c 1,82,83
 140 220 140 220 153 224 c 1,84,85
 154 248 154 248 161 257 c 256,86,87
 168 266 168 266 195 267 c 1,88,89
 195 153 195 153 195 -75 c 1,90,91
 214 -56 214 -56 273 0 c 1,92,93
 322 0 322 0 468 0 c 0,94,95
 500 0 500 0 508 -10 c 0,96,97
 517 -21 517 -21 518 -46 c 1,98,99
 524 -48 524 -48 536 -51 c 1,100,101
 536 -49 536 -49 536 -43 c 0,102,103
 536 -31 536 -31 535 -17 c 256,104,105
 534 -3 534 -3 534 6 c 0,106,107
 534 29 534 29 534 76 c 0,108,109
 534 85 534 85 535 99 c 256,110,111
 536 113 536 113 536 125 c 0,112,113
 536 128 536 128 536 133 c 1,114,115
 531 131 531 131 516 126 c 1,116,117
 516 106 516 106 507 97 c 256,118,119
 498 88 498 88 466 88 c 0,120,121
 407 88 407 88 288 88 c 1,122,123
 288 133 288 133 288 267 c 1,124,125
 332 267 332 267 466 267 c 0,0,1
EndSplineSet
Validated: 9
EndChar

StartChar: F
Encoding: 70 70 41
Width: 629
GlyphClass: 1
Flags: W
LayerCount: 2
Fore
SplineSet
195 354 m 1,0,1
 170 355 170 355 163 364 c 0,2,3
 156 372 156 372 153 392 c 0,4,5
 153 395 153 395 153 399 c 0,6,7
 148 401 148 401 135 406 c 1,8,9
 135 403 135 403 135 396 c 0,10,11
 135 388 135 388 136 378 c 0,12,13
 136 368 136 368 137 360 c 0,14,15
 137 327 137 327 137 259 c 0,16,17
 136 251 136 251 136 242 c 0,18,19
 135 233 135 233 135 225 c 0,20,21
 135 222 135 222 135 216 c 1,22,23
 140 218 140 218 144 219 c 0,24,25
 149 220 149 220 153 221 c 0,26,27
 153 224 153 224 153 229 c 0,28,29
 156 249 156 249 163 257 c 0,30,31
 170 266 170 266 195 267 c 1,32,33
 195 154 195 154 195 -74 c 1,34,35
 218 -51 218 -51 288 17 c 1,36,37
 288 80 288 80 288 267 c 1,38,39
 332 267 332 267 466 267 c 0,40,41
 498 267 498 267 506 258 c 0,42,43
 515 250 515 250 516 224 c 1,44,45
 522 223 522 223 534 219 c 1,46,47
 534 221 534 221 534 227 c 0,48,49
 534 240 534 240 532 252 c 0,50,51
 531 264 531 264 531 273 c 0,52,53
 531 298 531 298 531 348 c 0,54,55
 531 357 531 357 532 370 c 0,56,57
 534 382 534 382 534 394 c 0,58,59
 534 397 534 397 534 402 c 1,60,61
 529 401 529 401 516 397 c 1,62,63
 515 372 515 372 506 363 c 0,64,65
 498 354 498 354 466 354 c 0,66,67
 407 354 407 354 288 354 c 1,68,69
 288 393 288 393 288 510 c 1,70,71
 332 510 332 510 466 510 c 0,72,73
 498 510 498 510 507 501 c 0,74,75
 516 493 516 493 516 472 c 1,76,77
 523 470 523 470 536 465 c 1,78,79
 536 467 536 467 536 473 c 0,80,81
 536 485 536 485 535 496 c 256,82,83
 534 507 534 507 534 516 c 0,84,85
 534 541 534 541 534 592 c 0,86,87
 534 601 534 601 535 615 c 256,88,89
 536 629 536 629 536 641 c 0,90,91
 536 644 536 644 536 649 c 1,92,93
 531 648 531 648 518 644 c 1,94,95
 517 619 517 619 508 608 c 0,96,97
 500 598 500 598 468 598 c 0,98,99
 377 598 377 598 195 598 c 1,100,101
 195 537 195 537 195 354 c 1,0,1
EndSplineSet
Validated: 9
EndChar

StartChar: G
Encoding: 71 71 42
Width: 737
GlyphClass: 1
Flags: W
LayerCount: 2
Fore
SplineSet
426 328 m 1,0,1
 426 315 426 315 428 279 c 0,2,3
 428 275 428 275 428 264 c 0,4,5
 428 254 428 254 427 238 c 0,6,7
 426 223 426 223 426 209 c 0,8,9
 426 206 426 206 426 200 c 1,10,11
 430 201 430 201 443 205 c 0,12,13
 443 207 443 207 443 212 c 0,14,15
 446 234 446 234 456 243 c 0,16,17
 465 251 465 251 495 251 c 0,18,19
 508 251 508 251 534 251 c 1,20,21
 534 214 534 214 534 101 c 1,22,23
 508 88 508 88 483 81 c 0,24,25
 457 74 457 74 429 74 c 0,26,27
 396 74 396 74 366 83 c 256,28,29
 336 92 336 92 311 108 c 0,30,31
 263 138 263 138 233 188 c 0,32,33
 204 239 204 239 204 299 c 256,34,35
 204 359 204 359 233 409 c 256,36,37
 262 459 262 459 311 489 c 0,38,39
 336 505 336 505 366 514 c 256,40,41
 396 523 396 523 429 523 c 0,42,43
 481 523 481 523 533 497 c 256,44,45
 585 471 585 471 594 423 c 1,46,47
 600 423 600 423 613 423 c 1,48,49
 613 425 613 425 613 431 c 0,50,51
 613 452 613 452 611 466 c 0,52,53
 610 480 610 480 610 492 c 0,54,55
 610 513 610 513 610 556 c 1,56,57
 573 583 573 583 526 598 c 256,58,59
 479 613 479 613 429 613 c 0,60,61
 345 613 345 613 274 573 c 0,62,63
 204 532 204 532 162 465 c 0,64,65
 139 429 139 429 127 387 c 256,66,67
 115 345 115 345 115 299 c 0,68,69
 115 214 115 214 156 144 c 0,70,71
 197 73 197 73 264 32 c 0,72,73
 300 9 300 9 342 -3 c 256,74,75
 384 -15 384 -15 429 -15 c 0,76,77
 491 -15 491 -15 538 5 c 256,78,79
 585 25 585 25 622 51 c 1,80,81
 622 143 622 143 622 328 c 1,82,83
 573 328 573 328 426 328 c 1,0,1
EndSplineSet
Validated: 9
EndChar

StartChar: H
Encoding: 72 72 43
Width: 730
GlyphClass: 1
Flags: W
LayerCount: 2
Fore
SplineSet
303 15 m 0,0,1
 301 15 301 15 296 15 c 0,2,3
 274 18 274 18 266 27 c 0,4,5
 257 36 257 36 257 66 c 0,6,7
 257 134 257 134 257 272 c 1,8,9
 311 272 311 272 473 272 c 1,10,11
 473 221 473 221 473 66 c 0,12,13
 473 36 473 36 464 27 c 0,14,15
 456 18 456 18 434 15 c 0,16,17
 432 15 432 15 427 15 c 1,18,19
 426 11 426 11 422 -2 c 1,20,21
 424 -2 424 -2 430 -2 c 0,22,23
 442 -2 442 -2 456 -1 c 256,24,25
 470 0 470 0 479 0 c 0,26,27
 506 0 506 0 560 0 c 0,28,29
 569 0 569 0 583 -1 c 256,30,31
 597 -2 597 -2 609 -2 c 0,32,33
 612 -2 612 -2 617 -2 c 1,34,35
 616 2 616 2 612 15 c 0,36,37
 611 15 611 15 605 15 c 0,38,39
 584 18 584 18 575 27 c 256,40,41
 566 36 566 36 566 66 c 0,42,43
 566 221 566 221 566 532 c 0,44,45
 566 562 566 562 575 571 c 256,46,47
 584 580 584 580 605 583 c 0,48,49
 608 583 608 583 612 583 c 0,50,51
 614 587 614 587 617 600 c 1,52,53
 615 600 615 600 609 600 c 0,54,55
 597 600 597 600 583 599 c 256,56,57
 569 598 569 598 560 598 c 0,58,59
 533 598 533 598 479 598 c 0,60,61
 470 598 470 598 456 599 c 256,62,63
 442 600 442 600 430 600 c 0,64,65
 427 600 427 600 422 600 c 1,66,67
 423 596 423 596 427 583 c 0,68,69
 429 583 429 583 434 583 c 0,70,71
 456 580 456 580 464 571 c 0,72,73
 473 562 473 562 473 532 c 0,74,75
 473 471 473 471 473 348 c 1,76,77
 419 348 419 348 257 348 c 1,78,79
 257 394 257 394 257 532 c 0,80,81
 257 562 257 562 266 571 c 0,82,83
 274 580 274 580 296 583 c 0,84,85
 298 583 298 583 303 583 c 1,86,87
 304 587 304 587 308 600 c 1,88,89
 306 600 306 600 300 600 c 0,90,91
 288 600 288 600 274 599 c 256,92,93
 260 598 260 598 251 598 c 0,94,95
 224 598 224 598 170 598 c 0,96,97
 161 598 161 598 147 599 c 256,98,99
 133 600 133 600 121 600 c 0,100,101
 118 600 118 600 113 600 c 1,102,103
 114 596 114 596 118 583 c 0,104,105
 120 583 120 583 125 583 c 0,106,107
 146 580 146 580 155 571 c 256,108,109
 164 562 164 562 164 532 c 0,110,111
 164 377 164 377 164 66 c 0,112,113
 164 36 164 36 155 27 c 256,114,115
 146 18 146 18 125 15 c 0,116,117
 123 15 123 15 118 15 c 1,118,119
 116 11 116 11 113 -2 c 1,120,121
 115 -2 115 -2 121 -2 c 0,122,123
 133 -2 133 -2 147 -1 c 256,124,125
 161 0 161 0 170 0 c 0,126,127
 197 0 197 0 251 0 c 0,128,129
 260 0 260 0 274 -1 c 256,130,131
 288 -2 288 -2 300 -2 c 0,132,133
 303 -2 303 -2 308 -2 c 1,134,135
 307 2 307 2 303 15 c 0,0,1
EndSplineSet
Validated: 9
EndChar

StartChar: I
Encoding: 73 73 44
Width: 454
GlyphClass: 1
Flags: W
LayerCount: 2
Fore
SplineSet
321 15 m 0,0,1
 319 15 319 15 313 15 c 0,2,3
 292 18 292 18 283 27 c 256,4,5
 274 36 274 36 274 66 c 0,6,7
 274 221 274 221 274 532 c 0,8,9
 274 562 274 562 283 571 c 256,10,11
 292 580 292 580 313 583 c 0,12,13
 316 583 316 583 321 583 c 1,14,15
 322 587 322 587 326 600 c 1,16,17
 324 600 324 600 317 600 c 0,18,19
 305 600 305 600 291 599 c 0,20,21
 278 598 278 598 268 598 c 0,22,23
 241 598 241 598 185 598 c 0,24,25
 176 598 176 598 162 599 c 256,26,27
 148 600 148 600 136 600 c 0,28,29
 133 600 133 600 128 600 c 1,30,31
 129 596 129 596 133 583 c 0,32,33
 135 583 135 583 140 583 c 0,34,35
 162 580 162 580 170 571 c 0,36,37
 179 562 179 562 179 532 c 0,38,39
 179 377 179 377 179 66 c 0,40,41
 179 36 179 36 170 27 c 0,42,43
 162 18 162 18 140 15 c 0,44,45
 138 15 138 15 133 15 c 1,46,47
 132 11 132 11 128 -2 c 1,48,49
 130 -2 130 -2 136 -2 c 0,50,51
 148 -2 148 -2 162 -1 c 256,52,53
 176 0 176 0 185 0 c 0,54,55
 213 0 213 0 268 0 c 0,56,57
 278 0 278 0 291 -1 c 0,58,59
 305 -2 305 -2 317 -2 c 0,60,61
 320 -2 320 -2 326 -2 c 1,62,63
 324 2 324 2 321 15 c 0,0,1
EndSplineSet
Validated: 9
EndChar

StartChar: J
Encoding: 74 74 45
Width: 454
GlyphClass: 1
Flags: W
LayerCount: 2
Fore
SplineSet
273 532 m 0,0,1
 273 562 273 562 282 571 c 256,2,3
 291 580 291 580 312 583 c 0,4,5
 315 583 315 583 319 583 c 0,6,7
 321 587 321 587 325 600 c 1,8,9
 323 600 323 600 316 600 c 0,10,11
 304 600 304 600 290 599 c 256,12,13
 276 598 276 598 267 598 c 0,14,15
 240 598 240 598 186 598 c 0,16,17
 177 598 177 598 163 599 c 0,18,19
 150 600 150 600 137 600 c 0,20,21
 134 600 134 600 129 600 c 1,22,23
 130 596 130 596 134 583 c 0,24,25
 136 583 136 583 141 583 c 0,26,27
 163 580 163 580 172 571 c 0,28,29
 180 562 180 562 180 532 c 0,30,31
 180 276 180 276 180 -236 c 1,32,33
 204 -201 204 -201 273 -97 c 1,34,35
 273 60 273 60 273 532 c 0,0,1
EndSplineSet
Validated: 9
EndChar

StartChar: K
Encoding: 75 75 46
Width: 692
GlyphClass: 1
Flags: W
LayerCount: 2
Fore
SplineSet
531 536 m 0,0,1
 561 565 561 565 576 574 c 256,2,3
 591 583 591 583 606 583 c 0,4,5
 608 583 608 583 610 583 c 0,6,7
 612 587 612 587 616 600 c 1,8,9
 614 600 614 600 607 600 c 0,10,11
 597 600 597 600 585 599 c 256,12,13
 573 598 573 598 561 598 c 0,14,15
 536 598 536 598 486 599 c 1,16,17
 429 541 429 541 256 369 c 1,18,19
 256 410 256 410 256 532 c 0,20,21
 256 562 256 562 265 571 c 0,22,23
 273 580 273 580 295 583 c 0,24,25
 297 583 297 583 302 583 c 1,26,27
 303 587 303 587 307 600 c 1,28,29
 305 600 305 600 299 600 c 0,30,31
 287 600 287 600 273 599 c 256,32,33
 259 598 259 598 250 598 c 0,34,35
 223 598 223 598 170 598 c 0,36,37
 161 598 161 598 147 599 c 256,38,39
 133 600 133 600 121 600 c 0,40,41
 118 600 118 600 113 600 c 1,42,43
 114 596 114 596 118 583 c 0,44,45
 120 583 120 583 125 583 c 0,46,47
 146 580 146 580 155 571 c 256,48,49
 164 562 164 562 164 532 c 0,50,51
 164 377 164 377 164 66 c 0,52,53
 164 36 164 36 155 27 c 256,54,55
 146 18 146 18 125 15 c 0,56,57
 123 15 123 15 118 15 c 1,58,59
 116 11 116 11 113 -2 c 1,60,61
 115 -2 115 -2 121 -2 c 0,62,63
 133 -2 133 -2 147 -1 c 256,64,65
 161 0 161 0 170 0 c 0,66,67
 197 0 197 0 250 0 c 0,68,69
 259 0 259 0 273 -1 c 256,70,71
 287 -2 287 -2 299 -2 c 0,72,73
 302 -2 302 -2 307 -2 c 1,74,75
 306 2 306 2 302 15 c 0,76,77
 300 15 300 15 295 15 c 0,78,79
 273 18 273 18 265 27 c 0,80,81
 256 36 256 36 256 66 c 0,82,83
 256 127 256 127 256 251 c 1,84,85
 319 188 319 188 507 -1 c 1,86,87
 529 -1 529 -1 595 0 c 0,88,89
 610 -1 610 -1 653 -2 c 1,90,91
 652 2 652 2 651 6 c 0,92,93
 650 11 650 11 648 15 c 0,94,95
 646 15 646 15 642 15 c 0,96,97
 627 15 627 15 612 25 c 256,98,99
 597 35 597 35 567 65 c 0,100,101
 483 150 483 150 313 319 c 1,102,103
 368 374 368 374 531 536 c 0,0,1
EndSplineSet
Validated: 9
EndChar

StartChar: L
Encoding: 76 76 47
Width: 599
GlyphClass: 1
Flags: W
LayerCount: 2
Fore
SplineSet
243 0 m 1,0,1
 294 0 294 0 449 0 c 0,2,3
 481 0 481 0 489 -10 c 0,4,5
 497 -21 497 -21 499 -46 c 1,6,7
 504 -48 504 -48 516 -51 c 1,8,9
 516 -49 516 -49 516 -43 c 0,10,11
 516 -31 516 -31 515 -17 c 256,12,13
 514 -3 514 -3 514 6 c 0,14,15
 514 33 514 33 514 87 c 0,16,17
 514 96 514 96 515 110 c 256,18,19
 516 124 516 124 516 136 c 0,20,21
 516 139 516 139 516 144 c 1,22,23
 512 143 512 143 499 139 c 1,24,25
 497 114 497 114 489 104 c 0,26,27
 481 93 481 93 449 93 c 0,28,29
 385 93 385 93 257 93 c 1,30,31
 257 203 257 203 257 532 c 0,32,33
 257 565 257 565 267 573 c 0,34,35
 278 581 278 581 303 583 c 1,36,37
 305 588 305 588 308 600 c 1,38,39
 306 600 306 600 300 600 c 0,40,41
 288 600 288 600 274 599 c 256,42,43
 260 598 260 598 251 598 c 0,44,45
 224 598 224 598 170 598 c 0,46,47
 161 598 161 598 147 599 c 256,48,49
 133 600 133 600 121 600 c 0,50,51
 118 600 118 600 113 600 c 1,52,53
 114 596 114 596 118 583 c 1,54,55
 143 581 143 581 153 573 c 0,56,57
 164 565 164 565 164 532 c 0,58,59
 164 330 164 330 164 -75 c 1,60,61
 184 -56 184 -56 243 0 c 1,0,1
EndSplineSet
Validated: 9
EndChar

StartChar: M
Encoding: 77 77 48
Width: 954
GlyphClass: 1
Flags: W
LayerCount: 2
Fore
SplineSet
698 66 m 0,0,1
 698 36 698 36 690 27 c 0,2,3
 681 18 681 18 659 15 c 0,4,5
 657 15 657 15 652 15 c 1,6,7
 651 11 651 11 647 -2 c 1,8,9
 649 -2 649 -2 655 -2 c 0,10,11
 668 -2 668 -2 681 -1 c 0,12,13
 695 0 695 0 705 0 c 0,14,15
 731 0 731 0 784 0 c 0,16,17
 794 0 794 0 807 -1 c 0,18,19
 821 -2 821 -2 834 -2 c 0,20,21
 836 -2 836 -2 842 -2 c 1,22,23
 840 2 840 2 837 15 c 0,24,25
 835 15 835 15 829 15 c 0,26,27
 808 18 808 18 799 27 c 0,28,29
 791 36 791 36 791 66 c 0,30,31
 791 221 791 221 791 532 c 0,32,33
 791 562 791 562 799 571 c 0,34,35
 808 580 808 580 829 583 c 0,36,37
 832 583 832 583 837 583 c 1,38,39
 838 587 838 587 842 600 c 1,40,41
 840 600 840 600 834 600 c 0,42,43
 821 600 821 600 807 599 c 0,44,45
 794 598 794 598 784 598 c 0,46,47
 580 598 580 598 170 598 c 0,48,49
 161 598 161 598 147 599 c 256,50,51
 133 600 133 600 121 600 c 0,52,53
 118 600 118 600 113 600 c 1,54,55
 114 596 114 596 118 583 c 0,56,57
 120 583 120 583 125 583 c 0,58,59
 146 580 146 580 155 571 c 256,60,61
 164 562 164 562 164 532 c 0,62,63
 164 377 164 377 164 66 c 0,64,65
 164 36 164 36 155 27 c 256,66,67
 146 18 146 18 125 15 c 0,68,69
 123 15 123 15 118 15 c 1,70,71
 116 11 116 11 113 -2 c 1,72,73
 115 -2 115 -2 121 -2 c 0,74,75
 133 -2 133 -2 147 -1 c 256,76,77
 161 0 161 0 170 0 c 0,78,79
 197 0 197 0 250 0 c 0,80,81
 259 0 259 0 273 -1 c 256,82,83
 287 -2 287 -2 299 -2 c 0,84,85
 302 -2 302 -2 307 -2 c 1,86,87
 306 2 306 2 302 15 c 0,88,89
 300 15 300 15 295 15 c 0,90,91
 273 18 273 18 265 27 c 0,92,93
 256 36 256 36 256 66 c 0,94,95
 256 212 256 212 256 506 c 1,96,97
 300 506 300 506 431 506 c 1,98,99
 431 396 431 396 431 66 c 0,100,101
 431 36 431 36 422 27 c 0,102,103
 414 18 414 18 392 15 c 0,104,105
 390 15 390 15 385 15 c 1,106,107
 384 11 384 11 380 -2 c 1,108,109
 382 -2 382 -2 388 -2 c 0,110,111
 400 -2 400 -2 414 -1 c 256,112,113
 428 0 428 0 437 0 c 0,114,115
 464 0 464 0 517 0 c 0,116,117
 526 0 526 0 540 -1 c 256,118,119
 554 -2 554 -2 566 -2 c 0,120,121
 569 -2 569 -2 574 -2 c 1,122,123
 573 2 573 2 569 15 c 0,124,125
 568 15 568 15 562 15 c 0,126,127
 541 18 541 18 532 27 c 256,128,129
 523 36 523 36 523 66 c 0,130,131
 523 212 523 212 523 506 c 1,132,133
 567 506 567 506 698 506 c 1,134,135
 698 396 698 396 698 66 c 0,0,1
EndSplineSet
Validated: 9
EndChar

StartChar: N
Encoding: 78 78 49
Width: 802
GlyphClass: 1
Flags: W
LayerCount: 2
Fore
SplineSet
684 15 m 0,0,1
 682 15 682 15 677 15 c 0,2,3
 655 18 655 18 647 27 c 0,4,5
 638 36 638 36 638 66 c 0,6,7
 638 221 638 221 638 532 c 0,8,9
 638 562 638 562 647 571 c 0,10,11
 655 580 655 580 677 583 c 0,12,13
 679 583 679 583 684 583 c 1,14,15
 686 587 686 587 690 600 c 1,16,17
 688 600 688 600 681 600 c 0,18,19
 669 600 669 600 655 599 c 256,20,21
 641 598 641 598 632 598 c 0,22,23
 607 598 607 598 557 598 c 0,24,25
 548 598 548 598 534 599 c 256,26,27
 520 600 520 600 508 600 c 0,28,29
 505 600 505 600 500 600 c 1,30,31
 501 596 501 596 505 583 c 0,32,33
 507 583 507 583 512 583 c 0,34,35
 534 580 534 580 542 571 c 0,36,37
 551 562 551 562 551 532 c 0,38,39
 551 426 551 426 551 213 c 1,40,41
 476 291 476 291 251 526 c 0,42,43
 251 528 251 528 251 532 c 0,44,45
 251 562 251 562 260 571 c 0,46,47
 268 580 268 580 290 583 c 0,48,49
 292 583 292 583 297 583 c 1,50,51
 298 587 298 587 303 600 c 1,52,53
 301 600 301 600 294 600 c 0,54,55
 282 600 282 600 268 599 c 256,56,57
 254 598 254 598 245 598 c 0,58,59
 220 598 220 598 170 598 c 0,60,61
 161 598 161 598 147 599 c 256,62,63
 133 600 133 600 121 600 c 0,64,65
 118 600 118 600 113 600 c 1,66,67
 114 596 114 596 118 583 c 0,68,69
 120 583 120 583 125 583 c 0,70,71
 146 580 146 580 155 571 c 256,72,73
 164 562 164 562 164 532 c 0,74,75
 164 377 164 377 164 66 c 0,76,77
 164 36 164 36 155 27 c 256,78,79
 146 18 146 18 125 15 c 0,80,81
 123 15 123 15 118 15 c 1,82,83
 116 11 116 11 113 -2 c 1,84,85
 115 -2 115 -2 121 -2 c 0,86,87
 133 -2 133 -2 147 -1 c 256,88,89
 161 0 161 0 170 0 c 0,90,91
 195 0 195 0 245 0 c 0,92,93
 254 0 254 0 268 -1 c 256,94,95
 282 -2 282 -2 294 -2 c 0,96,97
 297 -2 297 -2 303 -2 c 1,98,99
 302 2 302 2 297 15 c 0,100,101
 295 15 295 15 290 15 c 0,102,103
 268 18 268 18 260 27 c 0,104,105
 251 36 251 36 251 66 c 0,106,107
 251 172 251 172 251 386 c 1,108,109
 326 307 326 307 551 71 c 0,110,111
 551 69 551 69 551 66 c 0,112,113
 551 36 551 36 542 27 c 0,114,115
 534 18 534 18 512 15 c 0,116,117
 510 15 510 15 505 15 c 1,118,119
 504 11 504 11 500 -2 c 1,120,121
 502 -2 502 -2 508 -2 c 0,122,123
 520 -2 520 -2 534 -1 c 256,124,125
 548 0 548 0 557 0 c 0,126,127
 582 0 582 0 632 0 c 0,128,129
 641 0 641 0 655 -1 c 256,130,131
 669 -2 669 -2 681 -2 c 0,132,133
 684 -2 684 -2 690 -2 c 1,134,135
 689 2 689 2 684 15 c 0,0,1
EndSplineSet
Validated: 9
EndChar

StartChar: O
Encoding: 79 79 50
Width: 858
GlyphClass: 1
Flags: W
LayerCount: 2
Fore
SplineSet
743 299 m 256,0,1
 743 345 743 345 731 387 c 256,2,3
 719 429 719 429 696 465 c 0,4,5
 655 532 655 532 584 573 c 0,6,7
 514 613 514 613 429 613 c 0,8,9
 345 613 345 613 274 573 c 0,10,11
 204 532 204 532 162 465 c 0,12,13
 139 429 139 429 127 387 c 256,14,15
 115 345 115 345 115 299 c 0,16,17
 115 214 115 214 156 144 c 0,18,19
 197 73 197 73 264 32 c 0,20,21
 300 9 300 9 342 -3 c 256,22,23
 384 -15 384 -15 429 -15 c 0,24,25
 514 -15 514 -15 584 25 c 0,26,27
 655 66 655 66 696 133 c 0,28,29
 719 169 719 169 731 211 c 256,30,31
 743 253 743 253 743 299 c 256,0,1
204 334 m 1,32,33
 215 408 215 408 268 460 c 0,34,35
 321 513 321 513 394 524 c 1,36,37
 394 461 394 461 394 334 c 1,38,39
 347 334 347 334 204 334 c 1,32,33
464 334 m 1,40,41
 464 381 464 381 464 524 c 1,42,43
 538 513 538 513 590 460 c 0,44,45
 643 408 643 408 654 334 c 1,46,47
 591 334 591 334 464 334 c 1,40,41
394 74 m 1,48,49
 321 85 321 85 268 138 c 0,50,51
 215 190 215 190 204 264 c 1,52,53
 267 264 267 264 394 264 c 1,54,55
 394 217 394 217 394 74 c 1,48,49
654 264 m 1,56,57
 644 190 644 190 590 138 c 0,58,59
 537 85 537 85 464 74 c 1,60,61
 464 137 464 137 464 264 c 1,62,63
 511 264 511 264 654 264 c 1,56,57
EndSplineSet
Validated: 9
EndChar

StartChar: P
Encoding: 80 80 51
Width: 592
GlyphClass: 1
Flags: W
LayerCount: 2
Fore
SplineSet
318 236 m 0,0,1
 398 236 398 236 457 287 c 0,2,3
 515 338 515 338 515 420 c 0,4,5
 515 503 515 503 454 551 c 0,6,7
 394 599 394 599 315 599 c 0,8,9
 306 599 306 599 292 599 c 0,10,11
 278 598 278 598 263 598 c 0,12,13
 235 598 235 598 208 598 c 256,14,15
 181 598 181 598 170 598 c 0,16,17
 161 598 161 598 147 599 c 256,18,19
 133 600 133 600 121 600 c 0,20,21
 118 600 118 600 113 600 c 1,22,23
 114 596 114 596 118 583 c 0,24,25
 120 583 120 583 125 583 c 0,26,27
 146 580 146 580 155 571 c 256,28,29
 164 562 164 562 164 532 c 0,30,31
 164 377 164 377 164 66 c 0,32,33
 164 36 164 36 155 27 c 256,34,35
 146 18 146 18 125 15 c 0,36,37
 123 15 123 15 118 15 c 1,38,39
 116 11 116 11 113 -2 c 1,40,41
 115 -2 115 -2 121 -2 c 0,42,43
 133 -2 133 -2 147 -1 c 256,44,45
 161 0 161 0 170 0 c 0,46,47
 197 0 197 0 250 0 c 0,48,49
 259 0 259 0 273 -1 c 256,50,51
 287 -2 287 -2 299 -2 c 0,52,53
 302 -2 302 -2 307 -2 c 1,54,55
 306 2 306 2 302 15 c 0,56,57
 300 15 300 15 295 15 c 0,58,59
 273 18 273 18 265 27 c 0,60,61
 256 36 256 36 256 66 c 0,62,63
 256 122 256 122 256 236 c 1,64,65
 272 236 272 236 318 236 c 0,0,1
425 420 m 256,66,67
 425 375 425 375 395 342 c 0,68,69
 364 310 364 310 317 310 c 0,70,71
 297 310 297 310 256 310 c 1,72,73
 256 364 256 364 256 526 c 1,74,75
 271 526 271 526 317 526 c 0,76,77
 364 526 364 526 395 496 c 0,78,79
 425 465 425 465 425 420 c 256,66,67
EndSplineSet
Validated: 9
EndChar

StartChar: Q
Encoding: 81 81 52
Width: 858
GlyphClass: 1
Flags: W
LayerCount: 2
Fore
SplineSet
474 -11 m 1,0,1
 549 -1 549 -1 609 41 c 256,2,3
 669 83 669 83 704 146 c 0,4,5
 723 180 723 180 733 219 c 0,6,7
 743 257 743 257 743 299 c 0,8,9
 743 345 743 345 731 387 c 256,10,11
 719 429 719 429 696 465 c 0,12,13
 655 532 655 532 584 573 c 0,14,15
 514 613 514 613 429 613 c 0,16,17
 345 613 345 613 274 573 c 0,18,19
 204 532 204 532 162 465 c 0,20,21
 139 429 139 429 127 387 c 256,22,23
 115 345 115 345 115 299 c 0,24,25
 115 257 115 257 125 219 c 0,26,27
 135 180 135 180 154 146 c 0,28,29
 189 83 189 83 249 41 c 0,30,31
 310 -1 310 -1 384 -11 c 1,32,33
 384 -28 384 -28 384 -61 c 0,34,35
 384 -91 384 -91 375 -100 c 0,36,37
 367 -109 367 -109 345 -112 c 0,38,39
 343 -112 343 -112 338 -112 c 1,40,41
 337 -116 337 -116 333 -129 c 1,42,43
 335 -129 335 -129 341 -129 c 0,44,45
 353 -129 353 -129 367 -128 c 256,46,47
 381 -127 381 -127 390 -127 c 0,48,49
 416 -127 416 -127 468 -127 c 0,50,51
 477 -127 477 -127 491 -128 c 256,52,53
 505 -129 505 -129 517 -129 c 0,54,55
 520 -129 520 -129 525 -129 c 1,56,57
 524 -125 524 -125 520 -112 c 0,58,59
 518 -112 518 -112 513 -112 c 0,60,61
 492 -109 492 -109 483 -100 c 256,62,63
 474 -91 474 -91 474 -61 c 0,64,65
 474 -45 474 -45 474 -11 c 1,0,1
384 78 m 1,66,67
 306 93 306 93 255 155 c 0,68,69
 203 217 203 217 203 299 c 0,70,71
 203 392 203 392 269 458 c 256,72,73
 335 524 335 524 429 524 c 0,74,75
 462 524 462 524 492 515 c 256,76,77
 522 506 522 506 548 490 c 0,78,79
 596 460 596 460 626 410 c 0,80,81
 655 359 655 359 655 299 c 0,82,83
 655 217 655 217 603 155 c 256,84,85
 551 93 551 93 474 78 c 1,86,87
 474 116 474 116 474 194 c 0,88,89
 474 223 474 223 483 232 c 256,90,91
 492 241 492 241 513 244 c 0,92,93
 515 244 515 244 520 244 c 1,94,95
 521 248 521 248 525 261 c 1,96,97
 523 261 523 261 517 261 c 0,98,99
 505 261 505 261 491 260 c 256,100,101
 477 259 477 259 468 259 c 0,102,103
 442 259 442 259 390 259 c 0,104,105
 381 259 381 259 367 260 c 256,106,107
 353 261 353 261 341 261 c 0,108,109
 338 261 338 261 333 261 c 1,110,111
 334 257 334 257 338 244 c 0,112,113
 340 244 340 244 345 244 c 0,114,115
 367 241 367 241 375 232 c 0,116,117
 384 223 384 223 384 194 c 0,118,119
 384 155 384 155 384 78 c 1,66,67
EndSplineSet
Validated: 9
EndChar

StartChar: R
Encoding: 82 82 53
Width: 709
GlyphClass: 1
Flags: W
LayerCount: 2
Fore
SplineSet
511 429 m 0,0,1
 511 507 511 507 455 553 c 256,2,3
 399 599 399 599 321 599 c 0,4,5
 311 599 311 599 297 599 c 0,6,7
 283 598 283 598 267 598 c 0,8,9
 238 598 238 598 210 598 c 0,10,11
 181 598 181 598 170 598 c 0,12,13
 161 598 161 598 147 599 c 256,14,15
 133 600 133 600 121 600 c 0,16,17
 118 600 118 600 113 600 c 1,18,19
 114 596 114 596 118 583 c 0,20,21
 120 583 120 583 125 583 c 0,22,23
 146 580 146 580 155 571 c 256,24,25
 164 562 164 562 164 532 c 0,26,27
 164 377 164 377 164 66 c 0,28,29
 164 36 164 36 155 27 c 256,30,31
 146 18 146 18 125 15 c 0,32,33
 123 15 123 15 118 15 c 1,34,35
 116 11 116 11 113 -2 c 1,36,37
 115 -2 115 -2 121 -2 c 0,38,39
 133 -2 133 -2 147 -1 c 256,40,41
 161 0 161 0 170 0 c 0,42,43
 197 0 197 0 250 0 c 0,44,45
 259 0 259 0 273 -1 c 256,46,47
 287 -2 287 -2 299 -2 c 0,48,49
 302 -2 302 -2 307 -2 c 1,50,51
 306 2 306 2 302 15 c 0,52,53
 300 15 300 15 295 15 c 0,54,55
 273 18 273 18 265 27 c 0,56,57
 256 36 256 36 256 66 c 0,58,59
 256 130 256 130 256 259 c 1,60,61
 266 259 266 259 295 259 c 1,62,63
 359 194 359 194 550 -1 c 1,64,65
 572 -1 572 -1 640 0 c 0,66,67
 655 -1 655 -1 698 -2 c 1,68,69
 697 2 697 2 696 6 c 0,70,71
 695 11 695 11 693 15 c 0,72,73
 691 15 691 15 687 15 c 0,74,75
 672 15 672 15 657 25 c 256,76,77
 642 35 642 35 612 65 c 0,78,79
 542 134 542 134 401 274 c 1,80,81
 448 293 448 293 480 333 c 0,82,83
 511 373 511 373 511 429 c 0,0,1
421 428 m 0,84,85
 421 387 421 387 393 358 c 256,86,87
 365 329 365 329 323 329 c 0,88,89
 300 329 300 329 256 329 c 1,90,91
 256 378 256 378 256 525 c 1,92,93
 273 525 273 525 323 525 c 0,94,95
 365 525 365 525 393 497 c 0,96,97
 421 470 421 470 421 428 c 0,84,85
EndSplineSet
Validated: 9
EndChar

StartChar: S
Encoding: 83 83 54
Width: 604
GlyphClass: 1
Flags: W
LayerCount: 2
Fore
SplineSet
112 123 m 1,0,1
 116 110 116 110 124 95 c 0,2,3
 131 79 131 79 143 63 c 0,4,5
 164 34 164 34 201 10 c 0,6,7
 239 -13 239 -13 300 -13 c 0,8,9
 373 -13 373 -13 433 31 c 0,10,11
 493 76 493 76 493 156 c 0,12,13
 493 212 493 212 467 251 c 256,14,15
 441 290 441 290 373 329 c 0,16,17
 346 344 346 344 293 374 c 0,18,19
 259 390 259 390 243 409 c 0,20,21
 226 429 226 429 226 455 c 0,22,23
 226 485 226 485 248 507 c 256,24,25
 270 529 270 529 312 529 c 0,26,27
 346 529 346 529 368 513 c 0,28,29
 390 496 390 496 390 474 c 0,30,31
 390 459 390 459 382 452 c 0,32,33
 375 445 375 445 375 444 c 0,34,35
 377 440 377 440 382 432 c 1,36,37
 407 447 407 447 480 494 c 1,38,39
 461 528 461 528 425 567 c 0,40,41
 388 606 388 606 309 606 c 0,42,43
 237 606 237 606 187 563 c 0,44,45
 137 519 137 519 137 453 c 0,46,47
 137 396 137 396 163 360 c 0,48,49
 189 325 189 325 252 289 c 0,50,51
 270 278 270 278 307 257 c 0,52,53
 345 237 345 237 372 216 c 0,54,55
 398 194 398 194 398 153 c 0,56,57
 398 116 398 116 370 92 c 0,58,59
 341 68 341 68 299 68 c 0,60,61
 256 68 256 68 236 88 c 0,62,63
 215 108 215 108 215 127 c 0,64,65
 215 142 215 142 220 149 c 0,66,67
 226 156 226 156 232 162 c 1,68,69
 231 167 231 167 227 177 c 1,70,71
 198 164 198 164 112 123 c 1,0,1
EndSplineSet
Validated: 9
EndChar

StartChar: T
Encoding: 84 84 55
Width: 757
GlyphClass: 1
Flags: W
LayerCount: 2
Fore
SplineSet
145 598 m 0,0,1
 115 598 115 598 106 607 c 0,2,3
 98 615 98 615 95 637 c 0,4,5
 95 639 95 639 95 644 c 1,6,7
 91 645 91 645 78 649 c 1,8,9
 78 647 78 647 78 641 c 0,10,11
 78 629 78 629 79 615 c 256,12,13
 80 601 80 601 80 592 c 0,14,15
 80 565 80 565 80 512 c 0,16,17
 80 503 80 503 79 489 c 256,18,19
 78 475 78 475 78 463 c 0,20,21
 78 460 78 460 78 455 c 1,22,23
 82 456 82 456 95 460 c 0,24,25
 95 462 95 462 95 467 c 0,26,27
 98 488 98 488 106 497 c 0,28,29
 115 506 115 506 145 506 c 0,30,31
 208 506 208 506 332 506 c 1,32,33
 332 396 332 396 332 66 c 0,34,35
 332 36 332 36 323 27 c 256,36,37
 314 18 314 18 293 15 c 0,38,39
 290 15 290 15 286 15 c 0,40,41
 284 11 284 11 281 -2 c 1,42,43
 283 -2 283 -2 289 -2 c 0,44,45
 301 -2 301 -2 315 -1 c 256,46,47
 329 0 329 0 338 0 c 0,48,49
 365 0 365 0 419 0 c 0,50,51
 428 0 428 0 442 -1 c 256,52,53
 456 -2 456 -2 468 -2 c 0,54,55
 471 -2 471 -2 476 -2 c 1,56,57
 475 2 475 2 471 15 c 0,58,59
 469 15 469 15 464 15 c 0,60,61
 442 18 442 18 434 27 c 0,62,63
 425 36 425 36 425 66 c 0,64,65
 425 212 425 212 425 506 c 1,66,67
 472 506 472 506 611 506 c 0,68,69
 641 506 641 506 650 497 c 256,70,71
 659 488 659 488 662 467 c 0,72,73
 662 465 662 465 662 460 c 1,74,75
 666 458 666 458 679 455 c 1,76,77
 679 457 679 457 679 463 c 0,78,79
 679 475 679 475 678 489 c 256,80,81
 677 503 677 503 677 512 c 0,82,83
 677 539 677 539 677 592 c 0,84,85
 677 601 677 601 678 615 c 256,86,87
 679 629 679 629 679 641 c 0,88,89
 679 644 679 644 679 649 c 1,90,91
 675 648 675 648 662 644 c 0,92,93
 662 642 662 642 662 637 c 0,94,95
 659 615 659 615 650 607 c 0,96,97
 641 598 641 598 611 598 c 0,98,99
 456 598 456 598 145 598 c 0,0,1
EndSplineSet
Validated: 9
EndChar

StartChar: U
Encoding: 85 85 56
Width: 904
GlyphClass: 1
Flags: W
LayerCount: 2
Fore
SplineSet
453 -15 m 0,0,1
 498 -15 498 -15 540 -3 c 256,2,3
 582 9 582 9 618 32 c 0,4,5
 685 73 685 73 726 144 c 0,6,7
 767 214 767 214 767 299 c 0,8,9
 767 377 767 377 767 532 c 0,10,11
 767 562 767 562 776 571 c 0,12,13
 784 580 784 580 806 583 c 0,14,15
 808 583 808 583 813 583 c 1,16,17
 814 587 814 587 818 600 c 1,18,19
 816 600 816 600 810 600 c 0,20,21
 798 600 798 600 784 599 c 256,22,23
 770 598 770 598 761 598 c 0,24,25
 734 598 734 598 680 598 c 0,26,27
 671 598 671 598 657 599 c 256,28,29
 643 600 643 600 631 600 c 0,30,31
 628 600 628 600 623 600 c 1,32,33
 624 596 624 596 628 583 c 0,34,35
 630 583 630 583 635 583 c 0,36,37
 656 580 656 580 665 571 c 256,38,39
 674 562 674 562 674 532 c 0,40,41
 674 455 674 455 674 300 c 0,42,43
 674 209 674 209 609 143 c 0,44,45
 544 78 544 78 453 78 c 0,46,47
 361 78 361 78 296 143 c 0,48,49
 231 209 231 209 231 300 c 0,50,51
 231 378 231 378 231 532 c 0,52,53
 231 562 231 562 240 571 c 256,54,55
 249 580 249 580 270 583 c 0,56,57
 273 583 273 583 278 583 c 1,58,59
 279 587 279 587 283 600 c 1,60,61
 281 600 281 600 274 600 c 0,62,63
 262 600 262 600 248 599 c 256,64,65
 234 598 234 598 225 598 c 0,66,67
 198 598 198 598 144 598 c 0,68,69
 135 598 135 598 121 599 c 0,70,71
 108 600 108 600 95 600 c 0,72,73
 93 600 93 600 87 600 c 1,74,75
 88 596 88 596 92 583 c 0,76,77
 94 583 94 583 99 583 c 0,78,79
 121 580 121 580 130 571 c 0,80,81
 138 562 138 562 138 532 c 0,82,83
 138 455 138 455 138 299 c 0,84,85
 138 214 138 214 179 144 c 0,86,87
 220 73 220 73 287 32 c 0,88,89
 323 9 323 9 365 -3 c 256,90,91
 407 -15 407 -15 453 -15 c 0,0,1
EndSplineSet
Validated: 9
EndChar

StartChar: V
Encoding: 86 86 57
Width: 815
GlyphClass: 1
Flags: W
LayerCount: 2
Fore
SplineSet
50 583 m 0,0,1
 52 583 52 583 57 583 c 0,2,3
 79 580 79 580 89 570 c 0,4,5
 99 561 99 561 113 535 c 0,6,7
 211 346 211 346 408 -31 c 1,8,9
 481 111 481 111 702 535 c 0,10,11
 716 561 716 561 726 570 c 0,12,13
 736 580 736 580 758 583 c 0,14,15
 760 583 760 583 765 583 c 1,16,17
 766 587 766 587 771 600 c 1,18,19
 769 600 769 600 762 600 c 0,20,21
 750 600 750 600 736 599 c 256,22,23
 722 598 722 598 713 598 c 0,24,25
 684 598 684 598 626 598 c 0,26,27
 616 598 616 598 603 599 c 0,28,29
 589 600 589 600 577 600 c 0,30,31
 573 600 573 600 567 600 c 1,32,33
 569 596 569 596 573 583 c 0,34,35
 575 583 575 583 581 583 c 0,36,37
 602 580 602 580 607 569 c 256,38,39
 612 558 612 558 598 532 c 0,40,41
 535 409 535 409 408 161 c 1,42,43
 360 254 360 254 217 532 c 0,44,45
 204 557 204 557 209 569 c 0,46,47
 213 580 213 580 234 583 c 0,48,49
 237 583 237 583 243 583 c 1,50,51
 244 587 244 587 248 600 c 1,52,53
 246 600 246 600 239 600 c 0,54,55
 226 600 226 600 212 599 c 0,56,57
 199 598 199 598 189 598 c 0,58,59
 160 598 160 598 102 598 c 0,60,61
 93 598 93 598 79 599 c 0,62,63
 66 600 66 600 53 600 c 0,64,65
 50 600 50 600 44 600 c 1,66,67
 46 596 46 596 50 583 c 0,0,1
EndSplineSet
Validated: 41
EndChar

StartChar: W
Encoding: 87 87 58
Width: 1077
GlyphClass: 1
Flags: W
LayerCount: 2
Fore
SplineSet
50 583 m 0,0,1
 72 580 72 580 82 570 c 0,2,3
 92 561 92 561 105 535 c 0,4,5
 204 346 204 346 400 -31 c 1,6,7
 434 35 434 35 537 231 c 1,8,9
 571 166 571 166 674 -31 c 1,10,11
 748 111 748 111 969 535 c 0,12,13
 983 561 983 561 993 570 c 0,14,15
 1002 580 1002 580 1024 583 c 0,16,17
 1026 583 1026 583 1031 583 c 1,18,19
 1033 587 1033 587 1037 600 c 1,20,21
 1035 600 1035 600 1028 600 c 0,22,23
 1016 600 1016 600 1002 599 c 256,24,25
 988 598 988 598 979 598 c 0,26,27
 950 598 950 598 892 598 c 0,28,29
 883 598 883 598 869 599 c 256,30,31
 855 600 855 600 843 600 c 0,32,33
 840 600 840 600 834 600 c 1,34,35
 835 596 835 596 840 583 c 0,36,37
 841 583 841 583 847 583 c 0,38,39
 868 580 868 580 873 569 c 256,40,41
 878 558 878 558 864 532 c 0,42,43
 801 409 801 409 674 161 c 1,44,45
 652 203 652 203 588 329 c 1,46,47
 615 380 615 380 695 535 c 0,48,49
 709 561 709 561 719 570 c 0,50,51
 729 580 729 580 751 583 c 0,52,53
 753 583 753 583 758 583 c 1,54,55
 759 587 759 587 764 600 c 1,56,57
 762 600 762 600 755 600 c 0,58,59
 742 600 742 600 729 599 c 0,60,61
 715 598 715 598 706 598 c 0,62,63
 677 598 677 598 618 598 c 0,64,65
 609 598 609 598 595 599 c 0,66,67
 582 600 582 600 569 600 c 0,68,69
 566 600 566 600 560 600 c 1,70,71
 562 596 562 596 566 583 c 0,72,73
 568 583 568 583 573 583 c 0,74,75
 595 580 595 580 600 569 c 256,76,77
 605 558 605 558 591 532 c 0,78,79
 573 497 573 497 537 427 c 1,80,81
 523 453 523 453 483 532 c 0,82,83
 470 557 470 557 475 569 c 0,84,85
 479 580 479 580 501 583 c 0,86,87
 503 583 503 583 509 583 c 1,88,89
 510 587 510 587 514 600 c 1,90,91
 512 600 512 600 505 600 c 0,92,93
 493 600 493 600 479 599 c 256,94,95
 465 598 465 598 456 598 c 0,96,97
 427 598 427 598 369 598 c 0,98,99
 359 598 359 598 346 599 c 0,100,101
 332 600 332 600 319 600 c 0,102,103
 316 600 316 600 310 600 c 1,104,105
 312 596 312 596 316 583 c 0,106,107
 318 583 318 583 324 583 c 0,108,109
 345 580 345 580 355 570 c 0,110,111
 365 561 365 561 379 535 c 0,112,113
 415 466 415 466 486 329 c 1,114,115
 465 287 465 287 400 161 c 1,116,117
 353 254 353 254 210 532 c 0,118,119
 197 557 197 557 201 569 c 0,120,121
 206 580 206 580 227 583 c 0,122,123
 230 583 230 583 236 583 c 1,124,125
 237 587 237 587 241 600 c 1,126,127
 238 600 238 600 231 600 c 0,128,129
 219 600 219 600 205 599 c 256,130,131
 191 598 191 598 182 598 c 0,132,133
 153 598 153 598 95 598 c 0,134,135
 86 598 86 598 72 599 c 256,136,137
 58 600 58 600 46 600 c 0,138,139
 43 600 43 600 37 600 c 1,140,141
 38 596 38 596 43 583 c 0,142,143
 45 583 45 583 50 583 c 0,0,1
EndSplineSet
Validated: 41
EndChar

StartChar: X
Encoding: 88 88 59
Width: 865
GlyphClass: 1
Flags: W
LayerCount: 2
Fore
SplineSet
698 496 m 0,0,1
 719 517 719 517 731 517 c 256,2,3
 743 517 743 517 761 504 c 0,4,5
 762 502 762 502 764 500 c 0,6,7
 765 499 765 499 765 499 c 1,8,9
 771 501 771 501 782 507 c 0,10,11
 781 509 781 509 776 514 c 0,12,13
 767 522 767 522 757 531 c 0,14,15
 746 540 746 540 739 547 c 0,16,17
 721 566 721 566 683 604 c 0,18,19
 676 610 676 610 667 621 c 0,20,21
 659 632 659 632 650 640 c 0,22,23
 648 642 648 642 644 646 c 1,24,25
 642 642 642 642 635 630 c 0,26,27
 636 628 636 628 640 625 c 0,28,29
 654 608 654 608 654 596 c 0,30,31
 653 584 653 584 632 562 c 0,32,33
 566 496 566 496 433 364 c 1,34,35
 383 413 383 413 234 562 c 0,36,37
 213 584 213 584 213 596 c 0,38,39
 212 608 212 608 226 625 c 0,40,41
 228 626 228 626 231 630 c 1,42,43
 229 634 229 634 222 646 c 1,44,45
 221 645 221 645 216 640 c 0,46,47
 208 632 208 632 199 621 c 256,48,49
 190 610 190 610 183 604 c 0,50,51
 165 585 165 585 127 547 c 0,52,53
 120 540 120 540 110 531 c 0,54,55
 99 522 99 522 90 514 c 0,56,57
 88 512 88 512 84 507 c 1,58,59
 88 505 88 505 101 499 c 1,60,61
 101 499 101 499 103 500 c 0,62,63
 104 502 104 502 105 504 c 0,64,65
 123 517 123 517 135 517 c 256,66,67
 147 517 147 517 168 496 c 0,68,69
 234 429 234 429 367 297 c 1,70,71
 317 247 317 247 168 98 c 0,72,73
 147 77 147 77 135 77 c 256,74,75
 123 77 123 77 105 90 c 0,76,77
 104 92 104 92 103 93 c 0,78,79
 101 95 101 95 101 95 c 1,80,81
 96 93 96 93 84 87 c 1,82,83
 86 85 86 85 90 80 c 0,84,85
 99 71 99 71 110 63 c 0,86,87
 120 54 120 54 127 47 c 0,88,89
 146 28 146 28 183 -10 c 0,90,91
 190 -16 190 -16 199 -27 c 256,92,93
 208 -38 208 -38 216 -46 c 0,94,95
 218 -48 218 -48 222 -52 c 1,96,97
 225 -48 225 -48 231 -36 c 0,98,99
 230 -35 230 -35 226 -31 c 0,100,101
 212 -14 212 -14 213 -2 c 0,102,103
 213 10 213 10 234 32 c 0,104,105
 301 98 301 98 433 230 c 1,106,107
 483 181 483 181 632 32 c 0,108,109
 653 10 653 10 654 -2 c 0,110,111
 654 -14 654 -14 640 -31 c 0,112,113
 638 -32 638 -32 635 -36 c 1,114,115
 637 -40 637 -40 644 -52 c 0,116,117
 646 -51 646 -51 650 -46 c 0,118,119
 659 -38 659 -38 667 -27 c 0,120,121
 676 -16 676 -16 683 -10 c 0,122,123
 702 9 702 9 739 47 c 0,124,125
 746 54 746 54 757 63 c 0,126,127
 767 71 767 71 776 80 c 0,128,129
 778 82 778 82 782 87 c 1,130,131
 778 89 778 89 765 95 c 1,132,133
 765 95 765 95 764 93 c 0,134,135
 762 92 762 92 761 90 c 0,136,137
 743 77 743 77 731 77 c 256,138,139
 719 77 719 77 698 98 c 0,140,141
 632 165 632 165 500 297 c 1,142,143
 549 347 549 347 698 496 c 0,0,1
EndSplineSet
Validated: 9
EndChar

StartChar: Y
Encoding: 89 89 60
Width: 811
GlyphClass: 1
Flags: W
LayerCount: 2
Fore
SplineSet
743 514 m 0,0,1
 735 522 735 522 725 531 c 0,2,3
 714 540 714 540 708 547 c 0,4,5
 689 566 689 566 651 604 c 0,6,7
 644 610 644 610 636 621 c 0,8,9
 627 632 627 632 617 640 c 0,10,11
 615 642 615 642 611 646 c 1,12,13
 609 642 609 642 603 630 c 1,14,15
 603 630 603 630 604 628 c 0,16,17
 606 626 606 626 607 625 c 0,18,19
 621 608 621 608 621 596 c 256,20,21
 621 584 621 584 599 562 c 0,22,23
 533 496 533 496 401 364 c 1,24,25
 351 413 351 413 202 562 c 0,26,27
 180 584 180 584 180 596 c 256,28,29
 180 608 180 608 194 625 c 0,30,31
 196 626 196 626 197 628 c 0,32,33
 199 630 199 630 199 630 c 1,34,35
 196 635 196 635 190 646 c 1,36,37
 189 645 189 645 184 640 c 0,38,39
 175 632 175 632 166 621 c 256,40,41
 157 610 157 610 151 604 c 0,42,43
 132 585 132 585 94 547 c 0,44,45
 87 540 87 540 77 531 c 256,46,47
 67 522 67 522 58 514 c 0,48,49
 56 512 56 512 51 507 c 1,50,51
 56 505 56 505 69 499 c 1,52,53
 69 499 69 499 70 500 c 0,54,55
 71 502 71 502 74 504 c 0,56,57
 91 517 91 517 103 517 c 0,58,59
 114 517 114 517 135 496 c 0,60,61
 208 423 208 423 354 278 c 1,62,63
 354 225 354 225 354 66 c 0,64,65
 354 36 354 36 346 27 c 256,66,67
 338 18 338 18 316 15 c 0,68,69
 314 15 314 15 309 15 c 1,70,71
 308 11 308 11 303 -2 c 1,72,73
 305 -2 305 -2 312 -2 c 0,74,75
 325 -2 325 -2 338 -1 c 0,76,77
 352 0 352 0 361 0 c 0,78,79
 388 0 388 0 441 0 c 0,80,81
 451 0 451 0 464 -1 c 0,82,83
 478 -2 478 -2 490 -2 c 0,84,85
 493 -2 493 -2 499 -2 c 1,86,87
 497 2 497 2 494 15 c 0,88,89
 492 15 492 15 486 15 c 0,90,91
 465 18 465 18 456 27 c 256,92,93
 447 36 447 36 447 66 c 0,94,95
 447 136 447 136 447 278 c 1,96,97
 502 332 502 332 666 496 c 0,98,99
 686 517 686 517 699 517 c 0,100,101
 711 517 711 517 728 504 c 0,102,103
 730 502 730 502 733 499 c 1,104,105
 737 501 737 501 750 507 c 1,106,107
 748 509 748 509 743 514 c 0,0,1
EndSplineSet
Validated: 9
EndChar

StartChar: Z
Encoding: 90 90 61
Width: 690
GlyphClass: 1
Flags: W
LayerCount: 2
Fore
SplineSet
116 0 m 1,0,1
 215 0 215 0 514 0 c 0,2,3
 546 0 546 0 554 -10 c 0,4,5
 563 -21 563 -21 564 -46 c 1,6,7
 570 -48 570 -48 582 -51 c 1,8,9
 582 -49 582 -49 582 -43 c 0,10,11
 582 -31 582 -31 581 -17 c 256,12,13
 580 -3 580 -3 580 6 c 0,14,15
 580 32 580 32 580 84 c 0,16,17
 580 93 580 93 581 107 c 256,18,19
 582 121 582 121 582 133 c 0,20,21
 582 136 582 136 582 141 c 1,22,23
 577 140 577 140 564 136 c 1,24,25
 563 111 563 111 554 100 c 0,26,27
 546 90 546 90 514 90 c 0,28,29
 436 90 436 90 280 90 c 1,30,31
 356 217 356 217 585 598 c 1,32,33
 485 598 485 598 186 598 c 0,34,35
 154 598 154 598 146 608 c 0,36,37
 138 619 138 619 136 644 c 1,38,39
 130 646 130 646 119 649 c 1,40,41
 119 647 119 647 119 641 c 0,42,43
 119 629 119 629 120 615 c 256,44,45
 121 601 121 601 121 592 c 0,46,47
 121 566 121 566 121 514 c 0,48,49
 121 505 121 505 120 491 c 256,50,51
 119 477 119 477 119 465 c 0,52,53
 119 462 119 462 119 457 c 1,54,55
 123 458 123 458 136 462 c 1,56,57
 138 487 138 487 146 498 c 0,58,59
 154 508 154 508 186 508 c 0,60,61
 265 508 265 508 423 508 c 1,62,63
 346 381 346 381 116 0 c 1,0,1
EndSplineSet
Validated: 9
EndChar

StartChar: bracketleft
Encoding: 91 91 62
Width: 492
GlyphClass: 1
Flags: W
LayerCount: 2
Fore
SplineSet
384 -77 m 1,0,1
 356 -77 356 -77 272 -77 c 1,2,3
 272 109 272 109 272 667 c 1,4,5
 300 667 300 667 384 667 c 1,6,7
 384 675 384 675 384 699 c 1,8,9
 337 699 337 699 197 699 c 1,10,11
 197 497 197 497 197 -111 c 1,12,13
 243 -111 243 -111 384 -111 c 1,14,15
 384 -102 384 -102 384 -77 c 1,0,1
EndSplineSet
Validated: 9
EndChar

StartChar: backslash
Encoding: 92 92 63
Width: 414
GlyphClass: 1
Flags: W
LayerCount: 2
Fore
SplineSet
415 -180 m 1,0,1
 419 -168 419 -168 433 -131 c 1,2,3
 338 66 338 66 54 658 c 1,4,5
 41 663 41 663 3 676 c 1,6,7
 -1 663 -1 663 -14 626 c 1,8,9
 80 429 80 429 364 -162 c 1,10,11
 376 -166 376 -166 415 -180 c 1,0,1
EndSplineSet
Validated: 9
EndChar

StartChar: bracketright
Encoding: 93 93 64
Width: 492
GlyphClass: 1
Flags: W
LayerCount: 2
Fore
SplineSet
295 699 m 1,0,1
 248 699 248 699 108 699 c 1,2,3
 108 691 108 691 108 667 c 1,4,5
 135 667 135 667 219 667 c 1,6,7
 219 481 219 481 219 -77 c 1,8,9
 191 -77 191 -77 108 -77 c 1,10,11
 108 -85 108 -85 108 -111 c 1,12,13
 154 -111 154 -111 295 -111 c 1,14,15
 295 92 295 92 295 699 c 1,0,1
EndSplineSet
Validated: 9
EndChar

StartChar: asciicircum
Encoding: 94 94 65
Width: 489
GlyphClass: 1
Flags: W
LayerCount: 2
Fore
SplineSet
259 589 m 1,0,1
 250 589 250 589 224 589 c 1,2,3
 201 565 201 565 133 494 c 1,4,5
 144 494 144 494 178 494 c 1,6,7
 194 505 194 505 242 539 c 1,8,9
 258 527 258 527 305 494 c 1,10,11
 316 494 316 494 350 494 c 1,12,13
 327 517 327 517 259 589 c 1,0,1
EndSplineSet
Validated: 9
EndChar

StartChar: underscore
Encoding: 95 95 66
Width: 447
GlyphClass: 1
Flags: W
LayerCount: 2
Fore
SplineSet
451 -143 m 1,0,1
 337 -143 337 -143 -4 -143 c 1,2,3
 -4 -152 -4 -152 -4 -177 c 1,4,5
 110 -177 110 -177 451 -177 c 1,6,7
 451 -169 451 -169 451 -143 c 1,0,1
EndSplineSet
Validated: 9
EndChar

StartChar: grave
Encoding: 96 96 67
Width: 469
GlyphClass: 1
Flags: W
LayerCount: 2
Fore
SplineSet
339 696 m 1,0,1
 316 720 316 720 248 792 c 1,2,3
 218 792 218 792 130 792 c 1,4,5
 167 768 167 768 279 696 c 1,6,7
 294 696 294 696 339 696 c 1,0,1
EndSplineSet
Validated: 9
EndChar

StartChar: a
Encoding: 97 97 68
Width: 628
GlyphClass: 1
Flags: W
LayerCount: 2
Fore
SplineSet
592 52 m 1,0,1
 585 49 585 49 579 48 c 0,2,3
 573 46 573 46 568 46 c 0,4,5
 561 46 561 46 552 56 c 0,6,7
 544 66 544 66 534 86 c 0,8,9
 460 218 460 218 314 483 c 1,10,11
 260 384 260 384 95 86 c 0,12,13
 82 62 82 62 75 54 c 0,14,15
 67 46 67 46 59 46 c 0,16,17
 54 46 54 46 49 48 c 0,18,19
 44 49 44 49 37 52 c 1,20,21
 33 48 33 48 25 40 c 1,22,23
 38 34 38 34 50 30 c 256,24,25
 62 26 62 26 80 16 c 0,26,27
 93 9 93 9 119 -5 c 0,28,29
 136 -15 136 -15 149 -20 c 0,30,31
 161 -24 161 -24 175 -33 c 1,32,33
 176 -27 176 -27 179 -16 c 1,34,35
 167 -11 167 -11 160 -5 c 0,36,37
 154 1 154 1 154 10 c 256,38,39
 154 19 154 19 156 29 c 0,40,41
 159 39 159 39 167 53 c 0,42,43
 172 63 172 63 183 84 c 1,44,45
 249 84 249 84 444 84 c 1,46,47
 449 76 449 76 461 53 c 0,48,49
 469 38 469 38 472 28 c 0,50,51
 474 17 474 17 474 10 c 0,52,53
 474 1 474 1 468 -5 c 0,54,55
 463 -11 463 -11 450 -16 c 1,56,57
 451 -22 451 -22 454 -33 c 1,58,59
 469 -25 469 -25 484 -17 c 0,60,61
 498 -8 498 -8 509 -3 c 0,62,63
 522 3 522 3 548 16 c 0,64,65
 558 22 558 22 571 26 c 0,66,67
 584 31 584 31 603 40 c 1,68,69
 599 44 599 44 592 52 c 1,0,1
314 323 m 1,70,71
 337 281 337 281 404 156 c 1,72,73
 359 156 359 156 223 156 c 1,74,75
 246 197 246 197 314 323 c 1,70,71
EndSplineSet
Validated: 9
EndChar

StartChar: b
Encoding: 98 98 69
Width: 550
GlyphClass: 1
Flags: W
LayerCount: 2
Fore
SplineSet
379 257 m 1,0,1
 401 269 401 269 417 289 c 256,2,3
 433 309 433 309 433 342 c 0,4,5
 433 395 433 395 388 425 c 0,6,7
 342 455 342 455 272 455 c 0,8,9
 230 455 230 455 146 455 c 0,10,11
 138 455 138 455 125 456 c 256,12,13
 112 457 112 457 100 457 c 0,14,15
 98 457 98 457 92 457 c 1,16,17
 93 453 93 453 97 440 c 0,18,19
 99 440 99 440 103 440 c 0,20,21
 124 439 124 439 132 431 c 256,22,23
 140 423 140 423 140 402 c 0,24,25
 140 286 140 286 140 52 c 0,26,27
 140 29 140 29 132 23 c 0,28,29
 124 16 124 16 103 14 c 0,30,31
 101 14 101 14 97 14 c 0,32,33
 96 10 96 10 92 -2 c 1,34,35
 94 -2 94 -2 100 -2 c 0,36,37
 112 -2 112 -2 125 -1 c 256,38,39
 138 0 138 0 146 0 c 0,40,41
 190 0 190 0 278 0 c 0,42,43
 364 0 364 0 414 38 c 256,44,45
 464 76 464 76 464 138 c 0,46,47
 464 184 464 184 439 213 c 256,48,49
 414 242 414 242 379 257 c 1,0,1
278 389 m 0,50,51
 308 389 308 389 330 378 c 0,52,53
 351 366 351 366 351 338 c 0,54,55
 351 308 351 308 330 295 c 0,56,57
 308 282 308 282 278 282 c 0,58,59
 259 282 259 282 222 282 c 1,60,61
 222 308 222 308 222 389 c 1,62,63
 236 389 236 389 278 389 c 0,50,51
222 66 m 1,64,65
 222 102 222 102 222 210 c 1,66,67
 236 210 236 210 278 210 c 0,68,69
 321 210 321 210 350 192 c 0,70,71
 380 174 380 174 380 140 c 0,72,73
 380 105 380 105 350 85 c 0,74,75
 321 66 321 66 278 66 c 0,76,77
 259 66 259 66 222 66 c 1,64,65
EndSplineSet
Validated: 9
EndChar

StartChar: c
Encoding: 99 99 70
Width: 575
GlyphClass: 1
Flags: W
LayerCount: 2
Fore
SplineSet
338 -12 m 0,0,1
 378 -12 378 -12 416 0 c 256,2,3
 454 12 454 12 484 36 c 1,4,5
 484 56 484 56 484 95 c 0,6,7
 484 104 484 104 486 116 c 0,8,9
 487 128 487 128 487 146 c 0,10,11
 487 148 487 148 487 153 c 1,12,13
 483 153 483 153 470 153 c 1,14,15
 463 116 463 116 424 94 c 256,16,17
 385 72 385 72 338 72 c 0,18,19
 270 72 270 72 225 115 c 256,20,21
 180 158 180 158 180 228 c 256,22,23
 180 298 180 298 225 341 c 256,24,25
 270 384 270 384 338 384 c 0,26,27
 366 384 366 384 396 376 c 0,28,29
 425 368 425 368 442 352 c 0,30,31
 455 342 455 342 461 330 c 256,32,33
 467 318 467 318 470 302 c 1,34,35
 475 302 475 302 486 302 c 1,36,37
 486 304 486 304 486 308 c 0,38,39
 486 326 486 326 485 338 c 0,40,41
 484 349 484 349 484 359 c 0,42,43
 484 380 484 380 484 420 c 1,44,45
 457 442 457 442 418 455 c 0,46,47
 380 468 380 468 338 468 c 0,48,49
 302 468 302 468 269 459 c 0,50,51
 235 449 235 449 207 432 c 0,52,53
 154 400 154 400 122 347 c 0,54,55
 90 293 90 293 90 228 c 256,56,57
 90 163 90 163 122 109 c 256,58,59
 154 55 154 55 207 23 c 0,60,61
 236 6 236 6 269 -3 c 256,62,63
 302 -12 302 -12 338 -12 c 0,0,1
EndSplineSet
Validated: 9
EndChar

StartChar: d
Encoding: 100 100 71
Width: 642
GlyphClass: 1
Flags: W
LayerCount: 2
Fore
SplineSet
293 457 m 0,0,1
 266 457 266 457 237 456 c 256,2,3
 208 455 208 455 200 455 c 0,4,5
 182 455 182 455 146 455 c 0,6,7
 137 455 137 455 125 455 c 0,8,9
 112 456 112 456 100 456 c 0,10,11
 98 456 98 456 92 456 c 1,12,13
 93 452 93 452 97 439 c 0,14,15
 99 439 99 439 103 439 c 0,16,17
 123 437 123 437 132 431 c 0,18,19
 140 424 140 424 140 401 c 0,20,21
 140 285 140 285 140 53 c 0,22,23
 140 31 140 31 132 24 c 256,24,25
 124 17 124 17 103 14 c 0,26,27
 101 14 101 14 97 14 c 0,28,29
 96 10 96 10 92 -2 c 1,30,31
 94 -2 94 -2 100 -2 c 0,32,33
 112 -2 112 -2 125 -1 c 0,34,35
 137 0 137 0 146 0 c 0,36,37
 168 0 168 0 211 0 c 0,38,39
 214 0 214 0 241 -1 c 256,40,41
 268 -2 268 -2 293 -2 c 0,42,43
 400 -2 400 -2 476 61 c 256,44,45
 552 124 552 124 552 227 c 0,46,47
 552 332 552 332 476 394 c 0,48,49
 400 457 400 457 293 457 c 0,0,1
228 71 m 1,50,51
 228 149 228 149 228 384 c 1,52,53
 244 384 244 384 290 384 c 0,54,55
 364 384 364 384 413 343 c 256,56,57
 462 302 462 302 462 227 c 0,58,59
 462 153 462 153 413 112 c 256,60,61
 364 71 364 71 290 71 c 0,62,63
 269 71 269 71 228 71 c 1,50,51
EndSplineSet
Validated: 9
EndChar

StartChar: e
Encoding: 101 101 72
Width: 563
GlyphClass: 1
Flags: W
LayerCount: 2
Fore
SplineSet
457 495 m 1,0,1
 453 493 453 493 441 489 c 1,2,3
 440 468 440 468 431 461 c 0,4,5
 421 455 421 455 395 455 c 0,6,7
 312 455 312 455 146 455 c 1,8,9
 146 409 146 409 146 270 c 1,10,11
 144 270 144 270 135 270 c 0,12,13
 114 270 114 270 107 277 c 0,14,15
 99 283 99 283 97 302 c 1,16,17
 92 303 92 303 82 306 c 1,18,19
 82 304 82 304 82 299 c 0,20,21
 82 291 82 291 83 281 c 0,22,23
 84 272 84 272 84 266 c 0,24,25
 84 245 84 245 84 203 c 0,26,27
 84 196 84 196 83 187 c 0,28,29
 82 179 82 179 82 169 c 0,30,31
 82 167 82 167 82 164 c 1,32,33
 86 165 86 165 97 167 c 1,34,35
 99 187 99 187 106 193 c 0,36,37
 114 199 114 199 135 199 c 0,38,39
 139 199 139 199 146 199 c 1,40,41
 146 133 146 133 146 -62 c 1,42,43
 165 -47 165 -47 219 0 c 1,44,45
 263 0 263 0 395 0 c 0,46,47
 424 0 424 0 432 -8 c 256,48,49
 440 -16 440 -16 441 -36 c 1,50,51
 446 -37 446 -37 457 -39 c 1,52,53
 457 -37 457 -37 457 -33 c 0,54,55
 457 -24 457 -24 456 -13 c 256,56,57
 455 -2 455 -2 455 4 c 0,58,59
 455 23 455 23 455 60 c 0,60,61
 455 67 455 67 456 77 c 0,62,63
 457 88 457 88 457 97 c 0,64,65
 457 99 457 99 457 103 c 1,66,67
 453 102 453 102 440 97 c 1,68,69
 440 82 440 82 430 77 c 0,70,71
 419 72 419 72 394 72 c 0,72,73
 339 72 339 72 228 72 c 1,74,75
 228 103 228 103 228 199 c 1,76,77
 270 199 270 199 394 199 c 0,78,79
 424 199 424 199 431 193 c 256,80,81
 438 187 438 187 439 167 c 1,82,83
 444 166 444 166 455 163 c 1,84,85
 455 164 455 164 455 168 c 0,86,87
 455 178 455 178 454 186 c 0,88,89
 453 195 453 195 453 202 c 0,90,91
 453 223 453 223 453 266 c 0,92,93
 453 272 453 272 454 281 c 0,94,95
 455 291 455 291 455 299 c 0,96,97
 455 301 455 301 455 306 c 1,98,99
 451 305 451 305 439 302 c 1,100,101
 438 281 438 281 430 276 c 0,102,103
 423 270 423 270 394 270 c 0,104,105
 339 270 339 270 228 270 c 1,106,107
 228 298 228 298 228 383 c 1,108,109
 270 383 270 383 394 383 c 0,110,111
 420 383 420 383 430 378 c 0,112,113
 440 374 440 374 440 358 c 1,114,115
 446 356 446 356 457 351 c 1,116,117
 457 353 457 353 457 357 c 0,118,119
 457 367 457 367 456 374 c 256,120,121
 455 381 455 381 455 388 c 0,122,123
 455 409 455 409 455 451 c 0,124,125
 455 457 455 457 456 468 c 0,126,127
 457 478 457 478 457 487 c 0,128,129
 457 490 457 490 457 495 c 1,0,1
EndSplineSet
Validated: 9
EndChar

StartChar: f
Encoding: 102 102 73
Width: 514
GlyphClass: 1
Flags: W
LayerCount: 2
Fore
SplineSet
440 499 m 1,0,1
 436 497 436 497 424 494 c 1,2,3
 423 469 423 469 413 462 c 256,4,5
 403 455 403 455 379 455 c 0,6,7
 300 455 300 455 141 455 c 1,8,9
 141 405 141 405 141 256 c 1,10,11
 140 256 140 256 137 256 c 0,12,13
 118 256 118 256 110 262 c 0,14,15
 101 268 101 268 98 295 c 1,16,17
 93 297 93 297 82 300 c 1,18,19
 82 298 82 298 82 293 c 0,20,21
 82 287 82 287 83 280 c 0,22,23
 84 274 84 274 84 267 c 0,24,25
 84 234 84 234 84 168 c 0,26,27
 84 160 84 160 83 155 c 256,28,29
 82 150 82 150 82 145 c 0,30,31
 82 143 82 143 82 137 c 1,32,33
 86 138 86 138 98 141 c 1,34,35
 101 164 101 164 107 172 c 0,36,37
 112 180 112 180 137 180 c 0,38,39
 139 180 139 180 141 180 c 1,40,41
 141 118 141 118 141 -71 c 1,42,43
 163 -48 163 -48 229 18 c 1,44,45
 229 59 229 59 229 180 c 1,46,47
 266 180 266 180 378 180 c 0,48,49
 406 180 406 180 414 173 c 0,50,51
 422 165 422 165 423 145 c 1,52,53
 428 144 428 144 439 141 c 1,54,55
 439 143 439 143 439 147 c 0,56,57
 439 158 439 158 439 168 c 0,58,59
 438 178 438 178 438 185 c 0,60,61
 438 208 438 208 438 252 c 0,62,63
 438 260 438 260 439 270 c 0,64,65
 439 280 439 280 439 290 c 0,66,67
 439 292 439 292 439 297 c 1,68,69
 435 296 435 296 423 293 c 1,70,71
 422 271 422 271 414 264 c 0,72,73
 406 256 406 256 378 256 c 0,74,75
 328 256 328 256 229 256 c 1,76,77
 229 287 229 287 229 379 c 1,78,79
 266 379 266 379 377 379 c 0,80,81
 405 379 405 379 414 372 c 256,82,83
 423 365 423 365 422 350 c 1,84,85
 428 348 428 348 440 343 c 1,86,87
 440 345 440 345 440 350 c 0,88,89
 440 360 440 360 440 368 c 0,90,91
 439 376 439 376 439 384 c 0,92,93
 439 406 439 406 439 450 c 0,94,95
 439 457 439 457 440 469 c 0,96,97
 440 481 440 481 440 492 c 0,98,99
 440 494 440 494 440 499 c 1,0,1
EndSplineSet
Validated: 9
EndChar

StartChar: g
Encoding: 103 103 74
Width: 590
GlyphClass: 1
Flags: W
LayerCount: 2
Fore
SplineSet
321 212 m 0,0,1
 321 209 321 209 321 200 c 256,2,3
 321 191 321 191 320 178 c 256,4,5
 319 165 319 165 319 154 c 0,6,7
 319 151 319 151 319 146 c 1,8,9
 324 147 324 147 336 150 c 0,10,11
 336 151 336 151 336 156 c 0,12,13
 338 173 338 173 346 179 c 0,14,15
 355 185 355 185 377 185 c 0,16,17
 389 185 389 185 414 185 c 1,18,19
 414 161 414 161 414 89 c 1,20,21
 393 81 393 81 374 77 c 0,22,23
 356 74 356 74 338 74 c 0,24,25
 270 74 270 74 225 116 c 256,26,27
 180 158 180 158 180 228 c 256,28,29
 180 298 180 298 225 341 c 256,30,31
 270 384 270 384 338 384 c 0,32,33
 366 384 366 384 396 376 c 0,34,35
 425 368 425 368 442 352 c 0,36,37
 455 342 455 342 461 330 c 256,38,39
 467 318 467 318 470 302 c 1,40,41
 475 302 475 302 486 302 c 1,42,43
 486 304 486 304 486 308 c 0,44,45
 486 326 486 326 485 338 c 0,46,47
 484 349 484 349 484 359 c 0,48,49
 484 380 484 380 484 420 c 1,50,51
 457 442 457 442 418 455 c 0,52,53
 380 468 380 468 338 468 c 0,54,55
 302 468 302 468 269 459 c 0,56,57
 235 449 235 449 207 432 c 0,58,59
 154 400 154 400 122 347 c 0,60,61
 90 293 90 293 90 228 c 0,62,63
 90 193 90 193 100 161 c 0,64,65
 109 129 109 129 127 102 c 0,66,67
 160 51 160 51 215 20 c 0,68,69
 271 -10 271 -10 338 -10 c 0,70,71
 382 -10 382 -10 423 2 c 0,72,73
 464 15 464 15 494 37 c 1,74,75
 494 108 494 108 494 251 c 1,76,77
 450 251 450 251 319 251 c 1,78,79
 320 241 320 241 321 212 c 0,0,1
EndSplineSet
Validated: 9
EndChar

StartChar: h
Encoding: 104 104 75
Width: 659
GlyphClass: 1
Flags: W
LayerCount: 2
Fore
SplineSet
555 14 m 0,0,1
 535 17 535 17 527 24 c 256,2,3
 519 31 519 31 519 53 c 0,4,5
 519 169 519 169 519 401 c 0,6,7
 519 424 519 424 527 431 c 0,8,9
 536 438 536 438 555 439 c 0,10,11
 557 439 557 439 562 439 c 1,12,13
 563 443 563 443 567 456 c 1,14,15
 565 456 565 456 559 456 c 0,16,17
 548 456 548 456 535 455 c 0,18,19
 521 455 521 455 513 455 c 0,20,21
 487 455 487 455 435 455 c 0,22,23
 426 455 426 455 413 455 c 0,24,25
 400 456 400 456 388 456 c 0,26,27
 386 456 386 456 381 456 c 1,28,29
 382 452 382 452 386 439 c 0,30,31
 388 439 388 439 392 439 c 0,32,33
 412 437 412 437 421 431 c 0,34,35
 429 424 429 424 429 401 c 0,36,37
 429 359 429 359 429 274 c 1,38,39
 379 274 379 274 230 274 c 1,40,41
 230 306 230 306 230 401 c 0,42,43
 230 424 230 424 239 431 c 0,44,45
 247 438 247 438 266 439 c 0,46,47
 269 439 269 439 273 439 c 0,48,49
 275 443 275 443 279 456 c 1,50,51
 276 456 276 456 270 456 c 0,52,53
 260 456 260 456 247 455 c 0,54,55
 233 455 233 455 224 455 c 0,56,57
 198 455 198 455 146 455 c 0,58,59
 137 455 137 455 125 455 c 0,60,61
 112 456 112 456 100 456 c 0,62,63
 98 456 98 456 92 456 c 1,64,65
 93 452 93 452 97 439 c 0,66,67
 99 439 99 439 103 439 c 0,68,69
 123 437 123 437 132 431 c 0,70,71
 140 424 140 424 140 401 c 0,72,73
 140 285 140 285 140 53 c 0,74,75
 140 31 140 31 132 24 c 256,76,77
 124 17 124 17 103 14 c 0,78,79
 101 14 101 14 97 14 c 0,80,81
 96 10 96 10 92 -2 c 1,82,83
 94 -2 94 -2 100 -2 c 0,84,85
 112 -2 112 -2 125 -1 c 0,86,87
 137 0 137 0 146 0 c 0,88,89
 172 0 172 0 224 0 c 0,90,91
 233 0 233 0 247 -1 c 0,92,93
 260 -2 260 -2 270 -2 c 0,94,95
 273 -2 273 -2 279 -2 c 1,96,97
 277 2 277 2 273 14 c 0,98,99
 272 14 272 14 266 14 c 0,100,101
 245 17 245 17 238 25 c 0,102,103
 230 33 230 33 230 53 c 0,104,105
 230 103 230 103 230 203 c 1,106,107
 280 203 280 203 429 203 c 1,108,109
 429 165 429 165 429 53 c 0,110,111
 429 31 429 31 421 24 c 0,112,113
 412 17 412 17 392 14 c 0,114,115
 390 14 390 14 386 14 c 0,116,117
 385 10 385 10 381 -2 c 1,118,119
 383 -2 383 -2 388 -2 c 0,120,121
 400 -2 400 -2 413 -1 c 256,122,123
 426 0 426 0 435 0 c 0,124,125
 461 0 461 0 513 0 c 0,126,127
 521 0 521 0 535 -1 c 0,128,129
 548 -2 548 -2 559 -2 c 0,130,131
 562 -2 562 -2 567 -2 c 1,132,133
 566 2 566 2 562 14 c 0,134,135
 560 14 560 14 555 14 c 0,0,1
EndSplineSet
Validated: 9
EndChar

StartChar: i
Encoding: 105 105 76
Width: 375
GlyphClass: 1
Flags: W
LayerCount: 2
Fore
SplineSet
100 -2 m 0,0,1
 113 -2 113 -2 126 -1 c 256,2,3
 139 0 139 0 148 0 c 0,4,5
 174 0 174 0 226 0 c 0,6,7
 236 0 236 0 249 -1 c 256,8,9
 262 -2 262 -2 274 -2 c 0,10,11
 277 -2 277 -2 283 -2 c 1,12,13
 281 2 281 2 278 14 c 0,14,15
 276 14 276 14 270 14 c 0,16,17
 250 17 250 17 241 24 c 0,18,19
 232 32 232 32 232 57 c 0,20,21
 232 171 232 171 232 397 c 0,22,23
 232 423 232 423 241 430 c 0,24,25
 250 438 250 438 270 440 c 0,26,27
 273 440 273 440 278 440 c 1,28,29
 279 444 279 444 283 457 c 1,30,31
 281 457 281 457 274 457 c 0,32,33
 262 457 262 457 249 456 c 256,34,35
 236 455 236 455 226 455 c 0,36,37
 200 455 200 455 148 455 c 0,38,39
 139 455 139 455 126 456 c 256,40,41
 113 457 113 457 100 457 c 0,42,43
 98 457 98 457 92 457 c 1,44,45
 93 453 93 453 97 440 c 0,46,47
 99 440 99 440 104 440 c 0,48,49
 125 438 125 438 134 430 c 0,50,51
 142 423 142 423 142 397 c 0,52,53
 142 284 142 284 142 57 c 0,54,55
 142 32 142 32 134 24 c 0,56,57
 125 17 125 17 104 14 c 0,58,59
 102 14 102 14 97 14 c 1,60,61
 96 10 96 10 92 -2 c 1,62,63
 94 -2 94 -2 100 -2 c 0,0,1
EndSplineSet
Validated: 9
EndChar

StartChar: j
Encoding: 106 106 77
Width: 373
GlyphClass: 1
Flags: W
LayerCount: 2
Fore
SplineSet
231 -62 m 1,0,1
 231 52 231 52 231 397 c 0,2,3
 231 422 231 422 240 430 c 256,4,5
 249 438 249 438 270 440 c 0,6,7
 273 440 273 440 278 440 c 1,8,9
 279 444 279 444 283 457 c 1,10,11
 281 457 281 457 274 457 c 0,12,13
 262 457 262 457 248 456 c 256,14,15
 234 455 234 455 225 455 c 0,16,17
 199 455 199 455 147 455 c 0,18,19
 138 455 138 455 124 456 c 0,20,21
 111 457 111 457 98 457 c 0,22,23
 96 457 96 457 90 457 c 1,24,25
 91 453 91 453 95 440 c 0,26,27
 97 440 97 440 102 440 c 0,28,29
 124 438 124 438 133 430 c 0,30,31
 141 423 141 423 141 397 c 0,32,33
 141 201 141 201 141 -193 c 1,34,35
 164 -160 164 -160 231 -62 c 1,0,1
EndSplineSet
Validated: 9
EndChar

StartChar: k
Encoding: 107 107 78
Width: 578
GlyphClass: 1
Flags: W
LayerCount: 2
Fore
SplineSet
551 14 m 0,0,1
 542 14 542 14 528 21 c 256,2,3
 514 28 514 28 492 50 c 0,4,5
 428 114 428 114 302 243 c 1,6,7
 342 283 342 283 461 402 c 0,8,9
 482 424 482 424 495 431 c 0,10,11
 508 439 508 439 522 440 c 0,12,13
 523 440 523 440 525 440 c 0,14,15
 526 444 526 444 529 457 c 1,16,17
 528 457 528 457 522 457 c 256,18,19
 516 457 516 457 501 456 c 256,20,21
 486 455 486 455 474 455 c 0,22,23
 456 455 456 455 419 455 c 1,24,25
 371 406 371 406 226 260 c 1,26,27
 226 295 226 295 226 401 c 0,28,29
 226 424 226 424 235 431 c 0,30,31
 243 438 243 438 262 439 c 0,32,33
 265 439 265 439 269 439 c 0,34,35
 271 443 271 443 274 456 c 1,36,37
 272 456 272 456 266 456 c 0,38,39
 255 456 255 456 242 455 c 0,40,41
 229 455 229 455 220 455 c 0,42,43
 196 455 196 455 146 455 c 0,44,45
 137 455 137 455 125 455 c 0,46,47
 112 456 112 456 100 456 c 0,48,49
 98 456 98 456 92 456 c 1,50,51
 93 452 93 452 97 439 c 0,52,53
 99 439 99 439 103 439 c 0,54,55
 123 437 123 437 132 431 c 0,56,57
 140 424 140 424 140 401 c 0,58,59
 140 285 140 285 140 53 c 0,60,61
 140 31 140 31 132 24 c 256,62,63
 124 17 124 17 103 14 c 0,64,65
 101 14 101 14 97 14 c 0,66,67
 96 10 96 10 92 -2 c 1,68,69
 94 -2 94 -2 100 -2 c 0,70,71
 112 -2 112 -2 125 -1 c 0,72,73
 137 0 137 0 146 0 c 0,74,75
 171 0 171 0 220 0 c 0,76,77
 229 0 229 0 242 -1 c 256,78,79
 255 -2 255 -2 266 -2 c 0,80,81
 269 -2 269 -2 274 -2 c 1,82,83
 273 2 273 2 269 14 c 0,84,85
 268 14 268 14 262 14 c 0,86,87
 241 17 241 17 233 25 c 0,88,89
 226 33 226 33 226 53 c 0,90,91
 226 106 226 106 226 212 c 1,92,93
 278 159 278 159 433 0 c 1,94,95
 449 0 449 0 497 0 c 0,96,97
 508 0 508 0 523 -1 c 256,98,99
 538 -2 538 -2 543 -2 c 256,100,101
 548 -2 548 -2 559 -2 c 1,102,103
 558 2 558 2 556 14 c 0,104,105
 555 14 555 14 551 14 c 0,0,1
EndSplineSet
Validated: 9
EndChar

StartChar: l
Encoding: 108 108 79
Width: 528
GlyphClass: 1
Flags: W
LayerCount: 2
Fore
SplineSet
469 122 m 1,0,1
 465 121 465 121 453 119 c 1,2,3
 451 97 451 97 443 91 c 0,4,5
 435 84 435 84 408 84 c 0,6,7
 348 84 348 84 229 84 c 1,8,9
 229 163 229 163 229 401 c 0,10,11
 229 426 229 426 239 432 c 0,12,13
 248 438 248 438 271 439 c 1,14,15
 273 445 273 445 276 456 c 1,16,17
 274 456 274 456 268 456 c 0,18,19
 258 456 258 456 245 455 c 0,20,21
 233 455 233 455 224 455 c 0,22,23
 198 455 198 455 144 455 c 0,24,25
 136 455 136 455 124 455 c 0,26,27
 111 456 111 456 100 456 c 0,28,29
 98 456 98 456 92 456 c 1,30,31
 93 452 93 452 97 439 c 1,32,33
 123 438 123 438 131 430 c 0,34,35
 139 423 139 423 139 401 c 0,36,37
 139 247 139 247 139 -62 c 1,38,39
 159 -47 159 -47 218 0 c 1,40,41
 265 0 265 0 408 0 c 0,42,43
 436 0 436 0 444 -8 c 0,44,45
 451 -15 451 -15 453 -36 c 1,46,47
 458 -37 458 -37 469 -39 c 1,48,49
 469 -37 469 -37 469 -33 c 0,50,51
 469 -24 469 -24 468 -13 c 256,52,53
 467 -2 467 -2 467 4 c 0,54,55
 467 29 467 29 467 79 c 0,56,57
 467 86 467 86 468 96 c 0,58,59
 469 107 469 107 469 117 c 0,60,61
 469 118 469 118 469 122 c 1,0,1
EndSplineSet
Validated: 9
EndChar

StartChar: m
Encoding: 109 109 80
Width: 855
GlyphClass: 1
Flags: W
LayerCount: 2
Fore
SplineSet
752 14 m 0,0,1
 728 17 728 17 722 27 c 256,2,3
 716 37 716 37 716 57 c 0,4,5
 716 171 716 171 716 397 c 0,6,7
 716 423 716 423 724 430 c 0,8,9
 732 438 732 438 752 440 c 0,10,11
 754 440 754 440 758 440 c 0,12,13
 759 444 759 444 763 457 c 1,14,15
 761 457 761 457 755 457 c 0,16,17
 744 457 744 457 731 456 c 256,18,19
 718 455 718 455 710 455 c 0,20,21
 521 455 521 455 144 455 c 0,22,23
 136 455 136 455 123 456 c 0,24,25
 111 457 111 457 99 457 c 0,26,27
 97 457 97 457 92 457 c 1,28,29
 93 453 93 453 96 440 c 0,30,31
 98 440 98 440 103 440 c 0,32,33
 123 438 123 438 131 430 c 256,34,35
 139 422 139 422 139 397 c 0,36,37
 139 284 139 284 139 57 c 0,38,39
 139 33 139 33 131 25 c 256,40,41
 123 17 123 17 103 14 c 0,42,43
 101 14 101 14 96 14 c 1,44,45
 95 10 95 10 92 -2 c 1,46,47
 94 -2 94 -2 99 -2 c 0,48,49
 111 -2 111 -2 123 -1 c 0,50,51
 136 0 136 0 144 0 c 0,52,53
 170 0 170 0 221 0 c 0,54,55
 230 0 230 0 243 -1 c 0,56,57
 255 -2 255 -2 266 -2 c 0,58,59
 269 -2 269 -2 273 -2 c 1,60,61
 272 2 272 2 269 14 c 0,62,63
 268 14 268 14 263 14 c 0,64,65
 243 17 243 17 235 24 c 0,66,67
 227 32 227 32 227 57 c 0,68,69
 227 165 227 165 227 379 c 1,70,71
 266 379 266 379 383 379 c 1,72,73
 383 298 383 298 383 57 c 0,74,75
 383 32 383 32 375 24 c 0,76,77
 367 17 367 17 347 14 c 0,78,79
 345 14 345 14 341 14 c 0,80,81
 340 10 340 10 336 -2 c 1,82,83
 338 -2 338 -2 344 -2 c 0,84,85
 355 -2 355 -2 368 -1 c 256,86,87
 381 0 381 0 389 0 c 0,88,89
 415 0 415 0 466 0 c 0,90,91
 474 0 474 0 487 -1 c 0,92,93
 499 -2 499 -2 511 -2 c 0,94,95
 513 -2 513 -2 518 -2 c 1,96,97
 517 2 517 2 514 14 c 0,98,99
 512 14 512 14 507 14 c 0,100,101
 485 17 485 17 478 25 c 0,102,103
 471 34 471 34 471 57 c 0,104,105
 471 165 471 165 471 379 c 1,106,107
 510 379 510 379 628 379 c 1,108,109
 628 298 628 298 628 57 c 0,110,111
 628 33 628 33 620 25 c 256,112,113
 612 17 612 17 592 14 c 0,114,115
 590 14 590 14 586 14 c 0,116,117
 584 10 584 10 581 -2 c 1,118,119
 582 -2 582 -2 588 -2 c 0,120,121
 599 -2 599 -2 612 -1 c 0,122,123
 624 0 624 0 633 0 c 0,124,125
 658 0 658 0 710 0 c 0,126,127
 718 0 718 0 731 -1 c 256,128,129
 744 -2 744 -2 755 -2 c 0,130,131
 757 -2 757 -2 763 -2 c 1,132,133
 762 2 762 2 758 14 c 0,134,135
 756 14 756 14 752 14 c 0,0,1
EndSplineSet
Validated: 9
EndChar

StartChar: n
Encoding: 110 110 81
Width: 700
GlyphClass: 1
Flags: W
LayerCount: 2
Fore
SplineSet
596 14 m 0,0,1
 578 17 578 17 570 24 c 256,2,3
 562 31 562 31 562 53 c 0,4,5
 562 169 562 169 562 401 c 0,6,7
 562 424 562 424 570 430 c 0,8,9
 578 437 578 437 596 439 c 0,10,11
 598 439 598 439 603 439 c 1,12,13
 604 443 604 443 608 456 c 1,14,15
 606 456 606 456 600 456 c 0,16,17
 589 456 589 456 578 455 c 0,18,19
 566 455 566 455 558 455 c 0,20,21
 532 455 532 455 479 455 c 0,22,23
 472 455 472 455 460 455 c 0,24,25
 448 456 448 456 437 456 c 0,26,27
 435 456 435 456 430 456 c 1,28,29
 431 452 431 452 434 439 c 0,30,31
 436 439 436 439 440 439 c 0,32,33
 459 438 459 438 466 430 c 0,34,35
 474 423 474 423 474 401 c 0,36,37
 474 323 474 323 474 167 c 1,38,39
 412 224 412 224 224 395 c 0,40,41
 224 397 224 397 224 401 c 0,42,43
 224 423 224 423 232 430 c 0,44,45
 239 437 239 437 258 439 c 0,46,47
 260 439 260 439 265 439 c 1,48,49
 266 443 266 443 270 456 c 1,50,51
 268 456 268 456 262 456 c 0,52,53
 251 456 251 456 240 455 c 0,54,55
 228 455 228 455 220 455 c 0,56,57
 194 455 194 455 142 455 c 0,58,59
 134 455 134 455 122 455 c 0,60,61
 110 456 110 456 99 456 c 0,62,63
 97 456 97 456 92 456 c 1,64,65
 93 452 93 452 97 439 c 0,66,67
 99 439 99 439 102 439 c 0,68,69
 122 437 122 437 129 430 c 256,70,71
 136 423 136 423 136 401 c 0,72,73
 136 285 136 285 136 53 c 0,74,75
 136 31 136 31 129 24 c 256,76,77
 122 17 122 17 102 14 c 0,78,79
 101 14 101 14 97 14 c 0,80,81
 96 10 96 10 92 -2 c 1,82,83
 94 -2 94 -2 99 -2 c 0,84,85
 110 -2 110 -2 122 -1 c 256,86,87
 134 0 134 0 142 0 c 0,88,89
 168 0 168 0 220 0 c 0,90,91
 228 0 228 0 240 -1 c 0,92,93
 251 -2 251 -2 262 -2 c 0,94,95
 265 -2 265 -2 270 -2 c 1,96,97
 269 2 269 2 265 14 c 0,98,99
 263 14 263 14 258 14 c 0,100,101
 237 17 237 17 230 26 c 0,102,103
 224 35 224 35 224 53 c 0,104,105
 224 132 224 132 224 289 c 1,106,107
 287 232 287 232 474 60 c 0,108,109
 474 59 474 59 474 53 c 0,110,111
 474 32 474 32 467 24 c 0,112,113
 460 17 460 17 440 14 c 0,114,115
 438 14 438 14 434 14 c 0,116,117
 433 10 433 10 430 -2 c 1,118,119
 432 -2 432 -2 437 -2 c 0,120,121
 448 -2 448 -2 460 -1 c 256,122,123
 472 0 472 0 479 0 c 0,124,125
 506 0 506 0 558 0 c 0,126,127
 566 0 566 0 578 -1 c 0,128,129
 589 -2 589 -2 600 -2 c 0,130,131
 603 -2 603 -2 608 -2 c 1,132,133
 607 2 607 2 603 14 c 0,134,135
 601 14 601 14 596 14 c 0,0,1
EndSplineSet
Validated: 9
EndChar

StartChar: o
Encoding: 111 111 82
Width: 668
GlyphClass: 1
Flags: W
LayerCount: 2
Fore
SplineSet
334 -10 m 0,0,1
 439 -10 439 -10 508 60 c 0,2,3
 578 131 578 131 578 230 c 0,4,5
 578 330 578 330 508 401 c 0,6,7
 439 471 439 471 334 471 c 0,8,9
 228 471 228 471 159 400 c 256,10,11
 90 329 90 329 90 230 c 256,12,13
 90 131 90 131 159 60 c 0,14,15
 228 -10 228 -10 334 -10 c 0,0,1
168 258 m 1,16,17
 176 312 176 312 212 350 c 0,18,19
 249 388 249 388 306 395 c 1,20,21
 306 350 306 350 306 258 c 1,22,23
 272 258 272 258 168 258 c 1,16,17
361 395 m 1,24,25
 418 388 418 388 455 350 c 0,26,27
 491 312 491 312 499 258 c 1,28,29
 453 258 453 258 361 258 c 1,30,31
 361 292 361 292 361 395 c 1,24,25
306 66 m 1,32,33
 249 73 249 73 212 111 c 0,34,35
 176 149 176 149 168 203 c 1,36,37
 214 203 214 203 306 203 c 1,38,39
 306 168 306 168 306 66 c 1,32,33
361 203 m 1,40,41
 396 203 396 203 499 203 c 1,42,43
 491 149 491 149 455 111 c 0,44,45
 418 73 418 73 361 66 c 1,46,47
 361 111 361 111 361 203 c 1,40,41
EndSplineSet
Validated: 9
EndChar

StartChar: p
Encoding: 112 112 83
Width: 522
GlyphClass: 1
Flags: W
LayerCount: 2
Fore
SplineSet
281 456 m 0,0,1
 247 455 247 455 147 455 c 0,2,3
 138 455 138 455 125 456 c 256,4,5
 112 457 112 457 100 457 c 0,6,7
 98 457 98 457 92 457 c 1,8,9
 93 453 93 453 97 440 c 0,10,11
 99 440 99 440 104 440 c 0,12,13
 124 438 124 438 133 430 c 0,14,15
 141 423 141 423 141 397 c 0,16,17
 141 284 141 284 141 57 c 0,18,19
 141 34 141 34 134 25 c 0,20,21
 127 17 127 17 104 14 c 0,22,23
 102 14 102 14 97 14 c 1,24,25
 96 10 96 10 92 -2 c 1,26,27
 94 -2 94 -2 100 -2 c 0,28,29
 112 -2 112 -2 125 -1 c 256,30,31
 138 0 138 0 147 0 c 0,32,33
 171 0 171 0 219 0 c 0,34,35
 228 0 228 0 242 -1 c 0,36,37
 255 -2 255 -2 266 -2 c 0,38,39
 269 -2 269 -2 274 -2 c 1,40,41
 273 2 273 2 269 14 c 0,42,43
 268 14 268 14 262 14 c 0,44,45
 240 17 240 17 233 25 c 0,46,47
 225 34 225 34 225 57 c 0,48,49
 225 91 225 91 225 159 c 1,50,51
 240 159 240 159 284 159 c 0,52,53
 367 159 367 159 418 197 c 0,54,55
 469 236 469 236 469 308 c 256,56,57
 469 380 469 380 417 418 c 0,58,59
 364 456 364 456 281 456 c 0,0,1
225 230 m 1,60,61
 225 269 225 269 225 384 c 1,62,63
 240 384 240 384 284 384 c 0,64,65
 330 384 330 384 357 366 c 0,66,67
 385 347 385 347 385 308 c 256,68,69
 385 269 385 269 357 250 c 0,70,71
 330 230 330 230 284 230 c 0,72,73
 264 230 264 230 225 230 c 1,60,61
EndSplineSet
Validated: 9
EndChar

StartChar: q
Encoding: 113 113 84
Width: 668
GlyphClass: 1
Flags: W
LayerCount: 2
Fore
SplineSet
578 230 m 0,0,1
 578 330 578 330 508 401 c 0,2,3
 439 471 439 471 334 471 c 0,4,5
 228 471 228 471 159 400 c 256,6,7
 90 329 90 329 90 230 c 0,8,9
 90 140 90 140 147 72 c 0,10,11
 205 5 205 5 296 -7 c 1,12,13
 296 -19 296 -19 296 -44 c 0,14,15
 296 -68 296 -68 290 -75 c 0,16,17
 283 -81 283 -81 266 -83 c 0,18,19
 264 -83 264 -83 260 -83 c 0,20,21
 259 -87 259 -87 257 -99 c 1,22,23
 259 -99 259 -99 263 -99 c 0,24,25
 273 -99 273 -99 284 -99 c 0,26,27
 294 -98 294 -98 302 -98 c 0,28,29
 324 -98 324 -98 367 -98 c 0,30,31
 374 -98 374 -98 385 -99 c 0,32,33
 396 -99 396 -99 406 -99 c 0,34,35
 408 -99 408 -99 412 -99 c 1,36,37
 411 -95 411 -95 408 -83 c 0,38,39
 406 -83 406 -83 402 -83 c 0,40,41
 385 -81 385 -81 378 -74 c 0,42,43
 372 -67 372 -67 372 -44 c 0,44,45
 372 -32 372 -32 372 -7 c 1,46,47
 462 6 462 6 520 73 c 256,48,49
 578 140 578 140 578 230 c 0,0,1
170 230 m 0,50,51
 170 298 170 298 216 345 c 0,52,53
 262 391 262 391 334 391 c 256,54,55
 406 391 406 391 452 345 c 256,56,57
 498 299 498 299 498 230 c 0,58,59
 498 171 498 171 463 128 c 0,60,61
 429 84 429 84 372 72 c 1,62,63
 372 97 372 97 372 148 c 0,64,65
 372 172 372 172 379 179 c 256,66,67
 386 186 386 186 402 188 c 0,68,69
 404 188 404 188 408 188 c 0,70,71
 409 193 409 193 412 205 c 1,72,73
 410 205 410 205 406 205 c 0,74,75
 396 205 396 205 385 204 c 0,76,77
 374 204 374 204 367 204 c 0,78,79
 345 204 345 204 302 204 c 0,80,81
 294 204 294 204 284 204 c 0,82,83
 273 205 273 205 263 205 c 0,84,85
 261 205 261 205 257 205 c 1,86,87
 258 201 258 201 260 188 c 0,88,89
 262 188 262 188 266 188 c 0,90,91
 283 186 283 186 290 178 c 0,92,93
 296 171 296 171 296 148 c 0,94,95
 296 123 296 123 296 72 c 1,96,97
 239 84 239 84 205 128 c 0,98,99
 170 171 170 171 170 230 c 0,50,51
EndSplineSet
Validated: 9
EndChar

StartChar: r
Encoding: 114 114 85
Width: 588
GlyphClass: 1
Flags: W
LayerCount: 2
Fore
SplineSet
564 12 m 0,0,1
 551 12 551 12 539 20 c 0,2,3
 527 29 527 29 505 50 c 0,4,5
 457 97 457 97 360 191 c 1,6,7
 400 208 400 208 425 239 c 0,8,9
 450 271 450 271 450 314 c 0,10,11
 450 378 450 378 399 416 c 0,12,13
 349 455 349 455 276 455 c 0,14,15
 231 455 231 455 139 455 c 0,16,17
 132 455 132 455 120 455 c 0,18,19
 109 456 109 456 99 456 c 0,20,21
 97 456 97 456 92 456 c 1,22,23
 93 452 93 452 96 439 c 0,24,25
 98 439 98 439 101 439 c 0,26,27
 119 437 119 437 127 431 c 0,28,29
 134 424 134 424 134 401 c 0,30,31
 134 285 134 285 134 53 c 0,32,33
 134 29 134 29 126 23 c 256,34,35
 118 17 118 17 101 14 c 0,36,37
 100 14 100 14 96 14 c 0,38,39
 95 10 95 10 92 -2 c 1,40,41
 94 -2 94 -2 99 -2 c 0,42,43
 109 -2 109 -2 120 -1 c 0,44,45
 132 0 132 0 139 0 c 0,46,47
 165 0 165 0 216 0 c 0,48,49
 225 0 225 0 236 -1 c 256,50,51
 247 -2 247 -2 257 -2 c 0,52,53
 259 -2 259 -2 263 -2 c 1,54,55
 262 2 262 2 259 14 c 0,56,57
 258 14 258 14 253 14 c 0,58,59
 235 17 235 17 229 24 c 0,60,61
 222 31 222 31 222 53 c 0,62,63
 222 94 222 94 222 176 c 1,64,65
 234 176 234 176 271 176 c 1,66,67
 316 132 316 132 449 -2 c 1,68,69
 461 -1 461 -1 473 -1 c 0,70,71
 485 0 485 0 506 0 c 0,72,73
 518 0 518 0 540 -1 c 256,74,75
 562 -2 562 -2 573 -2 c 1,76,77
 572 3 572 3 568 12 c 0,78,79
 567 12 567 12 564 12 c 0,0,1
279 393 m 0,80,81
 316 393 316 393 339 371 c 0,82,83
 361 348 361 348 361 314 c 256,84,85
 361 280 361 280 339 258 c 0,86,87
 316 236 316 236 279 236 c 0,88,89
 260 236 260 236 222 236 c 1,90,91
 222 275 222 275 222 393 c 1,92,93
 236 393 236 393 279 393 c 0,80,81
EndSplineSet
Validated: 9
EndChar

StartChar: s
Encoding: 115 115 86
Width: 459
GlyphClass: 1
Flags: W
LayerCount: 2
Fore
SplineSet
232 -10 m 0,0,1
 291 -10 291 -10 336 23 c 0,2,3
 381 57 381 57 381 122 c 0,4,5
 381 166 381 166 355 200 c 0,6,7
 328 234 328 234 275 264 c 0,8,9
 263 271 263 271 238 286 c 0,10,11
 218 297 218 297 202 312 c 0,12,13
 186 326 186 326 186 347 c 0,14,15
 186 367 186 367 203 379 c 256,16,17
 220 391 220 391 243 391 c 256,18,19
 266 391 266 391 280 380 c 0,20,21
 295 368 295 368 295 351 c 0,22,23
 295 344 295 344 291 338 c 0,24,25
 288 332 288 332 283 328 c 1,26,27
 284 323 284 323 287 313 c 1,28,29
 310 325 310 325 378 360 c 1,30,31
 366 391 366 391 334 427 c 256,32,33
 302 463 302 463 239 463 c 0,34,35
 182 463 182 463 142 429 c 256,36,37
 102 395 102 395 102 343 c 0,38,39
 102 302 102 302 128 271 c 0,40,41
 154 239 154 239 199 214 c 0,42,43
 211 207 211 207 237 193 c 0,44,45
 264 177 264 177 281 161 c 0,46,47
 297 145 297 145 297 120 c 0,48,49
 297 89 297 89 277 75 c 256,50,51
 257 61 257 61 233 61 c 0,52,53
 206 61 206 61 188 75 c 0,54,55
 171 88 171 88 171 106 c 0,56,57
 171 116 171 116 174 123 c 0,58,59
 178 130 178 130 183 134 c 1,60,61
 182 139 182 139 179 148 c 1,62,63
 153 136 153 136 74 97 c 1,64,65
 87 61 87 61 124 25 c 0,66,67
 162 -10 162 -10 232 -10 c 0,0,1
EndSplineSet
Validated: 9
EndChar

StartChar: t
Encoding: 116 116 87
Width: 582
GlyphClass: 1
Flags: W
LayerCount: 2
Fore
SplineSet
541 499 m 1,0,1
 536 497 536 497 523 494 c 0,2,3
 523 492 523 492 523 487 c 0,4,5
 522 465 522 465 511 460 c 256,6,7
 500 455 500 455 479 455 c 0,8,9
 353 455 353 455 101 455 c 0,10,11
 78 455 78 455 69 461 c 256,12,13
 60 467 60 467 57 487 c 0,14,15
 57 489 57 489 57 494 c 1,16,17
 53 495 53 495 41 499 c 1,18,19
 41 497 41 497 41 492 c 0,20,21
 41 481 41 481 42 469 c 256,22,23
 43 457 43 457 43 450 c 0,24,25
 43 428 43 428 43 385 c 0,26,27
 43 377 43 377 42 365 c 256,28,29
 41 353 41 353 41 342 c 0,30,31
 41 340 41 340 41 336 c 1,32,33
 45 337 45 337 57 340 c 0,34,35
 57 342 57 342 57 346 c 0,36,37
 60 365 60 365 68 372 c 256,38,39
 76 379 76 379 101 379 c 0,40,41
 150 379 150 379 246 379 c 1,42,43
 246 298 246 298 246 57 c 0,44,45
 246 32 246 32 238 24 c 0,46,47
 230 17 230 17 211 14 c 0,48,49
 209 14 209 14 205 14 c 0,50,51
 204 10 204 10 201 -2 c 1,52,53
 202 -2 202 -2 208 -2 c 0,54,55
 219 -2 219 -2 231 -1 c 0,56,57
 242 0 242 0 251 0 c 0,58,59
 278 0 278 0 331 0 c 0,60,61
 338 0 338 0 351 -1 c 0,62,63
 363 -2 363 -2 374 -2 c 0,64,65
 376 -2 376 -2 381 -2 c 1,66,67
 380 2 380 2 376 14 c 0,68,69
 374 14 374 14 370 14 c 0,70,71
 351 17 351 17 344 24 c 0,72,73
 336 32 336 32 336 57 c 0,74,75
 336 165 336 165 336 379 c 1,76,77
 372 379 372 379 479 379 c 0,78,79
 505 379 505 379 514 372 c 0,80,81
 522 365 522 365 523 346 c 0,82,83
 523 344 523 344 523 340 c 0,84,85
 528 339 528 339 541 336 c 1,86,87
 541 337 541 337 541 342 c 0,88,89
 541 353 541 353 540 365 c 256,90,91
 539 377 539 377 539 385 c 0,92,93
 539 407 539 407 539 450 c 0,94,95
 539 457 539 457 540 469 c 256,96,97
 541 481 541 481 541 492 c 0,98,99
 541 494 541 494 541 499 c 1,0,1
EndSplineSet
Validated: 9
EndChar

StartChar: u
Encoding: 117 117 88
Width: 672
GlyphClass: 1
Flags: W
LayerCount: 2
Fore
SplineSet
336 -10 m 256,0,1
 436 -10 436 -10 502 60 c 0,2,3
 567 130 567 130 567 229 c 0,4,5
 567 287 567 287 567 401 c 0,6,7
 567 422 567 422 573 430 c 0,8,9
 579 437 579 437 597 439 c 0,10,11
 599 439 599 439 602 439 c 0,12,13
 603 443 603 443 606 456 c 1,14,15
 605 456 605 456 600 456 c 0,16,17
 591 456 591 456 580 455 c 0,18,19
 570 455 570 455 563 455 c 0,20,21
 536 455 536 455 481 455 c 0,22,23
 474 455 474 455 464 455 c 0,24,25
 454 456 454 456 444 456 c 0,26,27
 442 456 442 456 438 456 c 1,28,29
 439 452 439 452 442 439 c 0,30,31
 444 439 444 439 447 439 c 0,32,33
 464 437 464 437 470 431 c 0,34,35
 477 424 477 424 477 401 c 0,36,37
 477 344 477 344 477 230 c 0,38,39
 477 163 477 163 441 120 c 0,40,41
 405 78 405 78 336 78 c 256,42,43
 267 78 267 78 231 120 c 0,44,45
 195 163 195 163 195 230 c 0,46,47
 195 287 195 287 195 401 c 0,48,49
 195 424 195 424 201 431 c 0,50,51
 208 437 208 437 224 439 c 0,52,53
 226 439 226 439 229 439 c 0,54,55
 230 443 230 443 233 456 c 1,56,57
 232 456 232 456 226 456 c 0,58,59
 218 456 218 456 207 455 c 0,60,61
 196 455 196 455 189 455 c 0,62,63
 162 455 162 455 109 455 c 0,64,65
 102 455 102 455 91 455 c 0,66,67
 81 456 81 456 72 456 c 0,68,69
 70 456 70 456 66 456 c 1,70,71
 67 452 67 452 70 439 c 0,72,73
 71 439 71 439 75 439 c 0,74,75
 92 437 92 437 98 430 c 256,76,77
 104 423 104 423 104 401 c 0,78,79
 104 344 104 344 104 229 c 0,80,81
 104 130 104 130 170 60 c 256,82,83
 236 -10 236 -10 336 -10 c 256,0,1
EndSplineSet
Validated: 9
EndChar

StartChar: v
Encoding: 118 118 89
Width: 586
GlyphClass: 1
Flags: W
LayerCount: 2
Fore
SplineSet
552 457 m 0,0,1
 541 457 541 457 529 456 c 256,2,3
 517 455 517 455 509 455 c 0,4,5
 485 455 485 455 436 455 c 0,6,7
 429 455 429 455 417 456 c 256,8,9
 405 457 405 457 394 457 c 0,10,11
 392 457 392 457 386 457 c 1,12,13
 388 453 388 453 392 440 c 0,14,15
 393 440 393 440 397 440 c 0,16,17
 416 438 416 438 421 429 c 0,18,19
 425 419 425 419 415 396 c 0,20,21
 375 313 375 313 295 147 c 1,22,23
 265 210 265 210 174 396 c 0,24,25
 164 416 164 416 169 427 c 256,26,27
 174 438 174 438 191 440 c 0,28,29
 194 440 194 440 199 440 c 1,30,31
 200 444 200 444 203 457 c 1,32,33
 201 457 201 457 195 457 c 0,34,35
 185 457 185 457 172 456 c 0,36,37
 160 455 160 455 153 455 c 0,38,39
 127 455 127 455 77 455 c 0,40,41
 69 455 69 455 57 456 c 0,42,43
 46 457 46 457 35 457 c 0,44,45
 32 457 32 457 27 457 c 1,46,47
 28 453 28 453 32 440 c 0,48,49
 33 440 33 440 38 440 c 0,50,51
 56 438 56 438 65 430 c 0,52,53
 73 422 73 422 84 399 c 0,54,55
 154 257 154 257 293 -27 c 1,56,57
 345 80 345 80 502 399 c 0,58,59
 513 422 513 422 521 430 c 0,60,61
 530 438 530 438 548 440 c 0,62,63
 550 440 550 440 554 440 c 0,64,65
 555 444 555 444 559 457 c 1,66,67
 557 457 557 457 552 457 c 0,0,1
EndSplineSet
Validated: 41
EndChar

StartChar: w
Encoding: 119 119 90
Width: 813
GlyphClass: 1
Flags: W
LayerCount: 2
Fore
SplineSet
791 457 m 0,0,1
 781 457 781 457 770 456 c 256,2,3
 759 455 759 455 752 455 c 0,4,5
 727 455 727 455 677 455 c 0,6,7
 671 455 671 455 660 456 c 256,8,9
 649 457 649 457 638 457 c 0,10,11
 636 457 636 457 631 457 c 1,12,13
 632 453 632 453 636 440 c 0,14,15
 637 440 637 440 642 440 c 0,16,17
 657 439 657 439 662 431 c 0,18,19
 666 423 666 423 656 403 c 0,20,21
 610 315 610 315 518 137 c 1,22,23
 502 169 502 169 452 265 c 1,24,25
 471 300 471 300 529 406 c 0,26,27
 540 425 540 425 548 432 c 256,28,29
 556 439 556 439 572 440 c 0,30,31
 574 440 574 440 578 440 c 0,32,33
 579 444 579 444 583 457 c 1,34,35
 581 457 581 457 574 457 c 0,36,37
 565 457 565 457 554 456 c 256,38,39
 543 455 543 455 536 455 c 0,40,41
 512 455 512 455 466 455 c 0,42,43
 458 455 458 455 447 456 c 256,44,45
 436 457 436 457 427 457 c 0,46,47
 425 457 425 457 420 457 c 1,48,49
 421 453 421 453 424 440 c 0,50,51
 426 440 426 440 431 440 c 0,52,53
 446 439 446 439 452 431 c 0,54,55
 457 423 457 423 445 403 c 0,56,57
 433 380 433 380 408 334 c 1,58,59
 398 351 398 351 369 403 c 0,60,61
 359 421 359 421 364 430 c 0,62,63
 369 438 369 438 385 440 c 0,64,65
 387 440 387 440 391 440 c 0,66,67
 392 444 392 444 395 457 c 1,68,69
 393 457 393 457 388 457 c 0,70,71
 378 457 378 457 367 456 c 256,72,73
 356 455 356 455 349 455 c 0,74,75
 325 455 325 455 278 455 c 0,76,77
 270 455 270 455 259 456 c 256,78,79
 248 457 248 457 238 457 c 0,80,81
 235 457 235 457 230 457 c 1,82,83
 232 453 232 453 237 440 c 0,84,85
 238 440 238 440 242 440 c 0,86,87
 259 439 259 439 267 432 c 0,88,89
 274 425 274 425 285 406 c 0,90,91
 311 359 311 359 362 265 c 1,92,93
 346 233 346 233 295 135 c 1,94,95
 260 202 260 202 156 403 c 0,96,97
 147 419 147 419 150 428 c 256,98,99
 153 437 153 437 172 440 c 0,100,101
 174 440 174 440 178 440 c 0,102,103
 179 444 179 444 182 457 c 1,104,105
 180 457 180 457 174 457 c 0,106,107
 165 457 165 457 154 456 c 256,108,109
 143 455 143 455 135 455 c 0,110,111
 111 455 111 455 61 455 c 0,112,113
 55 455 55 455 43 456 c 256,114,115
 31 457 31 457 22 457 c 0,116,117
 19 457 19 457 14 457 c 1,118,119
 15 453 15 453 18 440 c 0,120,121
 20 440 20 440 26 440 c 0,122,123
 42 439 42 439 50 432 c 0,124,125
 59 425 59 425 69 406 c 0,126,127
 144 262 144 262 295 -24 c 1,128,129
 323 30 323 30 407 189 c 1,130,131
 434 136 434 136 518 -24 c 1,132,133
 575 84 575 84 744 406 c 0,134,135
 755 426 755 426 764 432 c 256,136,137
 773 438 773 438 787 440 c 0,138,139
 789 440 789 440 793 440 c 0,140,141
 794 444 794 444 799 457 c 1,142,143
 797 457 797 457 791 457 c 0,0,1
EndSplineSet
Validated: 9
EndChar

StartChar: x
Encoding: 120 120 91
Width: 633
GlyphClass: 1
Flags: W
LayerCount: 2
Fore
SplineSet
551 74 m 0,0,1
 539 65 539 65 531 64 c 0,2,3
 522 63 522 63 507 80 c 0,4,5
 462 127 462 127 373 222 c 1,6,7
 406 257 406 257 505 362 c 0,8,9
 518 376 518 376 526 378 c 256,10,11
 534 380 534 380 549 369 c 0,12,13
 551 367 551 367 555 364 c 0,14,15
 558 366 558 366 567 372 c 1,16,17
 566 373 566 373 561 378 c 0,18,19
 553 386 553 386 547 391 c 0,20,21
 540 397 540 397 535 402 c 0,22,23
 518 419 518 419 486 454 c 0,24,25
 483 458 483 458 476 465 c 0,26,27
 470 472 470 472 463 479 c 0,28,29
 461 481 461 481 458 484 c 0,30,31
 455 482 455 482 449 473 c 0,32,33
 450 472 450 472 454 467 c 0,34,35
 463 455 463 455 463 446 c 0,36,37
 464 437 464 437 449 421 c 0,38,39
 404 374 404 374 315 280 c 1,40,41
 282 315 282 315 181 421 c 0,42,43
 167 435 167 435 167 445 c 0,44,45
 166 454 166 454 176 466 c 0,46,47
 177 467 177 467 180 470 c 0,48,49
 178 473 178 473 171 483 c 1,50,51
 170 482 170 482 167 479 c 0,52,53
 162 474 162 474 155 466 c 256,54,55
 148 458 148 458 143 454 c 0,56,57
 126 436 126 436 91 400 c 0,58,59
 85 394 85 394 67 376 c 0,60,61
 65 375 65 375 61 371 c 1,62,63
 64 368 64 368 73 361 c 1,64,65
 74 363 74 363 79 367 c 0,66,67
 92 377 92 377 100 376 c 256,68,69
 108 375 108 375 123 360 c 0,70,71
 168 313 168 313 258 219 c 1,72,73
 225 184 225 184 125 78 c 0,74,75
 112 64 112 64 103 62 c 0,76,77
 95 60 95 60 81 72 c 0,78,79
 80 73 80 73 77 76 c 1,80,81
 73 74 73 74 63 69 c 1,82,83
 65 67 65 67 68 63 c 0,84,85
 73 57 73 57 81 50 c 0,86,87
 89 44 89 44 93 39 c 0,88,89
 110 22 110 22 143 -13 c 0,90,91
 146 -16 146 -16 155 -25 c 0,92,93
 163 -34 163 -34 167 -39 c 0,94,95
 169 -42 169 -42 173 -47 c 1,96,97
 175 -44 175 -44 182 -36 c 0,98,99
 180 -34 180 -34 175 -27 c 0,100,101
 163 -10 163 -10 167 -1 c 0,102,103
 170 8 170 8 181 19 c 0,104,105
 226 67 226 67 314 161 c 1,106,107
 348 125 348 125 449 19 c 0,108,109
 461 7 461 7 463 -2 c 256,110,111
 465 -11 465 -11 454 -27 c 0,112,113
 451 -30 451 -30 445 -36 c 1,114,115
 448 -39 448 -39 456 -47 c 1,116,117
 457 -45 457 -45 463 -39 c 0,118,119
 468 -34 468 -34 473 -28 c 0,120,121
 477 -23 477 -23 486 -13 c 0,122,123
 503 5 503 5 536 41 c 0,124,125
 540 46 540 46 548 52 c 0,126,127
 557 58 557 58 564 66 c 0,128,129
 567 68 567 68 571 73 c 0,130,131
 569 75 569 75 560 82 c 0,132,133
 558 80 558 80 551 74 c 0,0,1
EndSplineSet
Validated: 9
EndChar

StartChar: y
Encoding: 121 121 92
Width: 595
GlyphClass: 1
Flags: W
LayerCount: 2
Fore
SplineSet
550 374 m 0,0,1
 543 381 543 381 535 388 c 0,2,3
 526 395 526 395 520 401 c 0,4,5
 503 418 503 418 470 451 c 0,6,7
 465 456 465 456 457 465 c 0,8,9
 449 473 449 473 442 480 c 0,10,11
 441 482 441 482 437 485 c 1,12,13
 435 482 435 482 429 471 c 0,14,15
 430 470 430 470 432 466 c 0,16,17
 444 452 444 452 443 442 c 0,18,19
 443 432 443 432 425 413 c 0,20,21
 382 366 382 366 297 272 c 1,22,23
 265 308 265 308 169 414 c 0,24,25
 154 431 154 431 152 440 c 0,26,27
 150 450 150 450 163 466 c 0,28,29
 164 468 164 468 167 471 c 1,30,31
 165 475 165 475 159 485 c 0,32,33
 157 484 157 484 154 480 c 0,34,35
 146 473 146 473 125 451 c 0,36,37
 112 438 112 438 75 401 c 0,38,39
 69 395 69 395 60 388 c 0,40,41
 52 381 52 381 45 374 c 0,42,43
 43 372 43 372 39 368 c 1,44,45
 43 366 43 366 55 359 c 0,46,47
 56 360 56 360 59 364 c 0,48,49
 73 375 73 375 83 374 c 0,50,51
 94 373 94 373 111 355 c 0,52,53
 158 304 158 304 252 202 c 1,54,55
 252 165 252 165 252 56 c 0,56,57
 252 32 252 32 245 24 c 0,58,59
 239 17 239 17 221 14 c 0,60,61
 219 14 219 14 215 14 c 0,62,63
 214 10 214 10 210 -2 c 1,64,65
 212 -2 212 -2 217 -2 c 0,66,67
 228 -2 228 -2 240 -1 c 0,68,69
 251 0 251 0 259 0 c 0,70,71
 285 0 285 0 337 0 c 0,72,73
 345 0 345 0 356 -1 c 0,74,75
 368 -2 368 -2 378 -2 c 0,76,77
 380 -2 380 -2 385 -2 c 1,78,79
 384 2 384 2 381 14 c 0,80,81
 379 14 379 14 375 14 c 0,82,83
 357 17 357 17 350 24 c 0,84,85
 342 31 342 31 342 56 c 0,86,87
 342 105 342 105 342 202 c 1,88,89
 377 240 377 240 483 355 c 0,90,91
 500 373 500 373 511 374 c 256,92,93
 522 375 522 375 537 364 c 0,94,95
 538 362 538 362 541 359 c 1,96,97
 545 361 545 361 556 368 c 1,98,99
 554 369 554 369 550 374 c 0,0,1
EndSplineSet
Validated: 9
EndChar

StartChar: z
Encoding: 122 122 93
Width: 532
GlyphClass: 1
Flags: W
LayerCount: 2
Fore
SplineSet
216 68 m 1,0,1
 278 164 278 164 465 455 c 1,2,3
 384 455 384 455 141 455 c 0,4,5
 116 455 116 455 109 462 c 0,6,7
 103 470 103 470 101 489 c 1,8,9
 96 491 96 491 85 494 c 1,10,11
 85 492 85 492 85 487 c 0,12,13
 85 478 85 478 86 467 c 0,14,15
 87 457 87 457 87 451 c 0,16,17
 87 430 87 430 87 389 c 0,18,19
 87 382 87 382 86 372 c 0,20,21
 85 361 85 361 85 352 c 0,22,23
 85 350 85 350 85 346 c 1,24,25
 89 347 89 347 101 349 c 1,26,27
 103 371 103 371 110 379 c 256,28,29
 117 387 117 387 141 387 c 0,30,31
 204 387 204 387 331 387 c 1,32,33
 269 290 269 290 82 0 c 1,34,35
 163 0 163 0 404 0 c 0,36,37
 431 0 431 0 438 -9 c 0,38,39
 444 -18 444 -18 444 -36 c 1,40,41
 450 -37 450 -37 461 -39 c 1,42,43
 461 -37 461 -37 461 -33 c 0,44,45
 461 -24 461 -24 460 -13 c 0,46,47
 460 -2 460 -2 460 4 c 0,48,49
 460 25 460 25 460 66 c 0,50,51
 460 72 460 72 460 83 c 0,52,53
 461 93 461 93 461 102 c 0,54,55
 461 104 461 104 461 109 c 1,56,57
 457 108 457 108 444 105 c 1,58,59
 444 87 444 87 438 77 c 0,60,61
 431 68 431 68 404 68 c 0,62,63
 342 68 342 68 216 68 c 1,0,1
EndSplineSet
Validated: 9
EndChar

StartChar: braceleft
Encoding: 123 123 94
Width: 507
GlyphClass: 1
Flags: W
LayerCount: 2
Fore
SplineSet
399 -77 m 1,0,1
 371 -77 371 -77 288 -77 c 1,2,3
 288 -10 288 -10 288 191 c 1,4,5
 261 218 261 218 181 298 c 1,6,7
 208 325 208 325 288 404 c 1,8,9
 288 470 288 470 288 667 c 1,10,11
 316 667 316 667 399 667 c 1,12,13
 399 675 399 675 399 699 c 1,14,15
 353 699 353 699 212 699 c 1,16,17
 212 628 212 628 212 413 c 1,18,19
 183 384 183 384 97 298 c 1,20,21
 126 269 126 269 212 183 c 1,22,23
 212 110 212 110 212 -111 c 1,24,25
 259 -111 259 -111 399 -111 c 1,26,27
 399 -102 399 -102 399 -77 c 1,0,1
EndSplineSet
Validated: 9
EndChar

StartChar: bar
Encoding: 124 124 95
Width: 315
GlyphClass: 1
Flags: W
LayerCount: 2
Fore
SplineSet
178 715 m 1,0,1
 173 720 173 720 156 737 c 1,2,3
 150 732 150 732 133 715 c 1,4,5
 133 489 133 489 133 -186 c 1,6,7
 139 -192 139 -192 156 -210 c 1,8,9
 161 -204 161 -204 178 -186 c 1,10,11
 178 39 178 39 178 715 c 1,0,1
EndSplineSet
Validated: 9
EndChar

StartChar: braceright
Encoding: 125 125 96
Width: 507
GlyphClass: 1
Flags: W
LayerCount: 2
Fore
SplineSet
295 413 m 1,0,1
 295 484 295 484 295 699 c 1,2,3
 248 699 248 699 108 699 c 1,4,5
 108 691 108 691 108 667 c 1,6,7
 135 667 135 667 219 667 c 1,8,9
 219 601 219 601 219 404 c 1,10,11
 246 378 246 378 326 298 c 1,12,13
 299 271 299 271 219 191 c 1,14,15
 219 124 219 124 219 -77 c 1,16,17
 191 -77 191 -77 108 -77 c 1,18,19
 108 -85 108 -85 108 -111 c 1,20,21
 154 -111 154 -111 295 -111 c 1,22,23
 295 -37 295 -37 295 183 c 1,24,25
 324 212 324 212 410 298 c 1,26,27
 381 327 381 327 295 413 c 1,0,1
EndSplineSet
Validated: 9
EndChar

StartChar: asciitilde
Encoding: 126 126 97
Width: 460
GlyphClass: 1
Flags: W
LayerCount: 2
Fore
SplineSet
287 254 m 0,0,1
 304 254 304 254 318 260 c 0,2,3
 331 266 331 266 341 276 c 0,4,5
 359 293 359 293 367 316 c 0,6,7
 374 338 374 338 376 348 c 1,8,9
 362 348 362 348 336 348 c 1,10,11
 335 339 335 339 324 323 c 256,12,13
 313 307 313 307 300 307 c 0,14,15
 278 307 278 307 246 328 c 0,16,17
 215 348 215 348 183 348 c 0,18,19
 165 348 165 348 152 342 c 0,20,21
 138 336 138 336 128 327 c 0,22,23
 110 309 110 309 102 287 c 0,24,25
 95 264 95 264 93 254 c 1,26,27
 106 254 106 254 133 254 c 1,28,29
 134 263 134 263 144 279 c 0,30,31
 154 294 154 294 169 294 c 0,32,33
 191 294 191 294 223 274 c 0,34,35
 254 254 254 254 287 254 c 0,0,1
EndSplineSet
Validated: 9
EndChar

StartChar: exclamdown
Encoding: 161 161 99
Width: 419
GlyphClass: 1
Flags: W
LayerCount: 2
Fore
SplineSet
230 626 m 1,0,1
 211 606 211 606 152 548 c 1,2,3
 171 528 171 528 230 469 c 1,4,5
 250 489 250 489 308 548 c 1,6,7
 289 567 289 567 230 626 c 1,0,1
247 403 m 0,8,9
 243 408 243 408 230 420 c 1,10,11
 226 416 226 416 214 403 c 1,12,13
 200 312 200 312 160 38 c 1,14,15
 177 20 177 20 230 -33 c 1,16,17
 248 -15 248 -15 301 38 c 1,18,19
 287 129 287 129 247 403 c 0,8,9
EndSplineSet
Validated: 9
EndChar

StartChar: cent
Encoding: 162 162 100
Width: 341
GlyphClass: 1
Flags: W
LayerCount: 2
Fore
SplineSet
140 -35 m 1,0,1
 148 -8 148 -8 171 74 c 1,2,3
 182 71 182 71 193 71 c 0,4,5
 205 70 205 70 216 70 c 0,6,7
 251 70 251 70 281 78 c 0,8,9
 312 86 312 86 341 105 c 1,10,11
 341 141 341 141 341 212 c 1,12,13
 337 212 337 212 324 212 c 1,14,15
 318 180 318 180 291 166 c 0,16,17
 264 151 264 151 226 151 c 0,18,19
 218 151 218 151 210 151 c 0,20,21
 201 152 201 152 194 155 c 1,22,23
 218 243 218 243 268 421 c 1,24,25
 290 415 290 415 305 400 c 0,26,27
 320 386 320 386 324 365 c 1,28,29
 329 365 329 365 341 365 c 1,30,31
 341 391 341 391 341 471 c 1,32,33
 328 479 328 479 315 485 c 0,34,35
 303 491 303 491 289 496 c 1,36,37
 299 530 299 530 318 598 c 1,38,39
 304 598 304 598 262 598 c 1,40,41
 256 575 256 575 237 506 c 1,42,43
 231 507 231 507 226 507 c 256,44,45
 221 507 221 507 216 507 c 0,46,47
 126 507 126 507 63 443 c 256,48,49
 0 379 0 379 0 288 c 0,50,51
 0 223 0 223 33 171 c 256,52,53
 66 119 66 119 120 92 c 1,54,55
 108 50 108 50 84 -35 c 1,56,57
 98 -35 98 -35 140 -35 c 1,0,1
91 288 m 0,58,59
 91 342 91 342 126 381 c 0,60,61
 162 420 162 420 213 425 c 1,62,63
 190 343 190 343 144 179 c 1,64,65
 120 198 120 198 105 227 c 0,66,67
 91 255 91 255 91 288 c 0,58,59
EndSplineSet
Validated: 9
EndChar

StartChar: sterling
Encoding: 163 163 101
Width: 635
GlyphClass: 1
Flags: W
LayerCount: 2
Fore
SplineSet
300 427 m 0,0,1
 300 470 300 470 330 499 c 0,2,3
 360 527 360 527 394 527 c 0,4,5
 448 527 448 527 477 496 c 0,6,7
 505 465 505 465 513 429 c 1,8,9
 520 429 520 429 532 429 c 1,10,11
 532 438 532 438 532 464 c 0,12,13
 532 479 532 479 531 491 c 0,14,15
 529 503 529 503 529 513 c 0,16,17
 529 529 529 529 529 561 c 1,18,19
 503 583 503 583 472 598 c 256,20,21
 441 613 441 613 391 613 c 0,22,23
 323 613 323 613 267 563 c 0,24,25
 212 512 212 512 212 427 c 0,26,27
 212 403 212 403 212 354 c 1,28,29
 185 355 185 355 178 364 c 0,30,31
 172 374 172 374 170 397 c 1,32,33
 164 399 164 399 153 402 c 1,34,35
 153 400 153 400 153 394 c 0,36,37
 153 382 153 382 154 370 c 0,38,39
 155 357 155 357 155 348 c 0,40,41
 155 324 155 324 155 276 c 0,42,43
 155 267 155 267 154 255 c 256,44,45
 153 243 153 243 153 230 c 0,46,47
 153 228 153 228 153 222 c 1,48,49
 157 223 157 223 170 227 c 1,50,51
 172 251 172 251 178 260 c 0,52,53
 185 269 185 269 212 270 c 1,54,55
 212 211 212 211 212 92 c 1,56,57
 180 92 180 92 172 103 c 0,58,59
 163 113 163 113 162 138 c 1,60,61
 156 140 156 140 144 143 c 1,62,63
 144 141 144 141 144 135 c 0,64,65
 144 123 144 123 145 109 c 256,66,67
 146 95 146 95 146 86 c 0,68,69
 146 59 146 59 146 6 c 0,70,71
 146 -3 146 -3 145 -17 c 256,72,73
 144 -31 144 -31 144 -43 c 0,74,75
 144 -46 144 -46 144 -51 c 1,76,77
 149 -50 149 -50 162 -46 c 1,78,79
 163 -21 163 -21 172 -10 c 0,80,81
 180 0 180 0 212 0 c 0,82,83
 301 0 301 0 479 0 c 0,84,85
 511 0 511 0 520 -10 c 0,86,87
 528 -21 528 -21 529 -46 c 1,88,89
 535 -48 535 -48 547 -51 c 1,90,91
 547 -49 547 -49 547 -43 c 0,92,93
 547 -31 547 -31 546 -17 c 256,94,95
 545 -3 545 -3 545 6 c 0,96,97
 545 33 545 33 545 86 c 0,98,99
 545 95 545 95 546 109 c 256,100,101
 547 123 547 123 547 135 c 0,102,103
 547 138 547 138 547 143 c 1,104,105
 542 142 542 142 529 138 c 1,106,107
 528 113 528 113 520 103 c 0,108,109
 511 92 511 92 479 92 c 0,110,111
 419 92 419 92 300 92 c 1,112,113
 300 137 300 137 300 270 c 1,114,115
 313 270 313 270 352 270 c 0,116,117
 385 270 385 270 393 262 c 0,118,119
 401 253 401 253 402 227 c 1,120,121
 408 226 408 226 420 222 c 1,122,123
 420 224 420 224 420 230 c 0,124,125
 420 243 420 243 419 255 c 256,126,127
 418 267 418 267 418 276 c 0,128,129
 418 300 418 300 418 348 c 0,130,131
 418 357 418 357 419 370 c 0,132,133
 420 382 420 382 420 394 c 0,134,135
 420 397 420 397 420 402 c 1,136,137
 415 401 415 401 402 397 c 1,138,139
 401 372 401 372 393 363 c 256,140,141
 385 354 385 354 352 354 c 0,142,143
 335 354 335 354 300 354 c 1,144,145
 300 372 300 372 300 427 c 0,0,1
EndSplineSet
Validated: 9
EndChar

StartChar: yen
Encoding: 165 165 102
Width: 811
GlyphClass: 1
Flags: W
LayerCount: 2
Fore
SplineSet
743 514 m 0,0,1
 735 522 735 522 725 531 c 0,2,3
 714 540 714 540 708 547 c 0,4,5
 689 566 689 566 651 604 c 0,6,7
 644 610 644 610 636 621 c 0,8,9
 627 632 627 632 617 640 c 0,10,11
 615 642 615 642 611 646 c 1,12,13
 609 642 609 642 603 630 c 1,14,15
 603 630 603 630 604 628 c 0,16,17
 606 626 606 626 607 625 c 0,18,19
 621 608 621 608 621 596 c 256,20,21
 621 584 621 584 599 562 c 0,22,23
 533 496 533 496 401 364 c 1,24,25
 351 413 351 413 202 562 c 0,26,27
 180 584 180 584 180 596 c 256,28,29
 180 608 180 608 194 625 c 0,30,31
 196 626 196 626 197 628 c 0,32,33
 199 630 199 630 199 630 c 1,34,35
 196 635 196 635 190 646 c 1,36,37
 189 645 189 645 184 640 c 0,38,39
 175 632 175 632 166 621 c 256,40,41
 157 610 157 610 151 604 c 0,42,43
 132 585 132 585 94 547 c 0,44,45
 87 540 87 540 77 531 c 256,46,47
 67 522 67 522 58 514 c 0,48,49
 56 512 56 512 51 507 c 1,50,51
 56 505 56 505 69 499 c 1,52,53
 69 499 69 499 70 500 c 0,54,55
 71 502 71 502 74 504 c 0,56,57
 91 517 91 517 103 517 c 0,58,59
 114 517 114 517 135 496 c 0,60,61
 204 427 204 427 341 291 c 1,62,63
 310 291 310 291 215 291 c 1,64,65
 215 274 215 274 215 224 c 1,66,67
 250 224 250 224 354 224 c 1,68,69
 354 211 354 211 354 173 c 1,70,71
 319 173 319 173 215 173 c 1,72,73
 215 156 215 156 215 106 c 1,74,75
 250 106 250 106 354 106 c 1,76,77
 354 96 354 96 354 66 c 256,78,79
 354 36 354 36 346 27 c 256,80,81
 338 18 338 18 316 15 c 0,82,83
 314 15 314 15 309 15 c 1,84,85
 308 11 308 11 303 -2 c 1,86,87
 305 -2 305 -2 312 -2 c 0,88,89
 325 -2 325 -2 338 -1 c 0,90,91
 352 0 352 0 361 0 c 0,92,93
 388 0 388 0 441 0 c 0,94,95
 451 0 451 0 464 -1 c 0,96,97
 478 -2 478 -2 490 -2 c 0,98,99
 493 -2 493 -2 499 -2 c 1,100,101
 497 2 497 2 494 15 c 0,102,103
 492 15 492 15 486 15 c 0,104,105
 465 18 465 18 456 27 c 256,106,107
 447 36 447 36 447 66 c 0,108,109
 447 79 447 79 447 106 c 1,110,111
 483 106 483 106 591 106 c 1,112,113
 591 123 591 123 591 173 c 1,114,115
 555 173 555 173 447 173 c 1,116,117
 447 186 447 186 447 224 c 1,118,119
 483 224 483 224 591 224 c 1,120,121
 591 241 591 241 591 291 c 1,122,123
 558 291 558 291 461 291 c 1,124,125
 512 342 512 342 666 496 c 0,126,127
 686 517 686 517 699 517 c 0,128,129
 711 517 711 517 728 504 c 0,130,131
 730 502 730 502 733 499 c 1,132,133
 737 501 737 501 750 507 c 1,134,135
 748 509 748 509 743 514 c 0,0,1
EndSplineSet
Validated: 9
EndChar

StartChar: brokenbar
Encoding: 166 166 103
Width: 242
GlyphClass: 1
Flags: W
LayerCount: 2
Fore
SplineSet
132 682 m 1,0,1
 125 682 125 682 105 682 c 1,2,3
 105 581 105 581 105 278 c 1,4,5
 112 278 112 278 132 278 c 1,6,7
 132 379 132 379 132 682 c 1,0,1
132 193 m 1,8,9
 125 193 125 193 105 193 c 1,10,11
 105 91 105 91 105 -213 c 1,12,13
 112 -213 112 -213 132 -213 c 1,14,15
 132 -112 132 -112 132 193 c 1,8,9
EndSplineSet
Validated: 9
EndChar

StartChar: section
Encoding: 167 167 104
Width: 604
GlyphClass: 1
Flags: W
LayerCount: 2
Fore
SplineSet
288 -66 m 0,0,1
 252 -66 252 -66 234 -48 c 256,2,3
 216 -30 216 -30 216 -12 c 0,4,5
 216 2 216 2 220 8 c 0,6,7
 225 15 225 15 231 19 c 1,8,9
 230 24 230 24 226 34 c 1,10,11
 201 22 201 22 126 -15 c 1,12,13
 133 -36 133 -36 149 -65 c 0,14,15
 166 -94 166 -94 198 -115 c 0,16,17
 215 -126 215 -126 237 -132 c 0,18,19
 260 -139 260 -139 289 -139 c 0,20,21
 360 -139 360 -139 407 -96 c 0,22,23
 455 -53 455 -53 455 11 c 0,24,25
 455 29 455 29 452 45 c 256,26,27
 449 61 449 61 441 75 c 1,28,29
 464 95 464 95 477 122 c 0,30,31
 490 150 490 150 490 184 c 0,32,33
 490 234 490 234 468 271 c 0,34,35
 445 308 445 308 395 336 c 0,36,37
 363 354 363 354 298 389 c 0,38,39
 260 410 260 410 247 427 c 256,40,41
 234 444 234 444 234 466 c 0,42,43
 234 495 234 495 255 517 c 0,44,45
 276 540 276 540 316 540 c 0,46,47
 350 540 350 540 368 523 c 256,48,49
 386 506 386 506 386 489 c 0,50,51
 386 476 386 476 382 469 c 256,52,53
 378 462 378 462 371 458 c 1,54,55
 372 453 372 453 376 444 c 1,56,57
 400 456 400 456 474 493 c 1,58,59
 468 513 468 513 451 541 c 0,60,61
 435 569 435 569 403 589 c 0,62,63
 386 600 386 600 364 607 c 0,64,65
 342 613 342 613 314 613 c 0,66,67
 242 613 242 613 195 569 c 0,68,69
 148 526 148 526 148 462 c 0,70,71
 148 443 148 443 151 427 c 256,72,73
 154 411 154 411 161 397 c 1,74,75
 138 377 138 377 126 350 c 256,76,77
 114 323 114 323 114 288 c 0,78,79
 114 238 114 238 136 201 c 256,80,81
 158 164 158 164 209 136 c 0,82,83
 236 122 236 122 289 92 c 0,84,85
 336 64 336 64 352 49 c 0,86,87
 369 34 369 34 369 6 c 256,88,89
 369 -22 369 -22 348 -44 c 256,90,91
 327 -66 327 -66 288 -66 c 0,0,1
216 340 m 1,92,93
 235 325 235 325 263 310 c 256,94,95
 291 295 291 295 317 281 c 0,96,97
 323 278 323 278 333 273 c 0,98,99
 369 253 369 253 387 233 c 0,100,101
 406 213 406 213 406 184 c 0,102,103
 406 170 406 170 401 157 c 256,104,105
 396 144 396 144 386 132 c 1,106,107
 366 148 366 148 343 161 c 0,108,109
 321 174 321 174 299 185 c 0,110,111
 258 206 258 206 227 228 c 0,112,113
 197 250 197 250 197 288 c 0,114,115
 197 302 197 302 202 316 c 256,116,117
 207 330 207 330 216 340 c 1,92,93
EndSplineSet
Validated: 9
EndChar

StartChar: dieresis
Encoding: 168 168 105
Width: 469
GlyphClass: 1
Flags: W
LayerCount: 2
Fore
SplineSet
148 797 m 1,0,1
 134 783 134 783 92 740 c 1,2,3
 106 726 106 726 148 684 c 1,4,5
 163 698 163 698 205 740 c 1,6,7
 191 754 191 754 148 797 c 1,0,1
321 797 m 1,8,9
 306 783 306 783 263 740 c 1,10,11
 278 726 278 726 321 684 c 1,12,13
 334 698 334 698 376 740 c 1,14,15
 362 754 362 754 321 797 c 1,8,9
EndSplineSet
Validated: 9
EndChar

StartChar: copyright
Encoding: 169 169 106
Width: 858
GlyphClass: 1
Flags: W
LayerCount: 2
Fore
SplineSet
743 299 m 256,0,1
 743 345 743 345 731 387 c 256,2,3
 719 429 719 429 696 465 c 0,4,5
 655 532 655 532 584 573 c 0,6,7
 514 613 514 613 429 613 c 0,8,9
 345 613 345 613 274 573 c 0,10,11
 204 532 204 532 162 465 c 0,12,13
 139 429 139 429 127 387 c 256,14,15
 115 345 115 345 115 299 c 0,16,17
 115 214 115 214 156 144 c 0,18,19
 197 73 197 73 264 32 c 0,20,21
 300 9 300 9 342 -3 c 256,22,23
 384 -15 384 -15 429 -15 c 0,24,25
 514 -15 514 -15 584 25 c 0,26,27
 655 66 655 66 696 133 c 0,28,29
 719 169 719 169 731 211 c 256,30,31
 743 253 743 253 743 299 c 256,0,1
694 299 m 256,32,33
 694 261 694 261 684 226 c 0,34,35
 673 190 673 190 654 160 c 0,36,37
 619 103 619 103 559 69 c 0,38,39
 499 34 499 34 429 34 c 0,40,41
 391 34 391 34 356 44 c 0,42,43
 321 55 321 55 290 74 c 0,44,45
 234 109 234 109 199 169 c 0,46,47
 164 228 164 228 164 299 c 0,48,49
 164 369 164 369 199 429 c 0,50,51
 234 488 234 488 290 523 c 0,52,53
 321 542 321 542 356 553 c 0,54,55
 391 563 391 563 429 563 c 0,56,57
 499 563 499 563 559 529 c 0,58,59
 618 494 618 494 654 437 c 0,60,61
 673 407 673 407 684 372 c 0,62,63
 694 337 694 337 694 299 c 256,32,33
331 298 m 256,64,65
 331 346 331 346 365 382 c 0,66,67
 399 417 399 417 447 417 c 0,68,69
 480 417 480 417 504 402 c 0,70,71
 529 387 529 387 531 360 c 1,72,73
 536 360 536 360 546 360 c 1,74,75
 546 382 546 382 546 449 c 1,76,77
 522 464 522 464 497 471 c 256,78,79
 472 478 472 478 443 478 c 0,80,81
 370 478 370 478 317 425 c 0,82,83
 265 372 265 372 265 298 c 0,84,85
 265 223 265 223 317 171 c 0,86,87
 370 118 370 118 443 118 c 0,88,89
 472 118 472 118 497 125 c 256,90,91
 522 132 522 132 546 147 c 1,92,93
 546 177 546 177 546 236 c 1,94,95
 542 236 542 236 531 236 c 1,96,97
 529 209 529 209 504 194 c 0,98,99
 480 179 480 179 447 179 c 0,100,101
 399 179 399 179 365 214 c 0,102,103
 331 250 331 250 331 298 c 256,64,65
EndSplineSet
Validated: 9
EndChar

StartChar: ordfeminine
Encoding: 170 170 107
Width: 564
GlyphClass: 1
Flags: W
LayerCount: 2
Fore
SplineSet
86 233 m 0,0,1
 79 220 79 220 74 214 c 0,2,3
 68 209 68 209 61 208 c 0,4,5
 56 208 56 208 50 209 c 0,6,7
 43 210 43 210 37 215 c 1,8,9
 33 211 33 211 26 202 c 0,10,11
 27 201 27 201 32 199 c 0,12,13
 44 193 44 193 80 176 c 0,14,15
 88 172 88 172 112 161 c 0,16,17
 123 155 123 155 158 137 c 0,18,19
 159 136 159 136 164 133 c 1,20,21
 165 137 165 137 167 151 c 1,22,23
 161 155 161 155 153 162 c 256,24,25
 145 169 145 169 145 176 c 0,26,27
 145 181 145 181 147 187 c 0,28,29
 150 193 150 193 153 202 c 0,30,31
 161 220 161 220 179 256 c 1,32,33
 230 256 230 256 382 256 c 1,34,35
 389 242 389 242 409 202 c 0,36,37
 412 193 412 193 414 187 c 256,38,39
 416 181 416 181 416 176 c 0,40,41
 416 169 416 169 408 162 c 256,42,43
 400 155 400 155 394 151 c 1,44,45
 395 145 395 145 397 133 c 1,46,47
 399 134 399 134 403 137 c 0,48,49
 415 143 415 143 450 161 c 0,50,51
 457 165 457 165 481 176 c 0,52,53
 493 182 493 182 529 199 c 0,54,55
 531 199 531 199 536 202 c 1,56,57
 533 205 533 205 524 215 c 1,58,59
 518 210 518 210 512 209 c 0,60,61
 505 208 505 208 500 208 c 0,62,63
 493 209 493 209 487 214 c 0,64,65
 482 220 482 220 475 233 c 0,66,67
 410 366 410 366 281 631 c 1,68,69
 232 531 232 531 86 233 c 0,0,1
354 324 m 1,70,71
 317 324 317 324 207 324 c 1,72,73
 225 364 225 364 281 485 c 1,74,75
 299 445 299 445 354 324 c 1,70,71
EndSplineSet
Validated: 9
EndChar

StartChar: guillemotleft
Encoding: 171 171 108
Width: 638
GlyphClass: 1
Flags: W
LayerCount: 2
Fore
SplineSet
233 181 m 0,0,1
 255 161 255 161 255 148 c 0,2,3
 255 136 255 136 242 119 c 0,4,5
 240 117 240 117 237 114 c 1,6,7
 239 110 239 110 245 99 c 1,8,9
 246 101 246 101 251 104 c 0,10,11
 260 114 260 114 269 124 c 0,12,13
 278 135 278 135 284 141 c 0,14,15
 297 154 297 154 323 180 c 1,16,17
 293 210 293 210 206 299 c 1,18,19
 235 329 235 329 323 418 c 1,20,21
 313 428 313 428 284 457 c 0,22,23
 278 463 278 463 269 474 c 0,24,25
 260 484 260 484 251 494 c 0,26,27
 249 495 249 495 245 499 c 1,28,29
 243 495 243 495 237 484 c 0,30,31
 238 483 238 483 242 479 c 0,32,33
 255 462 255 462 255 450 c 256,34,35
 255 438 255 438 233 417 c 0,36,37
 195 378 195 378 117 299 c 1,38,39
 146 270 146 270 233 181 c 0,0,1
530 224 m 1,40,41
 530 224 530 224 529 222 c 0,42,43
 527 220 527 220 525 218 c 0,44,45
 508 205 508 205 496 205 c 256,46,47
 484 205 484 205 463 226 c 0,48,49
 439 251 439 251 390 299 c 1,50,51
 408 317 408 317 463 373 c 0,52,53
 484 393 484 393 496 393 c 256,54,55
 508 393 508 393 525 381 c 0,56,57
 527 379 527 379 529 377 c 0,58,59
 530 375 530 375 530 375 c 1,60,61
 536 378 536 378 546 383 c 1,62,63
 544 385 544 385 539 389 c 0,64,65
 530 398 530 398 520 407 c 0,66,67
 509 416 509 416 503 422 c 0,68,69
 491 433 491 433 468 457 c 0,70,71
 462 463 462 463 453 474 c 0,72,73
 444 484 444 484 435 494 c 0,74,75
 433 495 433 495 429 499 c 1,76,77
 427 495 427 495 421 484 c 0,78,79
 422 483 422 483 426 479 c 0,80,81
 440 462 440 462 440 450 c 0,82,83
 439 438 439 438 418 417 c 0,84,85
 379 378 379 378 301 299 c 1,86,87
 330 270 330 270 418 182 c 0,88,89
 439 161 439 161 440 149 c 0,90,91
 440 137 440 137 426 120 c 0,92,93
 424 118 424 118 421 114 c 1,94,95
 423 110 423 110 429 99 c 1,96,97
 431 101 431 101 435 105 c 0,98,99
 444 114 444 114 453 125 c 0,100,101
 462 135 462 135 468 142 c 0,102,103
 480 154 480 154 503 176 c 0,104,105
 509 183 509 183 520 192 c 0,106,107
 530 201 530 201 539 210 c 0,108,109
 541 212 541 212 546 215 c 1,110,111
 542 217 542 217 530 224 c 1,40,41
EndSplineSet
Validated: 9
EndChar

StartChar: registered
Encoding: 174 174 109
Width: 624
GlyphClass: 1
Flags: W
LayerCount: 2
Fore
SplineSet
312 141 m 0,0,1
 375 141 375 141 426 171 c 0,2,3
 478 201 478 201 509 251 c 0,4,5
 526 277 526 277 535 308 c 256,6,7
 544 339 544 339 544 373 c 0,8,9
 544 470 544 470 476 537 c 0,10,11
 408 605 408 605 312 605 c 256,12,13
 216 605 216 605 149 537 c 0,14,15
 81 470 81 470 81 373 c 0,16,17
 81 339 81 339 90 308 c 256,18,19
 99 277 99 277 116 251 c 0,20,21
 146 201 146 201 198 171 c 256,22,23
 250 141 250 141 312 141 c 0,0,1
312 559 m 0,24,25
 389 559 389 559 444 504 c 256,26,27
 499 449 499 449 499 373 c 0,28,29
 499 344 499 344 490 317 c 256,30,31
 481 290 481 290 466 267 c 1,32,33
 460 270 460 270 453 274 c 0,34,35
 446 279 446 279 439 286 c 0,36,37
 414 311 414 311 362 362 c 1,38,39
 379 373 379 373 387 391 c 0,40,41
 396 408 396 408 396 427 c 0,42,43
 396 460 396 460 373 483 c 256,44,45
 350 506 350 506 314 505 c 0,46,47
 294 505 294 505 254 506 c 0,48,49
 249 506 249 506 232 507 c 0,50,51
 228 507 228 507 215 507 c 1,52,53
 217 501 217 501 224 484 c 0,54,55
 225 484 225 484 228 484 c 0,56,57
 234 484 234 484 237 480 c 0,58,59
 240 477 240 477 240 468 c 0,60,61
 240 407 240 407 240 285 c 0,62,63
 240 275 240 275 237 272 c 256,64,65
 234 269 234 269 228 268 c 0,66,67
 227 268 227 268 224 268 c 0,68,69
 222 263 222 263 215 247 c 1,70,71
 219 247 219 247 232 247 c 0,72,73
 238 247 238 247 254 248 c 0,74,75
 261 248 261 248 284 248 c 0,76,77
 289 248 289 248 304 247 c 0,78,79
 308 247 308 247 322 247 c 1,80,81
 319 252 319 252 313 268 c 0,82,83
 312 268 312 268 308 268 c 0,84,85
 302 269 302 269 300 272 c 0,86,87
 297 275 297 275 297 285 c 0,88,89
 297 307 297 307 297 352 c 1,90,91
 323 326 323 326 399 247 c 1,92,93
 406 247 406 247 426 248 c 0,94,95
 429 248 429 248 436 247 c 0,96,97
 442 247 442 247 449 247 c 1,98,99
 423 219 423 219 388 203 c 0,100,101
 352 186 352 186 312 186 c 0,102,103
 236 186 236 186 181 242 c 0,104,105
 126 297 126 297 126 373 c 256,106,107
 126 449 126 449 181 504 c 256,108,109
 236 559 236 559 312 559 c 0,24,25
311 457 m 0,110,111
 325 457 325 457 334 449 c 0,112,113
 342 441 342 441 342 429 c 0,114,115
 342 416 342 416 334 407 c 0,116,117
 325 398 325 398 311 398 c 0,118,119
 307 398 307 398 297 398 c 1,120,121
 297 413 297 413 297 457 c 1,122,123
 301 457 301 457 311 457 c 0,110,111
EndSplineSet
Validated: 41
EndChar

StartChar: macron
Encoding: 175 175 110
Width: 469
GlyphClass: 1
Flags: W
LayerCount: 2
Fore
SplineSet
344 771 m 1,0,1
 289 771 289 771 125 771 c 1,2,3
 125 757 125 757 125 714 c 1,4,5
 180 714 180 714 344 714 c 1,6,7
 344 728 344 728 344 771 c 1,0,1
EndSplineSet
Validated: 9
EndChar

StartChar: degree
Encoding: 176 176 111
Width: 344
GlyphClass: 1
Flags: W
LayerCount: 2
Fore
SplineSet
295 490 m 0,0,1
 295 542 295 542 259 578 c 0,2,3
 223 613 223 613 172 613 c 256,4,5
 121 613 121 613 85 578 c 0,6,7
 49 542 49 542 49 490 c 0,8,9
 49 440 49 440 85 404 c 256,10,11
 121 368 121 368 172 368 c 256,12,13
 223 368 223 368 259 404 c 256,14,15
 295 440 295 440 295 490 c 0,0,1
245 490 m 0,16,17
 245 461 245 461 223 439 c 0,18,19
 202 418 202 418 172 418 c 256,20,21
 142 418 142 418 121 439 c 0,22,23
 99 461 99 461 99 490 c 0,24,25
 99 521 99 521 121 543 c 0,26,27
 142 564 142 564 172 564 c 256,28,29
 202 564 202 564 223 543 c 0,30,31
 245 521 245 521 245 490 c 0,16,17
EndSplineSet
Validated: 9
EndChar

StartChar: twosuperior
Encoding: 178 178 112
Width: 429
GlyphClass: 1
Flags: W
LayerCount: 2
Fore
SplineSet
322 489 m 0,0,1
 322 536 322 536 289 569 c 0,2,3
 257 602 257 602 210 602 c 0,4,5
 161 602 161 602 129 568 c 0,6,7
 97 535 97 535 97 493 c 0,8,9
 97 480 97 480 99 472 c 0,10,11
 100 464 100 464 100 464 c 1,12,13
 127 464 127 464 181 463 c 1,14,15
 179 467 179 467 174 479 c 0,16,17
 172 479 172 479 167 479 c 0,18,19
 162 480 162 480 159 485 c 0,20,21
 156 489 156 489 156 496 c 0,22,23
 156 515 156 515 171 528 c 0,24,25
 187 542 187 542 208 542 c 256,26,27
 229 542 229 542 243 526 c 256,28,29
 257 510 257 510 257 489 c 256,30,31
 257 468 257 468 244 450 c 0,32,33
 230 433 230 433 215 417 c 0,34,35
 169 369 169 369 77 272 c 0,36,37
 77 267 77 267 77 252 c 1,38,39
 138 252 138 252 323 252 c 1,40,41
 323 275 323 275 324 344 c 1,42,43
 319 343 319 343 307 338 c 0,44,45
 307 336 307 336 307 329 c 0,46,47
 306 319 306 319 303 316 c 0,48,49
 299 313 299 313 287 313 c 0,50,51
 256 313 256 313 195 313 c 1,52,53
 209 328 209 328 254 371 c 0,54,55
 275 391 275 391 298 418 c 0,56,57
 322 444 322 444 322 489 c 0,0,1
EndSplineSet
Validated: 9
EndChar

StartChar: threesuperior
Encoding: 179 179 113
Width: 432
GlyphClass: 1
Flags: W
LayerCount: 2
Fore
SplineSet
216 308 m 0,0,1
 194 308 194 308 182 319 c 0,2,3
 171 331 171 331 171 343 c 0,4,5
 171 349 171 349 175 353 c 256,6,7
 179 357 179 357 183 359 c 1,8,9
 183 366 183 366 181 378 c 1,10,11
 163 367 163 367 109 335 c 1,12,13
 109 330 109 330 113 321 c 0,14,15
 116 312 116 312 122 302 c 0,16,17
 134 283 134 283 158 265 c 0,18,19
 181 248 181 248 219 248 c 0,20,21
 266 248 266 248 299 281 c 0,22,23
 333 314 333 314 333 360 c 0,24,25
 333 407 333 407 307 433 c 0,26,27
 282 458 282 458 257 468 c 1,28,29
 285 508 285 508 340 587 c 0,30,31
 340 590 340 590 340 598 c 1,32,33
 285 598 285 598 119 598 c 1,34,35
 119 574 119 574 118 504 c 1,36,37
 122 506 122 506 126 508 c 0,38,39
 130 509 130 509 134 511 c 0,40,41
 134 514 134 514 134 520 c 0,42,43
 135 529 135 529 139 532 c 0,44,45
 143 536 143 536 156 536 c 0,46,47
 184 536 184 536 240 536 c 1,48,49
 232 525 232 525 224 512 c 0,50,51
 215 499 215 499 206 486 c 0,52,53
 190 461 190 461 178 442 c 0,54,55
 165 423 165 423 165 423 c 1,56,57
 172 423 172 423 186 423 c 0,58,59
 232 423 232 423 251 403 c 256,60,61
 270 383 270 383 270 360 c 0,62,63
 270 340 270 340 255 324 c 256,64,65
 240 308 240 308 216 308 c 0,0,1
EndSplineSet
Validated: 9
EndChar

StartChar: acute
Encoding: 180 180 114
Width: 469
GlyphClass: 1
Flags: W
LayerCount: 2
Fore
SplineSet
221 792 m 1,0,1
 198 768 198 768 130 696 c 1,2,3
 145 696 145 696 190 696 c 1,4,5
 228 720 228 720 339 792 c 1,6,7
 310 792 310 792 221 792 c 1,0,1
EndSplineSet
Validated: 9
EndChar

StartChar: mu
Encoding: 181 181 115
Width: 905
GlyphClass: 1
Flags: W
LayerCount: 2
Fore
SplineSet
810 600 m 0,0,1
 798 600 798 600 784 599 c 256,2,3
 770 598 770 598 761 598 c 0,4,5
 734 598 734 598 681 598 c 0,6,7
 672 598 672 598 658 599 c 256,8,9
 644 600 644 600 632 600 c 0,10,11
 629 600 629 600 623 600 c 1,12,13
 624 596 624 596 629 583 c 0,14,15
 631 583 631 583 636 583 c 0,16,17
 657 580 657 580 666 571 c 256,18,19
 675 562 675 562 675 532 c 0,20,21
 675 455 675 455 675 300 c 0,22,23
 675 209 675 209 610 143 c 0,24,25
 545 78 545 78 453 78 c 256,26,27
 361 78 361 78 296 143 c 0,28,29
 231 209 231 209 231 300 c 0,30,31
 231 378 231 378 231 532 c 0,32,33
 231 562 231 562 240 571 c 256,34,35
 249 580 249 580 270 583 c 0,36,37
 273 583 273 583 278 583 c 1,38,39
 279 587 279 587 284 600 c 1,40,41
 281 600 281 600 274 600 c 0,42,43
 262 600 262 600 248 599 c 256,44,45
 234 598 234 598 225 598 c 0,46,47
 198 598 198 598 144 598 c 0,48,49
 135 598 135 598 121 599 c 0,50,51
 108 600 108 600 95 600 c 0,52,53
 93 600 93 600 87 600 c 1,54,55
 88 596 88 596 92 583 c 0,56,57
 94 583 94 583 99 583 c 0,58,59
 121 580 121 580 130 571 c 0,60,61
 138 562 138 562 138 532 c 0,62,63
 138 329 138 329 138 -77 c 0,64,65
 138 -107 138 -107 130 -115 c 0,66,67
 121 -124 121 -124 99 -126 c 0,68,69
 97 -126 97 -126 92 -126 c 1,70,71
 91 -131 91 -131 87 -144 c 1,72,73
 89 -144 89 -144 95 -144 c 0,74,75
 108 -144 108 -144 121 -143 c 0,76,77
 135 -142 135 -142 144 -142 c 0,78,79
 171 -142 171 -142 225 -142 c 0,80,81
 234 -142 234 -142 248 -143 c 256,82,83
 262 -144 262 -144 274 -144 c 0,84,85
 278 -144 278 -144 284 -144 c 1,86,87
 282 -140 282 -140 278 -126 c 0,88,89
 276 -126 276 -126 270 -126 c 0,90,91
 249 -124 249 -124 240 -115 c 0,92,93
 231 -107 231 -107 231 -77 c 0,94,95
 231 -24 231 -24 231 81 c 1,96,97
 272 37 272 37 330 11 c 0,98,99
 387 -15 387 -15 453 -15 c 0,100,101
 537 -15 537 -15 608 25 c 0,102,103
 678 66 678 66 720 133 c 0,104,105
 742 169 742 169 755 211 c 0,106,107
 767 253 767 253 767 299 c 0,108,109
 767 377 767 377 767 532 c 0,110,111
 767 562 767 562 776 571 c 0,112,113
 784 580 784 580 806 583 c 0,114,115
 808 583 808 583 813 583 c 1,116,117
 815 587 815 587 819 600 c 1,118,119
 817 600 817 600 810 600 c 0,0,1
EndSplineSet
Validated: 9
EndChar

StartChar: paragraph
Encoding: 182 182 116
Width: 624
GlyphClass: 1
Flags: W
LayerCount: 2
Fore
SplineSet
499 -116 m 0,0,1
 497 -116 497 -116 492 -116 c 0,2,3
 470 -113 470 -113 461 -104 c 0,4,5
 453 -95 453 -95 453 -66 c 0,6,7
 453 134 453 134 453 532 c 0,8,9
 453 562 453 562 461 571 c 0,10,11
 470 580 470 580 492 583 c 0,12,13
 494 583 494 583 499 583 c 1,14,15
 500 587 500 587 504 600 c 1,16,17
 502 600 502 600 496 600 c 0,18,19
 483 600 483 600 470 599 c 0,20,21
 456 598 456 598 446 598 c 0,22,23
 372 598 372 598 222 598 c 0,24,25
 158 598 158 598 113 553 c 0,26,27
 68 507 68 507 68 443 c 0,28,29
 68 380 68 380 112 335 c 256,30,31
 156 290 156 290 219 290 c 1,32,33
 219 171 219 171 219 -66 c 0,34,35
 219 -95 219 -95 211 -104 c 256,36,37
 203 -113 203 -113 181 -116 c 0,38,39
 179 -116 179 -116 174 -116 c 1,40,41
 173 -120 173 -120 168 -133 c 1,42,43
 170 -133 170 -133 177 -133 c 0,44,45
 189 -133 189 -133 203 -132 c 256,46,47
 217 -131 217 -131 226 -131 c 0,48,49
 250 -131 250 -131 298 -131 c 1,50,51
 298 30 298 30 298 513 c 1,52,53
 317 513 317 513 375 513 c 1,54,55
 375 352 375 352 375 -131 c 1,56,57
 393 -131 393 -131 446 -131 c 0,58,59
 456 -131 456 -131 470 -132 c 0,60,61
 483 -133 483 -133 496 -133 c 0,62,63
 498 -133 498 -133 504 -133 c 1,64,65
 503 -129 503 -129 499 -116 c 0,0,1
EndSplineSet
Validated: 9
EndChar

StartChar: periodcentered
Encoding: 183 183 117
Width: 328
GlyphClass: 1
Flags: W
LayerCount: 2
Fore
SplineSet
164 395 m 1,0,1
 143 375 143 375 81 312 c 1,2,3
 102 292 102 292 164 229 c 1,4,5
 185 250 185 250 247 312 c 1,6,7
 226 333 226 333 164 395 c 1,0,1
EndSplineSet
Validated: 9
EndChar

StartChar: cedilla
Encoding: 184 184 118
Width: 469
GlyphClass: 1
Flags: W
LayerCount: 2
Fore
SplineSet
240 -31 m 1,0,1
 216 -58 216 -58 145 -138 c 1,2,3
 158 -138 158 -138 195 -138 c 1,4,5
 227 -115 227 -115 323 -47 c 1,6,7
 302 -43 302 -43 240 -31 c 1,0,1
EndSplineSet
Validated: 9
EndChar

StartChar: onesuperior
Encoding: 185 185 119
Width: 383
GlyphClass: 1
Flags: W
LayerCount: 2
Fore
SplineSet
210 560 m 0,0,1
 210 572 210 572 213 577 c 0,2,3
 217 581 217 581 225 582 c 0,4,5
 228 582 228 582 232 582 c 0,6,7
 234 586 234 586 241 599 c 1,8,9
 236 599 236 599 220 599 c 0,10,11
 213 599 213 599 193 598 c 0,12,13
 185 598 185 598 163 598 c 0,14,15
 156 598 156 598 135 599 c 0,16,17
 130 599 130 599 115 599 c 1,18,19
 117 595 117 595 123 582 c 0,20,21
 125 582 125 582 130 582 c 0,22,23
 138 581 138 581 142 577 c 0,24,25
 145 572 145 572 145 560 c 0,26,27
 145 471 145 471 145 294 c 0,28,29
 145 282 145 282 142 277 c 0,30,31
 138 273 138 273 130 272 c 0,32,33
 128 272 128 272 123 272 c 1,34,35
 121 268 121 268 115 255 c 1,36,37
 120 255 120 255 135 255 c 0,38,39
 142 255 142 255 163 256 c 0,40,41
 170 256 170 256 193 256 c 0,42,43
 199 256 199 256 220 255 c 0,44,45
 225 255 225 255 241 255 c 1,46,47
 239 259 239 259 232 272 c 0,48,49
 231 272 231 272 225 272 c 0,50,51
 217 273 217 273 213 277 c 0,52,53
 210 282 210 282 210 294 c 0,54,55
 210 383 210 383 210 560 c 0,0,1
EndSplineSet
Validated: 9
EndChar

StartChar: ordmasculine
Encoding: 186 186 120
Width: 601
GlyphClass: 1
Flags: W
LayerCount: 2
Fore
SplineSet
301 171 m 0,0,1
 392 171 392 171 457 236 c 0,2,3
 522 300 522 300 522 392 c 256,4,5
 522 484 522 484 457 549 c 0,6,7
 392 613 392 613 301 613 c 0,8,9
 208 613 208 613 143 549 c 0,10,11
 78 484 78 484 78 392 c 256,12,13
 78 300 78 300 143 236 c 0,14,15
 208 171 208 171 301 171 c 0,0,1
274 418 m 1,16,17
 242 418 242 418 144 418 c 1,18,19
 152 468 152 468 188 504 c 0,20,21
 225 540 225 540 274 549 c 1,22,23
 274 505 274 505 274 418 c 1,16,17
326 549 m 1,24,25
 376 540 376 540 411 504 c 0,26,27
 447 468 447 468 456 418 c 1,28,29
 412 418 412 418 326 418 c 1,30,31
 326 451 326 451 326 549 c 1,24,25
274 236 m 1,32,33
 225 245 225 245 188 281 c 0,34,35
 152 317 152 317 144 367 c 1,36,37
 188 367 188 367 274 367 c 1,38,39
 274 334 274 334 274 236 c 1,32,33
456 367 m 1,40,41
 447 317 447 317 411 281 c 256,42,43
 375 245 375 245 326 236 c 1,44,45
 326 279 326 279 326 367 c 1,46,47
 358 367 358 367 456 367 c 1,40,41
EndSplineSet
Validated: 9
EndChar

StartChar: guillemotright
Encoding: 187 187 121
Width: 638
GlyphClass: 1
Flags: W
LayerCount: 2
Fore
SplineSet
98 210 m 0,0,1
 107 201 107 201 117 192 c 0,2,3
 128 183 128 183 134 176 c 0,4,5
 146 165 146 165 169 142 c 0,6,7
 175 135 175 135 184 125 c 0,8,9
 193 114 193 114 202 105 c 0,10,11
 204 103 204 103 208 99 c 1,12,13
 210 103 210 103 216 114 c 0,14,15
 215 115 215 115 211 120 c 0,16,17
 197 137 197 137 197 149 c 0,18,19
 198 161 198 161 219 182 c 0,20,21
 258 221 258 221 336 299 c 1,22,23
 307 328 307 328 219 417 c 0,24,25
 198 438 198 438 197 450 c 0,26,27
 197 462 197 462 211 479 c 0,28,29
 213 481 213 481 216 484 c 1,30,31
 214 488 214 488 208 499 c 1,32,33
 206 497 206 497 202 494 c 0,34,35
 193 484 193 484 184 474 c 0,36,37
 175 463 175 463 169 457 c 0,38,39
 157 445 157 445 134 422 c 0,40,41
 128 416 128 416 117 407 c 0,42,43
 107 398 107 398 98 389 c 0,44,45
 96 387 96 387 91 383 c 1,46,47
 95 381 95 381 106 375 c 1,48,49
 106 375 106 375 108 377 c 256,50,51
 110 379 110 379 112 381 c 0,52,53
 129 393 129 393 141 393 c 256,54,55
 153 393 153 393 174 373 c 0,56,57
 198 348 198 348 247 299 c 1,58,59
 229 281 229 281 174 226 c 0,60,61
 153 205 153 205 141 205 c 256,62,63
 129 205 129 205 112 218 c 0,64,65
 110 220 110 220 108 222 c 256,66,67
 106 224 106 224 106 224 c 1,68,69
 101 221 101 221 91 215 c 1,70,71
 93 214 93 214 98 210 c 0,0,1
403 417 m 0,72,73
 382 438 382 438 382 450 c 0,74,75
 381 462 381 462 395 479 c 0,76,77
 397 481 397 481 400 484 c 1,78,79
 398 488 398 488 392 499 c 1,80,81
 391 497 391 497 386 494 c 0,82,83
 377 484 377 484 368 474 c 0,84,85
 359 463 359 463 353 457 c 0,86,87
 340 444 340 444 314 418 c 1,88,89
 344 388 344 388 431 299 c 1,90,91
 402 269 402 269 314 180 c 1,92,93
 324 170 324 170 353 141 c 0,94,95
 359 135 359 135 368 124 c 0,96,97
 377 114 377 114 386 104 c 0,98,99
 388 103 388 103 392 99 c 1,100,101
 394 103 394 103 400 114 c 0,102,103
 399 115 399 115 395 119 c 0,104,105
 381 136 381 136 382 148 c 0,106,107
 382 161 382 161 403 181 c 0,108,109
 442 221 442 221 520 299 c 1,110,111
 491 328 491 328 403 417 c 0,72,73
EndSplineSet
Validated: 9
EndChar

StartChar: onequarter
Encoding: 188 188 122
Width: 816
GlyphClass: 1
Flags: W
LayerCount: 2
Fore
SplineSet
391 15 m 0,0,1
 391 16 391 16 389 16 c 1,2,3
 389 21 389 21 389 35 c 1,4,5
 390 35 390 35 391 35 c 0,6,7
 396 32 396 32 396 26 c 0,8,9
 396 24 396 24 396 19 c 0,10,11
 396 18 396 18 394 15 c 0,12,13
 391 10 391 10 391 10 c 2,14,15
 391 8 391 8 395 4 c 0,16,17
 398 -1 398 -1 403 -2 c 1,18,19
 399 0 399 0 399 1 c 0,20,21
 399 3 399 3 399 6 c 0,22,23
 399 8 399 8 399 13 c 0,24,25
 399 16 399 16 403 16 c 1,26,27
 403 17 403 17 405 19 c 0,28,29
 407 22 407 22 407 24 c 2,30,31
 407 24 407 24 405 26 c 0,32,33
 404 28 404 28 404 30 c 0,34,35
 404 31 404 31 404 34 c 256,36,37
 404 37 404 37 405 41 c 0,38,39
 406 44 406 44 412 44 c 0,40,41
 413 44 413 44 415 43 c 0,42,43
 418 43 418 43 418 39 c 0,44,45
 418 37 418 37 418 37 c 2,46,47
 417 35 417 35 414 28 c 0,48,49
 412 22 412 22 410 19 c 1,50,51
 410 19 410 19 412 19 c 0,52,53
 417 19 417 19 418 27 c 0,54,55
 421 34 421 34 430 34 c 1,56,57
 430 31 430 31 430 26 c 1,58,59
 434 33 434 33 444 37 c 1,60,61
 443 37 443 37 441 37 c 0,62,63
 428 37 428 37 423 42 c 0,64,65
 417 48 417 48 407 53 c 1,66,67
 405 41 405 41 396 41 c 0,68,69
 390 41 390 41 390 43 c 256,70,71
 390 45 390 45 390 51 c 0,72,73
 390 59 390 59 395 60 c 1,74,75
 394 60 394 60 389 60 c 1,76,77
 389 69 389 69 389 96 c 1,78,79
 385 98 385 98 372 106 c 1,80,81
 359 106 359 106 321 106 c 0,82,83
 316 106 316 106 308 112 c 0,84,85
 299 117 299 117 290 125 c 0,86,87
 282 132 282 132 276 137 c 0,88,89
 269 144 269 144 267 146 c 0,90,91
 260 163 260 163 252 179 c 0,92,93
 245 195 245 195 245 210 c 256,94,95
 245 225 245 225 253 227 c 0,96,97
 261 230 261 230 267 240 c 0,98,99
 267 241 267 241 268 245 c 256,100,101
 269 249 269 249 269 251 c 0,102,103
 271 261 271 261 273 279 c 0,104,105
 277 297 277 297 281 316 c 0,106,107
 286 334 286 334 292 350 c 0,108,109
 299 366 299 366 312 372 c 1,110,111
 309 385 309 385 308 395 c 256,112,113
 307 405 307 405 301 415 c 1,114,115
 301 401 301 401 301 375 c 2,116,117
 301 375 301 375 301 372 c 0,118,119
 300 371 300 371 300 370 c 0,120,121
 283 343 283 343 276 318 c 0,122,123
 268 292 268 292 264 262 c 1,124,125
 264 262 264 262 262 261 c 0,126,127
 261 260 261 260 260 260 c 256,128,129
 259 260 259 260 259 259 c 1,130,131
 255 259 255 259 253 269 c 0,132,133
 250 279 250 279 250 279 c 1,134,135
 246 307 246 307 242 334 c 0,136,137
 237 360 237 360 237 390 c 0,138,139
 237 421 237 421 241 454 c 0,140,141
 243 488 243 488 255 518 c 0,142,143
 271 553 271 553 298 579 c 0,144,145
 326 606 326 606 361 624 c 0,146,147
 395 642 395 642 433 652 c 256,148,149
 471 662 471 662 507 662 c 0,150,151
 542 662 542 662 581 652 c 0,152,153
 619 641 619 641 654 622 c 0,154,155
 690 604 690 604 717 576 c 0,156,157
 745 549 745 549 759 515 c 0,158,159
 770 485 770 485 773 452 c 256,160,161
 776 419 776 419 776 390 c 0,162,163
 776 381 776 381 773 360 c 256,164,165
 770 339 770 339 767 316 c 0,166,167
 763 294 763 294 759 277 c 0,168,169
 755 259 755 259 752 259 c 0,170,171
 751 260 751 260 750 260 c 0,172,173
 745 289 745 289 737 316 c 0,174,175
 730 342 730 342 714 368 c 0,176,177
 712 369 712 369 711 370 c 0,178,179
 711 372 711 372 711 372 c 2,180,181
 711 387 711 387 711 418 c 1,182,183
 705 407 705 407 703 396 c 0,184,185
 702 385 702 385 702 375 c 0,186,187
 702 373 702 373 702 372 c 0,188,189
 714 352 714 352 723 332 c 0,190,191
 732 310 732 310 739 289 c 0,192,193
 741 280 741 280 741 268 c 0,194,195
 742 254 742 254 745 245 c 0,196,197
 746 239 746 239 750 234 c 0,198,199
 753 231 753 231 757 227 c 0,200,201
 761 225 761 225 764 222 c 0,202,203
 767 218 767 218 767 209 c 0,204,205
 767 191 767 191 757 167 c 0,206,207
 748 143 748 143 733 134 c 0,208,209
 728 131 728 131 722 126 c 0,210,211
 715 122 715 122 709 116 c 0,212,213
 704 113 704 113 699 109 c 0,214,215
 695 106 695 106 695 106 c 1,216,217
 677 106 677 106 640 106 c 1,218,219
 640 106 640 106 635 104 c 0,220,221
 631 101 631 101 628 98 c 0,222,223
 626 97 626 97 625 95 c 0,224,225
 624 94 624 94 624 94 c 1,226,227
 624 83 624 83 624 64 c 0,228,229
 624 62 624 62 619 62 c 0,230,231
 607 56 607 56 597 48 c 256,232,233
 587 40 587 40 575 35 c 1,234,235
 577 32 577 32 580 26 c 1,236,237
 580 32 580 32 581 32 c 0,238,239
 584 32 584 32 586 32 c 0,240,241
 591 32 591 32 593 28 c 0,242,243
 594 24 594 24 594 19 c 256,244,245
 594 14 594 14 591 12 c 0,246,247
 589 8 589 8 584 6 c 1,248,249
 584 10 584 10 584 19 c 1,250,251
 584 14 584 14 580 -4 c 0,252,253
 579 -5 579 -5 579 -8 c 1,254,255
 585 -4 585 -4 588 -1 c 0,256,257
 590 4 590 4 591 4 c 0,258,259
 593 4 593 4 594 4 c 0,260,261
 596 4 596 4 598 1 c 1,262,263
 599 7 599 7 603 19 c 0,264,265
 603 22 603 22 598 28 c 0,266,267
 595 35 595 35 594 37 c 2,268,269
 594 37 594 37 594 39 c 0,270,271
 594 40 594 40 603 46 c 0,272,273
 612 54 612 54 615 55 c 0,274,275
 624 55 624 55 624 49 c 0,276,277
 624 41 624 41 615 41 c 0,278,279
 612 41 612 41 610 44 c 1,280,281
 609 37 609 37 607 24 c 0,282,283
 608 23 608 23 610 19 c 0,284,285
 610 15 610 15 610 -2 c 0,286,287
 610 -4 610 -4 604 -4 c 2,288,289
 604 -4 604 -4 603 -4 c 1,290,291
 603 -3 603 -3 603 -2 c 1,292,293
 600 -14 600 -14 599 -17 c 0,294,295
 598 -18 598 -18 594 -18 c 256,296,297
 590 -18 590 -18 586 -18 c 1,298,299
 586 -21 586 -21 586 -29 c 1,300,301
 588 -24 588 -24 593 -22 c 0,302,303
 597 -20 597 -20 603 -17 c 1,304,305
 609 -4 609 -4 617 7 c 256,306,307
 625 18 625 18 631 32 c 0,308,309
 631 35 631 35 634 35 c 0,310,311
 651 44 651 44 655 53 c 0,312,313
 661 62 661 62 661 76 c 0,314,315
 661 82 661 82 661 96 c 0,316,317
 664 97 664 97 677 98 c 0,318,319
 688 98 688 98 695 98 c 2,320,321
 695 98 695 98 696 98 c 0,322,323
 699 79 699 79 700 69 c 0,324,325
 702 59 702 59 702 43 c 0,326,327
 702 23 702 23 696 13 c 0,328,329
 690 1 690 1 679 -14 c 1,330,331
 669 -37 669 -37 649 -83 c 0,332,333
 645 -90 645 -90 634 -102 c 256,334,335
 623 -114 623 -114 609 -128 c 0,336,337
 596 -139 596 -139 581 -148 c 0,338,339
 568 -157 568 -157 558 -157 c 0,340,341
 524 -157 524 -157 458 -157 c 0,342,343
 446 -157 446 -157 433 -150 c 0,344,345
 418 -142 418 -142 405 -131 c 0,346,347
 390 -120 390 -120 380 -108 c 0,348,349
 369 -95 369 -95 364 -86 c 0,350,351
 354 -69 354 -69 350 -56 c 0,352,353
 345 -41 345 -41 339 -26 c 0,354,355
 333 -13 333 -13 327 -6 c 0,356,357
 323 0 323 0 319 7 c 0,358,359
 316 14 316 14 314 22 c 0,360,361
 312 31 312 31 312 43 c 0,362,363
 312 59 312 59 312 70 c 0,364,365
 313 81 313 81 315 98 c 0,366,367
 316 98 316 98 318 98 c 0,368,369
 322 98 322 98 335 98 c 0,370,371
 349 97 349 97 352 96 c 0,372,373
 352 92 352 92 351 87 c 0,374,375
 351 81 351 81 353 71 c 0,376,377
 355 62 355 62 358 50 c 1,378,379
 366 40 366 40 375 34 c 0,380,381
 385 30 385 30 389 16 c 1,382,383
 389 16 389 16 389 15 c 0,384,385
 389 9 389 9 390 9 c 2,386,387
 390 9 390 9 391 12 c 0,388,389
 391 13 391 13 391 15 c 0,0,1
301 244 m 0,390,391
 301 236 301 236 303 225 c 0,392,393
 304 213 304 213 308 201 c 0,394,395
 312 191 312 191 317 183 c 0,396,397
 324 176 324 176 335 174 c 0,398,399
 342 174 342 174 354 174 c 0,400,401
 375 174 375 174 394 180 c 0,402,403
 414 186 414 186 428 197 c 0,404,405
 444 208 444 208 454 225 c 256,406,407
 464 242 464 242 464 263 c 0,408,409
 464 275 464 275 458 283 c 0,410,411
 451 294 451 294 440 300 c 0,412,413
 430 308 430 308 417 314 c 0,414,415
 405 318 405 318 392 318 c 0,416,417
 351 318 351 318 326 304 c 256,418,419
 301 290 301 290 301 244 c 0,390,391
546 263 m 0,420,421
 546 242 546 242 557 225 c 0,422,423
 567 208 567 208 581 197 c 0,424,425
 598 186 598 186 617 180 c 256,426,427
 636 174 636 174 657 174 c 0,428,429
 691 174 691 174 699 194 c 0,430,431
 707 213 707 213 707 245 c 0,432,433
 707 254 707 254 707 272 c 0,434,435
 704 287 704 287 695 296 c 0,436,437
 685 304 685 304 672 308 c 0,438,439
 660 315 660 315 646 316 c 0,440,441
 632 318 632 318 618 318 c 0,442,443
 608 318 608 318 596 314 c 0,444,445
 584 308 584 308 572 300 c 0,446,447
 561 294 561 294 553 283 c 0,448,449
 546 275 546 275 546 263 c 0,420,421
452 135 m 0,450,451
 452 117 452 117 458 109 c 256,452,453
 464 101 464 101 475 89 c 0,454,455
 476 89 476 89 479 89 c 0,456,457
 484 89 484 89 487 95 c 0,458,459
 489 101 489 101 490 108 c 0,460,461
 492 116 492 116 494 125 c 0,462,463
 495 133 495 133 496 136 c 0,464,465
 498 142 498 142 498 153 c 0,466,467
 499 163 499 163 499 165 c 0,468,469
 499 178 499 178 499 203 c 0,470,471
 498 204 498 204 496 207 c 0,472,473
 477 199 477 199 464 178 c 0,474,475
 452 157 452 157 452 135 c 0,450,451
515 161 m 0,476,477
 515 151 515 151 515 144 c 0,478,479
 516 137 516 137 518 124 c 0,480,481
 518 119 518 119 519 114 c 0,482,483
 521 108 521 108 522 103 c 0,484,485
 524 97 524 97 527 92 c 0,486,487
 530 88 530 88 533 88 c 0,488,489
 534 88 534 88 536 89 c 0,490,491
 550 101 550 101 554 110 c 0,492,493
 559 118 559 118 559 135 c 0,494,495
 559 141 559 141 555 153 c 0,496,497
 552 164 552 164 544 177 c 0,498,499
 539 189 539 189 532 198 c 256,500,501
 525 207 525 207 518 207 c 0,502,503
 516 207 516 207 515 207 c 1,504,505
 515 206 515 206 515 206 c 2,506,507
 515 191 515 191 515 161 c 0,476,477
501 -29 m 1,508,509
 501 -32 501 -32 503 -46 c 0,510,511
 503 -63 503 -63 494 -72 c 1,512,513
 495 -72 495 -72 498 -72 c 0,514,515
 500 -69 500 -69 510 -65 c 1,516,517
 510 -56 510 -56 510 -29 c 1,518,519
 514 -29 514 -29 524 -29 c 1,520,521
 524 -30 524 -30 524 -37 c 0,522,523
 524 -39 524 -39 524 -48 c 0,524,525
 523 -57 523 -57 522 -63 c 1,526,527
 524 -60 524 -60 526 -58 c 256,528,529
 528 -56 528 -56 532 -56 c 1,530,531
 532 -54 532 -54 532 -50 c 0,532,533
 532 -30 532 -30 528 -26 c 0,534,535
 525 -21 525 -21 513 -21 c 0,536,537
 512 -21 512 -21 510 -21 c 1,538,539
 510 -19 510 -19 510 -11 c 0,540,541
 510 -2 510 -2 512 10 c 0,542,543
 513 23 513 23 522 30 c 1,544,545
 522 30 522 30 521 30 c 0,546,547
 517 30 517 30 512 23 c 256,548,549
 507 16 507 16 506 15 c 1,550,551
 504 17 504 17 500 19 c 1,552,553
 500 9 500 9 503 -21 c 1,554,555
 501 -21 501 -21 494 -23 c 0,556,557
 487 -26 487 -26 484 -26 c 0,558,559
 481 -28 481 -28 481 -29 c 0,560,561
 481 -31 481 -31 481 -37 c 0,562,563
 481 -44 481 -44 480 -54 c 0,564,565
 478 -63 478 -63 472 -65 c 1,566,567
 472 -65 472 -65 473 -65 c 0,568,569
 478 -65 478 -65 479 -60 c 0,570,571
 480 -56 480 -56 482 -56 c 256,572,573
 484 -56 484 -56 484 -56 c 2,574,575
 485 -57 485 -57 487 -60 c 0,576,577
 488 -63 488 -63 488 -65 c 1,578,579
 488 -53 488 -53 488 -29 c 1,580,581
 491 -29 491 -29 501 -29 c 1,508,509
460 -41 m 0,582,583
 460 -55 460 -55 453 -56 c 1,584,585
 457 -56 457 -56 464 -54 c 1,586,587
 464 -47 464 -47 464 -27 c 1,588,589
 468 -27 468 -27 480 -27 c 1,590,591
 480 -17 480 -17 480 10 c 0,592,593
 480 16 480 16 484 22 c 0,594,595
 487 27 487 27 491 30 c 1,596,597
 486 27 486 27 473 22 c 1,598,599
 473 12 473 12 472 -2 c 0,600,601
 471 -14 471 -14 471 -20 c 1,602,603
 469 -20 469 -20 463 -20 c 0,604,605
 458 -20 458 -20 453 -18 c 0,606,607
 448 -15 448 -15 448 -6 c 1,608,609
 446 -8 446 -8 444 -9 c 256,610,611
 442 -10 442 -10 442 -10 c 257,612,613
 442 -10 442 -10 440 -10 c 0,614,615
 437 -9 437 -9 434 -8 c 0,616,617
 431 -5 431 -5 431 -4 c 0,618,619
 431 4 431 4 431 19 c 1,620,621
 430 18 430 18 427 13 c 0,622,623
 424 6 424 6 424 4 c 0,624,625
 424 3 424 3 424 1 c 0,626,627
 424 -11 424 -11 437 -17 c 0,628,629
 451 -22 451 -22 460 -26 c 0,630,631
 460 -30 460 -30 460 -41 c 0,582,583
576 -10 m 1,632,633
 575 -10 575 -10 570 -9 c 0,634,635
 568 -9 568 -9 567 -10 c 0,636,637
 566 -12 566 -12 563 -17 c 0,638,639
 561 -19 561 -19 554 -20 c 0,640,641
 549 -21 549 -21 542 -21 c 0,642,643
 541 -21 541 -21 539 -21 c 1,644,645
 539 -11 539 -11 539 19 c 0,646,647
 541 22 541 22 546 30 c 1,648,649
 541 24 541 24 533 24 c 0,650,651
 531 25 531 25 524 26 c 1,652,653
 534 9 534 9 534 -11 c 0,654,655
 534 -14 534 -14 534 -19 c 256,656,657
 534 -24 534 -24 533 -26 c 1,658,659
 534 -26 534 -26 535 -26 c 0,660,661
 542 -26 542 -26 546 -29 c 0,662,663
 546 -32 546 -32 546 -41 c 0,664,665
 546 -47 546 -47 543 -55 c 0,666,667
 541 -61 541 -61 535 -65 c 1,668,669
 536 -65 536 -65 539 -65 c 0,670,671
 544 -65 544 -65 548 -60 c 0,672,673
 550 -55 550 -55 553 -51 c 0,674,675
 553 -42 553 -42 553 -26 c 1,676,677
 559 -22 559 -22 564 -19 c 0,678,679
 570 -15 570 -15 576 -10 c 1,632,633
613 30 m 0,680,681
 613 32 613 32 615 33 c 0,682,683
 618 34 618 34 619 35 c 0,684,685
 624 34 624 34 624 27 c 0,686,687
 624 24 624 24 623 21 c 0,688,689
 621 16 621 16 615 15 c 0,690,691
 614 16 614 16 613 21 c 0,692,693
 613 24 613 24 613 26 c 0,694,695
 613 27 613 27 613 30 c 0,680,681
554 19 m 0,696,697
 554 18 554 18 555 15 c 0,698,699
 557 12 557 12 558 10 c 1,700,701
 560 19 560 19 562 26 c 0,702,703
 566 33 566 33 571 37 c 1,704,705
 570 37 570 37 569 37 c 0,706,707
 564 37 564 37 559 31 c 0,708,709
 554 24 554 24 554 19 c 0,696,697
433 -37 m 1,710,711
 433 -37 433 -37 434 -37 c 0,712,713
 443 -37 443 -37 444 -44 c 0,714,715
 444 -50 444 -50 451 -55 c 1,716,717
 451 -54 451 -54 451 -51 c 0,718,719
 449 -47 449 -47 444 -35 c 0,720,721
 444 -33 444 -33 444 -31 c 1,722,723
 442 -32 442 -32 433 -37 c 1,710,711
569 -31 m 0,724,725
 567 -38 567 -38 563 -45 c 0,726,727
 561 -53 561 -53 554 -56 c 0,728,729
 554 -57 554 -57 555 -57 c 0,730,731
 561 -57 561 -57 566 -48 c 256,732,733
 571 -39 571 -39 571 -35 c 256,734,735
 571 -31 571 -31 569 -31 c 0,724,725
453 23 m 1,736,737
 453 19 453 19 453 7 c 1,738,739
 458 21 458 21 468 30 c 1,740,741
 467 30 467 30 464 30 c 0,742,743
 462 28 462 28 458 24 c 0,744,745
 457 23 457 23 453 23 c 1,736,737
415 15 m 1,746,747
 414 13 414 13 413 9 c 0,748,749
 412 6 412 6 412 4 c 0,750,751
 412 1 412 1 412 -2 c 1,752,753
 414 0 414 0 422 6 c 1,754,755
 419 8 419 8 415 15 c 1,746,747
560 10 m 0,756,757
 558 10 558 10 558 6 c 0,758,759
 558 4 558 4 560 4 c 1,760,761
 558 4 558 4 558 1 c 256,762,763
 558 -2 558 -2 560 -2 c 0,764,765
 563 -2 563 -2 563 1 c 256,766,767
 563 4 563 4 561 4 c 1,768,769
 563 4 563 4 563 6 c 0,770,771
 563 10 563 10 560 10 c 0,756,757
494 30 m 0,772,773
 491 30 491 30 491 26 c 0,774,775
 491 24 491 24 494 24 c 0,776,777
 495 24 495 24 495 24 c 1,778,779
 495 19 495 19 498 19 c 0,780,781
 500 19 500 19 500 24 c 0,782,783
 500 27 500 27 498 27 c 1,784,785
 498 30 498 30 494 30 c 0,772,773
514 -65 m 2,786,787
 514 -65 514 -65 513 -66 c 2,788,789
 513 -66 513 -66 513 -67 c 0,790,791
 513 -69 513 -69 513 -70 c 0,792,793
 514 -72 514 -72 514 -72 c 2,794,795
 514 -75 514 -75 517 -75 c 1,796,797
 517 -75 517 -75 517 -74 c 1,798,799
 518 -74 518 -74 518 -72 c 0,800,801
 518 -68 518 -68 517 -68 c 1,802,803
 517 -67 517 -67 517 -67 c 257,804,805
 517 -67 517 -67 516 -67 c 1,806,807
 516 -65 516 -65 514 -65 c 2,786,787
418 -21 m 1,808,809
 419 -22 419 -22 424 -26 c 1,810,811
 424 -22 424 -22 426 -13 c 1,812,813
 424 -15 424 -15 418 -21 c 1,808,809
550 30 m 256,814,815
 548 30 548 30 548 26 c 0,816,817
 548 24 548 24 550 24 c 1,818,819
 550 19 550 19 552 19 c 0,820,821
 553 19 553 19 553 23 c 0,822,823
 553 24 553 24 553 26 c 1,824,825
 552 26 552 26 552 26 c 1,826,827
 552 30 552 30 550 30 c 256,814,815
533 -56 m 0,828,829
 532 -56 532 -56 532 -60 c 0,830,831
 532 -65 532 -65 533 -65 c 0,832,833
 535 -65 535 -65 535 -60 c 0,834,835
 535 -56 535 -56 533 -56 c 0,828,829
586 -10 m 0,836,837
 582 -10 582 -10 582 -13 c 0,838,839
 582 -17 582 -17 586 -17 c 0,840,841
 588 -17 588 -17 588 -13 c 0,842,843
 588 -10 588 -10 586 -10 c 0,836,837
442 -21 m 256,844,845
 440 -21 440 -21 440 -26 c 0,846,847
 440 -29 440 -29 442 -29 c 256,848,849
 444 -29 444 -29 444 -26 c 0,850,851
 444 -21 444 -21 442 -21 c 256,844,845
571 -21 m 1,852,853
 571 -21 571 -21 571 -22 c 1,854,855
 570 -22 570 -22 570 -26 c 0,856,857
 570 -28 570 -28 571 -28 c 1,858,859
 571 -29 571 -29 571 -29 c 1,860,861
 573 -29 573 -29 573 -26 c 0,862,863
 573 -21 573 -21 571 -21 c 1,852,853
448 37 m 2,864,865
 444 37 444 37 444 35 c 0,866,867
 444 32 444 32 448 32 c 2,868,869
 448 32 448 32 450 32 c 0,870,871
 451 33 451 33 451 35 c 0,872,873
 451 36 451 36 450 36 c 0,874,875
 448 37 448 37 448 37 c 2,864,865
451 5 m 0,876,877
 446 5 446 5 446 1 c 0,878,879
 446 -2 446 -2 451 -2 c 0,880,881
 453 -2 453 -2 453 1 c 0,882,883
 453 5 453 5 451 5 c 0,876,877
404 -2 m 0,884,885
 403 -2 403 -2 403 -4 c 256,886,887
 403 -6 403 -6 404 -6 c 0,888,889
 407 -6 407 -6 407 -4 c 256,890,891
 407 -2 407 -2 404 -2 c 0,884,885
404 59 m 0,892,893
 400 59 400 59 400 55 c 0,894,895
 400 53 400 53 404 53 c 0,896,897
 407 53 407 53 407 55 c 0,898,899
 407 59 407 59 404 59 c 0,892,893
471 30 m 2,900,901
 468 30 468 30 468 26 c 0,902,903
 468 24 468 24 471 24 c 2,904,905
 471 24 471 24 472 24 c 256,906,907
 473 24 473 24 473 26 c 256,908,909
 473 28 473 28 472 28 c 0,910,911
 471 30 471 30 471 30 c 2,900,901
451 32 m 0,912,913
 448 32 448 32 448 30 c 0,914,915
 448 26 448 26 451 26 c 0,916,917
 452 26 452 26 452 30 c 0,918,919
 452 32 452 32 451 32 c 0,912,913
563 -4 m 0,920,921
 561 -4 561 -4 561 -6 c 0,922,923
 561 -10 561 -10 563 -10 c 0,924,925
 566 -10 566 -10 566 -6 c 0,926,927
 566 -4 566 -4 563 -4 c 0,920,921
431 -32 m 1,928,929
 430 -32 430 -32 427 -35 c 0,930,931
 427 -37 427 -37 430 -37 c 0,932,933
 431 -37 431 -37 431 -32 c 1,928,929
582 -35 m 1,934,935
 582 -35 582 -35 580 -35 c 0,936,937
 579 -36 579 -36 577 -36 c 0,938,939
 575 -37 575 -37 575 -37 c 257,940,941
 575 -37 575 -37 576 -37 c 1,942,943
 576 -38 576 -38 577 -38 c 0,944,945
 582 -38 582 -38 582 -35 c 1,934,935
407 -6 m 1,946,947
 407 -9 407 -9 410 -13 c 1,948,949
 410 -12 410 -12 410 -6 c 1,950,951
 409 -6 409 -6 407 -6 c 1,946,947
491 -65 m 0,952,953
 489 -65 489 -65 489 -67 c 0,954,955
 489 -72 489 -72 491 -72 c 0,956,957
 492 -72 492 -72 492 -67 c 0,958,959
 492 -65 492 -65 491 -65 c 0,952,953
468 -55 m 0,960,961
 466 -55 466 -55 466 -58 c 256,962,963
 466 -61 466 -61 467 -61 c 0,964,965
 469 -61 469 -61 469 -58 c 0,966,967
 469 -57 469 -57 468 -55 c 0,960,961
426 -29 m 2,968,969
 426 -29 426 -29 425 -29 c 1,970,971
 425 -29 425 -29 425 -30 c 2,972,973
 425 -30 425 -30 425 -31 c 1,974,975
 425 -31 425 -31 426 -31 c 0,976,977
 428 -31 428 -31 428 -30 c 2,978,979
 428 -30 428 -30 428 -29 c 1,980,981
 427 -29 427 -29 426 -29 c 2,968,969
412 -17 m 1,982,983
 412 -18 412 -18 412 -20 c 1,984,985
 412 -20 412 -20 415 -20 c 1,986,987
 414 -20 414 -20 412 -17 c 1,982,983
514 -72 m 1,988,989
 514 -67 514 -67 516 -67 c 1,990,991
 516 -72 516 -72 514 -72 c 1,988,989
495 24 m 1,992,993
 495 27 495 27 498 27 c 1,994,995
 498 24 498 24 495 24 c 1,992,993
552 26 m 1,996,997
 551 26 551 26 550 25 c 0,998,999
 550 24 550 24 550 24 c 1,1000,1001
 552 24 552 24 552 26 c 1,996,997
EndSplineSet
Validated: 5
EndChar

StartChar: onehalf
Encoding: 189 189 123
Width: 828
GlyphClass: 1
Flags: W
LayerCount: 2
Fore
SplineSet
745 110 m 0,0,1
 749 104 749 104 752 94 c 0,2,3
 755 85 755 85 753 79 c 0,4,5
 747 67 747 67 737 57 c 0,6,7
 726 46 726 46 716 34 c 0,8,9
 708 26 708 26 696 18 c 256,10,11
 684 10 684 10 682 0 c 0,12,13
 676 -17 676 -17 665 -17 c 0,14,15
 653 -17 653 -17 643 -23 c 0,16,17
 594 -51 594 -51 541 -44 c 0,18,19
 487 -38 487 -38 436 -44 c 0,20,21
 419 -46 419 -46 386 -30 c 0,22,23
 353 -13 353 -13 340 0 c 0,24,25
 322 16 322 16 303 31 c 0,26,27
 285 45 285 45 269 63 c 0,28,29
 263 69 263 69 265 85 c 0,30,31
 268 101 268 101 272 105 c 0,32,33
 285 111 285 111 285 121 c 0,34,35
 285 132 285 132 287 142 c 0,36,37
 291 155 291 155 297 167 c 0,38,39
 302 180 302 180 308 191 c 0,40,41
 308 193 308 193 310 194 c 256,42,43
 312 195 312 195 313 197 c 0,44,45
 321 216 321 216 328 236 c 0,46,47
 334 255 334 255 342 275 c 0,48,49
 348 289 348 289 357 300 c 0,50,51
 366 312 366 312 376 322 c 0,52,53
 386 334 386 334 397 344 c 256,54,55
 408 354 408 354 418 364 c 0,56,57
 428 372 428 372 436 380 c 0,58,59
 445 387 445 387 455 395 c 0,60,61
 457 397 457 397 461 395 c 256,62,63
 465 393 465 393 465 393 c 1,64,65
 469 367 469 367 485 369 c 0,66,67
 501 372 501 372 515 372 c 0,68,69
 525 372 525 372 534 372 c 0,70,71
 544 372 544 372 552 374 c 0,72,73
 579 378 579 378 597 365 c 0,74,75
 614 352 614 352 630 333 c 0,76,77
 636 325 636 325 642 315 c 256,78,79
 648 305 648 305 656 301 c 0,80,81
 686 289 686 289 681 267 c 256,82,83
 676 245 676 245 680 225 c 0,84,85
 682 214 682 214 682 200 c 0,86,87
 682 187 682 187 706 189 c 1,88,89
 698 159 698 159 715 144 c 0,90,91
 731 128 731 128 745 110 c 0,0,1
549 348 m 1,92,93
 543 348 543 348 537 348 c 256,94,95
 531 348 531 348 531 348 c 1,96,97
 529 327 529 327 526 304 c 256,98,99
 523 281 523 281 523 259 c 0,100,101
 523 249 523 249 520 232 c 0,102,103
 518 215 518 215 549 217 c 1,104,105
 549 251 549 251 549 284 c 256,106,107
 549 317 549 317 549 348 c 1,92,93
481 351 m 1,108,109
 477 345 477 345 472 338 c 0,110,111
 468 331 468 331 468 325 c 256,112,113
 468 319 468 319 472 312 c 0,114,115
 477 304 477 304 481 299 c 1,116,117
 487 304 487 304 491 311 c 0,118,119
 496 317 496 317 502 325 c 1,120,121
 496 333 496 333 490 339 c 0,122,123
 485 345 485 345 481 351 c 1,108,109
510 531 m 0,124,125
 523 551 523 551 534 569 c 256,126,127
 545 587 545 587 557 605 c 1,128,129
 578 587 578 587 597 569 c 256,130,131
 616 551 616 551 638 531 c 0,132,133
 644 529 644 529 654 526 c 0,134,135
 665 522 665 522 674 518 c 0,136,137
 702 504 702 504 705 481 c 0,138,139
 708 457 708 457 706 432 c 1,140,141
 692 420 692 420 677 410 c 0,142,143
 663 399 663 399 651 387 c 0,144,145
 639 374 639 374 627 374 c 0,146,147
 616 374 616 374 604 387 c 0,148,149
 596 397 596 397 587 404 c 0,150,151
 577 411 577 411 567 419 c 0,152,153
 567 421 567 421 569 423 c 0,154,155
 570 425 570 425 570 427 c 1,156,157
 552 427 552 427 535 427 c 0,158,159
 517 427 517 427 499 427 c 0,160,161
 472 427 472 427 450 436 c 0,162,163
 428 446 428 446 418 474 c 0,164,165
 416 476 416 476 412 477 c 0,166,167
 407 478 407 478 405 482 c 256,168,169
 403 486 403 486 399 490 c 0,170,171
 395 495 395 495 397 497 c 0,172,173
 405 507 405 507 415 515 c 0,174,175
 424 523 424 523 434 531 c 0,176,177
 436 533 436 533 439 534 c 256,178,179
 442 535 442 535 444 537 c 0,180,181
 448 540 448 540 452 546 c 0,182,183
 457 551 457 551 463 555 c 1,184,185
 465 551 465 551 468 545 c 0,186,187
 472 539 472 539 478 531 c 1,188,189
 486 531 486 531 496 531 c 256,190,191
 506 531 506 531 510 531 c 0,124,125
EndSplineSet
Validated: 33
EndChar

StartChar: threequarters
Encoding: 190 190 124
Width: 897
GlyphClass: 1
Flags: W
LayerCount: 2
Fore
SplineSet
368 251 m 0,0,1
 362 255 362 255 361 267 c 0,2,3
 361 279 361 279 357 291 c 1,4,5
 432 291 432 291 503 291 c 0,6,7
 575 291 575 291 651 291 c 1,8,9
 647 281 647 281 644 274 c 0,10,11
 640 268 640 268 638 262 c 0,12,13
 626 238 626 238 616 213 c 256,14,15
 606 188 606 188 596 162 c 0,16,17
 592 154 592 154 588 145 c 256,18,19
 584 136 584 136 580 128 c 0,20,21
 578 128 578 128 575 129 c 256,22,23
 572 130 572 130 570 130 c 1,24,25
 570 119 570 119 571 107 c 256,26,27
 572 95 572 95 570 83 c 0,28,29
 568 75 568 75 562 69 c 256,30,31
 556 63 556 63 554 57 c 0,32,33
 550 45 550 45 548 34 c 256,34,35
 546 23 546 23 544 17 c 0,36,37
 536 7 536 7 531 1 c 0,38,39
 526 -6 526 -6 520 -12 c 0,40,41
 516 -16 516 -16 512 -19 c 256,42,43
 508 -22 508 -22 504 -22 c 0,44,45
 502 -22 502 -22 498 -17 c 0,46,47
 494 -13 494 -13 494 -9 c 0,48,49
 486 13 486 13 482 38 c 0,50,51
 479 63 479 63 465 73 c 0,52,53
 445 86 445 86 445 111 c 0,54,55
 446 136 446 136 420 143 c 0,56,57
 416 145 416 145 416 161 c 0,58,59
 415 177 415 177 415 191 c 1,60,61
 405 191 405 191 398 190 c 0,62,63
 392 190 392 190 386 188 c 1,64,65
 386 206 386 206 387 223 c 0,66,67
 387 239 387 239 368 251 c 0,0,1
415 417 m 0,68,69
 417 427 417 427 428 435 c 256,70,71
 439 443 439 443 449 451 c 0,72,73
 455 457 455 457 462 463 c 256,74,75
 469 469 469 469 481 477 c 0,76,77
 488 477 488 477 501 478 c 256,78,79
 514 479 514 479 528 477 c 0,80,81
 538 477 538 477 549 474 c 256,82,83
 560 471 560 471 562 467 c 0,84,85
 568 451 568 451 577 438 c 0,86,87
 586 426 586 426 596 414 c 0,88,89
 610 398 610 398 621 380 c 0,90,91
 631 361 631 361 641 343 c 0,92,93
 643 341 643 341 639 333 c 256,94,95
 635 325 635 325 633 325 c 0,96,97
 617 323 617 323 601 324 c 0,98,99
 586 325 586 325 570 325 c 0,100,101
 519 325 519 325 466 325 c 0,102,103
 414 325 414 325 354 325 c 1,104,105
 372 341 372 341 382 357 c 0,106,107
 392 374 392 374 386 396 c 1,108,109
 396 398 396 398 403 399 c 0,110,111
 411 401 411 401 415 417 c 0,68,69
360 385 m 256,112,113
 354 381 354 381 349 376 c 0,114,115
 343 371 343 371 333 370 c 1,116,117
 331 358 331 358 329 347 c 256,118,119
 327 336 327 336 326 322 c 1,120,121
 288 322 288 322 252 322 c 256,122,123
 216 322 216 322 178 322 c 1,124,125
 176 334 176 334 176 344 c 0,126,127
 175 354 175 354 173 364 c 1,128,129
 175 362 175 362 177 362 c 0,130,131
 179 361 179 361 181 359 c 1,132,133
 199 379 199 379 217 398 c 256,134,135
 235 417 235 417 255 435 c 0,136,137
 268 447 268 447 279 463 c 0,138,139
 289 479 289 479 312 477 c 0,140,141
 336 475 336 475 361 476 c 256,142,143
 386 477 386 477 417 477 c 1,144,145
 408 465 408 465 401 457 c 0,146,147
 395 448 395 448 391 440 c 0,148,149
 389 440 389 440 387 442 c 0,150,151
 385 443 385 443 383 443 c 1,152,153
 385 431 385 431 386 419 c 0,154,155
 386 408 386 408 386 396 c 1,156,157
 380 394 380 394 373 392 c 0,158,159
 366 389 366 389 360 385 c 256,112,113
833 322 m 1,160,161
 795 322 795 322 758 322 c 0,162,163
 720 322 720 322 680 322 c 1,164,165
 678 334 678 334 678 345 c 0,166,167
 677 355 677 355 675 367 c 1,168,169
 673 365 673 365 671 364 c 0,170,171
 669 364 669 364 667 362 c 1,172,173
 649 389 649 389 630 417 c 0,174,175
 611 446 611 446 591 477 c 1,176,177
 626 477 626 477 655 478 c 256,178,179
 684 479 684 479 712 475 c 0,180,181
 724 473 724 473 734 460 c 256,182,183
 744 447 744 447 754 435 c 0,184,185
 770 419 770 419 784 404 c 0,186,187
 799 388 799 388 814 372 c 0,188,189
 816 370 816 370 822 370 c 0,190,191
 827 370 827 370 833 370 c 1,192,193
 833 356 833 356 833 345 c 256,194,195
 833 334 833 334 833 322 c 1,160,161
386 120 m 1,196,197
 388 120 388 120 390 121 c 0,198,199
 393 122 393 122 396 122 c 0,200,201
 402 109 402 109 407 95 c 0,202,203
 412 80 412 80 417 65 c 0,204,205
 414 63 414 63 411 61 c 256,206,207
 408 59 408 59 404 57 c 1,208,209
 349 114 349 114 294 170 c 256,210,211
 239 226 239 226 184 283 c 1,212,213
 195 295 195 295 237 298 c 0,214,215
 280 301 280 301 331 293 c 1,216,217
 338 286 338 286 335 273 c 256,218,219
 332 260 332 260 336 251 c 0,220,221
 338 247 338 247 344 244 c 0,222,223
 350 242 350 242 362 243 c 1,224,225
 362 230 362 230 362 218 c 0,226,227
 362 207 362 207 362 191 c 1,228,229
 368 189 368 189 374 189 c 256,230,231
 380 189 380 189 386 191 c 1,232,233
 386 173 386 173 386 155 c 0,234,235
 386 138 386 138 386 120 c 1,196,197
615 133 m 0,236,237
 630 155 630 155 639 181 c 0,238,239
 647 207 647 207 659 233 c 0,240,241
 657 235 657 235 655 235 c 0,242,243
 653 236 653 236 651 238 c 1,244,245
 657 240 657 240 664 242 c 0,246,247
 670 244 670 244 678 246 c 1,248,249
 678 258 678 258 679 269 c 256,250,251
 680 280 680 280 680 288 c 1,252,253
 718 288 718 288 756 288 c 0,254,255
 795 288 795 288 838 288 c 1,256,257
 775 227 775 227 720 172 c 256,258,259
 665 117 665 117 609 62 c 1,260,261
 598 82 598 82 598 97 c 0,262,263
 599 113 599 113 615 133 c 0,236,237
EndSplineSet
Validated: 37
EndChar

StartChar: questiondown
Encoding: 191 191 125
Width: 592
GlyphClass: 1
Flags: W
LayerCount: 2
Fore
SplineSet
353 490 m 1,0,1
 370 507 370 507 421 558 c 1,2,3
 404 575 404 575 353 626 c 1,4,5
 336 609 336 609 286 558 c 1,6,7
 303 541 303 541 353 490 c 1,0,1
473 148 m 1,8,9
 467 124 467 124 438 98 c 0,10,11
 408 72 408 72 360 72 c 0,12,13
 309 72 309 72 279 103 c 0,14,15
 250 135 250 135 250 176 c 0,16,17
 250 224 250 224 291 266 c 0,18,19
 333 307 333 307 392 367 c 1,20,21
 392 387 392 387 391 429 c 1,22,23
 381 438 381 438 352 465 c 1,24,25
 343 456 343 456 315 429 c 1,26,27
 315 420 315 420 315 393 c 1,28,29
 300 380 300 380 252 339 c 0,30,31
 207 301 207 301 180 262 c 256,32,33
 153 223 153 223 153 162 c 0,34,35
 156 81 156 81 210 34 c 0,36,37
 263 -13 263 -13 347 -13 c 0,38,39
 401 -13 401 -13 437 3 c 0,40,41
 473 20 473 20 489 37 c 1,42,43
 489 74 489 74 489 148 c 1,44,45
 485 148 485 148 473 148 c 1,8,9
EndSplineSet
Validated: 9
EndChar

StartChar: Agrave
Encoding: 192 192 126
Width: 796
GlyphClass: 1
Flags: W
LayerCount: 2
Fore
SplineSet
452 696 m 1,0,1
 429 720 429 720 360 792 c 1,2,3
 331 792 331 792 243 792 c 1,4,5
 280 768 280 768 391 696 c 1,6,7
 406 696 406 696 452 696 c 1,0,1
126 100 m 0,8,9
 114 76 114 76 103 64 c 0,10,11
 93 52 93 52 83 52 c 0,12,13
 77 52 77 52 71 54 c 0,14,15
 65 55 65 55 56 60 c 1,16,17
 52 56 52 56 43 46 c 1,18,19
 45 45 45 45 51 42 c 0,20,21
 66 36 66 36 109 16 c 0,22,23
 120 11 120 11 154 -5 c 0,24,25
 168 -14 168 -14 183 -22 c 0,26,27
 199 -31 199 -31 211 -37 c 0,28,29
 214 -38 214 -38 219 -41 c 1,30,31
 220 -36 220 -36 222 -22 c 1,32,33
 208 -15 208 -15 200 -7 c 0,34,35
 193 0 193 0 193 12 c 0,36,37
 193 22 193 22 197 34 c 256,38,39
 201 46 201 46 210 63 c 0,40,41
 223 91 223 91 250 145 c 1,42,43
 323 145 323 145 543 145 c 1,44,45
 553 125 553 125 583 63 c 0,46,47
 591 46 591 46 596 34 c 0,48,49
 600 22 600 22 600 12 c 0,50,51
 600 0 600 0 593 -7 c 0,52,53
 585 -15 585 -15 570 -22 c 1,54,55
 571 -28 571 -28 573 -41 c 1,56,57
 575 -40 575 -40 582 -37 c 0,58,59
 594 -31 594 -31 609 -22 c 0,60,61
 624 -14 624 -14 639 -5 c 0,62,63
 654 2 654 2 684 16 c 0,64,65
 698 23 698 23 741 42 c 0,66,67
 743 43 743 43 750 46 c 1,68,69
 746 50 746 50 736 60 c 1,70,71
 728 55 728 55 722 54 c 0,72,73
 716 52 716 52 710 52 c 0,74,75
 700 52 700 52 689 64 c 0,76,77
 679 76 679 76 667 100 c 0,78,79
 577 284 577 284 396 652 c 1,80,81
 329 514 329 514 126 100 c 0,8,9
506 223 m 1,82,83
 451 223 451 223 287 223 c 1,84,85
 314 283 314 283 396 464 c 1,86,87
 424 404 424 404 506 223 c 1,82,83
EndSplineSet
Validated: 9
EndChar

StartChar: Aacute
Encoding: 193 193 127
Width: 796
GlyphClass: 1
Flags: W
LayerCount: 2
Fore
SplineSet
430 792 m 1,0,1
 407 768 407 768 339 696 c 1,2,3
 354 696 354 696 399 696 c 1,4,5
 436 720 436 720 548 792 c 1,6,7
 518 792 518 792 430 792 c 1,0,1
126 100 m 0,8,9
 114 76 114 76 103 64 c 0,10,11
 93 52 93 52 83 52 c 0,12,13
 77 52 77 52 71 54 c 0,14,15
 65 55 65 55 56 60 c 1,16,17
 52 56 52 56 43 46 c 1,18,19
 45 45 45 45 51 42 c 0,20,21
 66 36 66 36 109 16 c 0,22,23
 120 11 120 11 154 -5 c 0,24,25
 168 -14 168 -14 183 -22 c 0,26,27
 199 -31 199 -31 211 -37 c 0,28,29
 214 -38 214 -38 219 -41 c 1,30,31
 220 -36 220 -36 222 -22 c 1,32,33
 208 -15 208 -15 200 -7 c 0,34,35
 193 0 193 0 193 12 c 0,36,37
 193 22 193 22 197 34 c 256,38,39
 201 46 201 46 210 63 c 0,40,41
 223 91 223 91 250 145 c 1,42,43
 323 145 323 145 543 145 c 1,44,45
 553 125 553 125 583 63 c 0,46,47
 591 46 591 46 596 34 c 0,48,49
 600 22 600 22 600 12 c 0,50,51
 600 0 600 0 593 -7 c 0,52,53
 585 -15 585 -15 570 -22 c 1,54,55
 571 -28 571 -28 573 -41 c 1,56,57
 575 -40 575 -40 582 -37 c 0,58,59
 594 -31 594 -31 609 -22 c 0,60,61
 624 -14 624 -14 639 -5 c 0,62,63
 654 2 654 2 684 16 c 0,64,65
 698 23 698 23 741 42 c 0,66,67
 743 43 743 43 750 46 c 1,68,69
 746 50 746 50 736 60 c 1,70,71
 728 55 728 55 722 54 c 0,72,73
 716 52 716 52 710 52 c 0,74,75
 700 52 700 52 689 64 c 0,76,77
 679 76 679 76 667 100 c 0,78,79
 577 284 577 284 396 652 c 1,80,81
 329 514 329 514 126 100 c 0,8,9
506 223 m 1,82,83
 451 223 451 223 287 223 c 1,84,85
 314 283 314 283 396 464 c 1,86,87
 424 404 424 404 506 223 c 1,82,83
EndSplineSet
Validated: 9
EndChar

StartChar: Acircumflex
Encoding: 194 194 128
Width: 796
GlyphClass: 1
Flags: W
LayerCount: 2
Fore
SplineSet
368 792 m 1,0,1
 345 767 345 767 276 695 c 1,2,3
 292 695 292 695 337 695 c 1,4,5
 352 705 352 705 396 734 c 1,6,7
 411 724 411 724 455 695 c 1,8,9
 470 695 470 695 515 695 c 1,10,11
 492 719 492 719 424 792 c 1,12,13
 410 792 410 792 368 792 c 1,0,1
126 100 m 0,14,15
 114 76 114 76 103 64 c 0,16,17
 93 52 93 52 83 52 c 0,18,19
 77 52 77 52 71 54 c 0,20,21
 65 55 65 55 56 60 c 1,22,23
 52 56 52 56 43 46 c 1,24,25
 45 45 45 45 51 42 c 0,26,27
 66 36 66 36 109 16 c 0,28,29
 120 11 120 11 154 -5 c 0,30,31
 168 -14 168 -14 183 -22 c 0,32,33
 199 -31 199 -31 211 -37 c 0,34,35
 214 -38 214 -38 219 -41 c 1,36,37
 220 -36 220 -36 222 -22 c 1,38,39
 208 -15 208 -15 200 -7 c 0,40,41
 193 0 193 0 193 12 c 0,42,43
 193 22 193 22 197 34 c 256,44,45
 201 46 201 46 210 63 c 0,46,47
 223 91 223 91 250 145 c 1,48,49
 323 145 323 145 543 145 c 1,50,51
 553 125 553 125 583 63 c 0,52,53
 591 46 591 46 596 34 c 0,54,55
 600 22 600 22 600 12 c 0,56,57
 600 0 600 0 593 -7 c 0,58,59
 585 -15 585 -15 570 -22 c 1,60,61
 571 -28 571 -28 573 -41 c 1,62,63
 575 -40 575 -40 582 -37 c 0,64,65
 594 -31 594 -31 609 -22 c 0,66,67
 624 -14 624 -14 639 -5 c 0,68,69
 654 2 654 2 684 16 c 0,70,71
 698 23 698 23 741 42 c 0,72,73
 743 43 743 43 750 46 c 1,74,75
 746 50 746 50 736 60 c 1,76,77
 728 55 728 55 722 54 c 0,78,79
 716 52 716 52 710 52 c 0,80,81
 700 52 700 52 689 64 c 0,82,83
 679 76 679 76 667 100 c 0,84,85
 577 284 577 284 396 652 c 1,86,87
 329 514 329 514 126 100 c 0,14,15
506 223 m 1,88,89
 451 223 451 223 287 223 c 1,90,91
 314 283 314 283 396 464 c 1,92,93
 424 404 424 404 506 223 c 1,88,89
EndSplineSet
Validated: 9
EndChar

StartChar: Atilde
Encoding: 195 195 129
Width: 796
GlyphClass: 1
Flags: W
LayerCount: 2
Fore
SplineSet
449 695 m 0,0,1
 466 695 466 695 480 701 c 0,2,3
 493 707 493 707 503 717 c 0,4,5
 521 734 521 734 529 757 c 0,6,7
 536 780 536 780 538 790 c 1,8,9
 524 790 524 790 498 790 c 1,10,11
 497 780 497 780 486 764 c 0,12,13
 475 749 475 749 462 749 c 0,14,15
 440 749 440 749 408 769 c 0,16,17
 377 790 377 790 345 790 c 0,18,19
 327 790 327 790 314 783 c 0,20,21
 300 777 300 777 290 768 c 0,22,23
 272 751 272 751 264 728 c 256,24,25
 256 705 256 705 255 695 c 1,26,27
 268 695 268 695 295 695 c 1,28,29
 296 705 296 705 306 720 c 256,30,31
 316 735 316 735 331 735 c 0,32,33
 353 735 353 735 385 715 c 0,34,35
 416 695 416 695 449 695 c 0,0,1
126 100 m 0,36,37
 114 76 114 76 103 64 c 0,38,39
 93 52 93 52 83 52 c 0,40,41
 77 52 77 52 71 54 c 0,42,43
 65 55 65 55 56 60 c 1,44,45
 52 56 52 56 43 46 c 1,46,47
 45 45 45 45 51 42 c 0,48,49
 66 36 66 36 109 16 c 0,50,51
 120 11 120 11 154 -5 c 0,52,53
 168 -14 168 -14 183 -22 c 0,54,55
 199 -31 199 -31 211 -37 c 0,56,57
 214 -38 214 -38 219 -41 c 1,58,59
 220 -36 220 -36 222 -22 c 1,60,61
 208 -15 208 -15 200 -7 c 0,62,63
 193 0 193 0 193 12 c 0,64,65
 193 22 193 22 197 34 c 256,66,67
 201 46 201 46 210 63 c 0,68,69
 223 91 223 91 250 145 c 1,70,71
 323 145 323 145 543 145 c 1,72,73
 553 125 553 125 583 63 c 0,74,75
 591 46 591 46 596 34 c 0,76,77
 600 22 600 22 600 12 c 0,78,79
 600 0 600 0 593 -7 c 0,80,81
 585 -15 585 -15 570 -22 c 1,82,83
 571 -28 571 -28 573 -41 c 1,84,85
 575 -40 575 -40 582 -37 c 0,86,87
 594 -31 594 -31 609 -22 c 0,88,89
 624 -14 624 -14 639 -5 c 0,90,91
 654 2 654 2 684 16 c 0,92,93
 698 23 698 23 741 42 c 0,94,95
 743 43 743 43 750 46 c 1,96,97
 746 50 746 50 736 60 c 1,98,99
 728 55 728 55 722 54 c 0,100,101
 716 52 716 52 710 52 c 0,102,103
 700 52 700 52 689 64 c 0,104,105
 679 76 679 76 667 100 c 0,106,107
 577 284 577 284 396 652 c 1,108,109
 329 514 329 514 126 100 c 0,36,37
506 223 m 1,110,111
 451 223 451 223 287 223 c 1,112,113
 314 283 314 283 396 464 c 1,114,115
 424 404 424 404 506 223 c 1,110,111
EndSplineSet
Validated: 9
EndChar

